<svg width="393" height="470" viewBox="0 0 393 470" fill="none" xmlns="http://www.w3.org/2000/svg">
<g filter="url(#filter0_d_1_1238)">
<path d="M15 30C15 21.7157 21.7157 15 30 15H353C361.284 15 368 21.7157 368 30V430C368 438.284 361.284 445 353 445H30C21.7157 445 15 438.284 15 430V30Z" fill="#FBFAF7"/>
</g>
<g clip-path="url(#clip0_1_1238)">
<path d="M90.923 90.6696C93.2813 87.5801 96.7996 65.5594 103.123 71.5731C107.24 75.4763 109.7 86.4104 113.231 90.5552C117.54 95.6026 139.147 90.4916 137.936 98.5777C137.095 104.185 124.972 107.719 121.798 112.207C115.692 120.827 126.081 126.701 125.431 135.118C124.743 143.941 111.128 135.08 106.985 132.639C103.569 130.63 101.504 128.621 97.5518 129.689C90.6935 131.532 87.1624 139.072 79.8963 139.975C72.5536 140.89 80.0875 125.036 81.1201 122.607C81.9996 120.548 85.7219 115.055 85.1738 112.767C84.1795 108.609 75.8171 107.312 72.3624 106.206C66.5112 104.35 63.0311 98.0438 69.6727 96.9757C77.487 95.7043 87.0859 95.6916 90.923 90.6696Z" fill="#F7BC28"/>
<path d="M95.9329 98.0312C97.2332 96.3275 99.1709 84.2365 102.638 87.5421C104.895 89.6908 106.259 95.6918 108.196 97.9676C110.567 100.739 122.435 97.9295 121.772 102.379C121.314 105.456 114.647 107.401 112.9 109.868C109.547 114.598 115.258 117.827 114.901 122.455C114.519 127.299 107.049 122.429 104.767 121.094C102.893 119.988 101.759 118.882 99.5788 119.467C95.8182 120.484 93.8678 124.629 89.8778 125.125C85.8495 125.621 89.9798 116.924 90.5534 115.577C91.0379 114.445 93.0775 111.432 92.7715 110.173C92.2234 107.885 87.6215 107.173 85.7348 106.575C82.5224 105.558 80.6103 102.087 84.2561 101.502C88.5521 100.79 93.8168 100.79 95.9329 98.0312Z" fill="#E48929"/>
<path d="M125.354 73.1879C125.482 70.5943 126.03 68.0133 126.986 65.585C127.101 65.2925 127.33 64.9366 127.649 65.0001C127.878 65.051 127.993 65.3053 128.057 65.5214C128.592 67.1106 128.936 68.7508 129.077 70.429C129.102 70.6579 129.128 70.9121 129.293 71.0647C129.561 71.3063 129.995 71.1537 130.313 70.9884C131.856 70.1874 133.411 69.3737 134.953 68.5728C135.03 70.5561 132.786 71.7386 131.792 73.455C131.639 73.7219 131.511 74.0144 131.575 74.3195C131.626 74.5992 131.843 74.8026 132.034 75.0061C133.436 76.43 134.839 77.854 136.254 79.2907C134.137 79.5195 131.932 78.8838 130.262 77.5616C130.262 80.0408 129.995 82.5328 129.446 84.9612C128.261 83.1176 127.381 81.0707 126.884 78.9474C125.648 79.8374 124.398 80.7146 123.162 81.6046C123.799 80.2697 124.437 78.9347 125.074 77.6124C125.15 77.4345 125.24 77.2565 125.227 77.0658C125.201 76.7606 124.934 76.5445 124.679 76.3664C123.302 75.4638 120.536 74.7644 120.192 72.9591C121.607 72.3743 123.837 72.9082 125.354 73.1879Z" fill="#FBC8B8"/>
<path d="M59.4234 122.607C59.4744 120.637 59.8951 118.666 60.66 116.848C60.7364 116.657 60.8767 116.428 61.0806 116.454C61.2718 116.466 61.3611 116.682 61.4248 116.86C61.82 118.068 62.0877 119.314 62.2152 120.573C62.2407 120.764 62.2662 120.967 62.3936 121.094C62.6613 121.336 63.0693 121.107 63.3497 120.891C64.344 120.141 65.4658 119.581 66.6513 119.225C66.4857 120.738 64.8412 121.616 64.1273 122.963C64.0508 123.103 63.9871 123.256 64.0126 123.421C64.0381 123.599 64.1783 123.751 64.3058 123.879C65.3893 124.947 66.4729 126.027 67.5437 127.108C65.9885 127.54 64.395 126.663 63.0183 125.824C63.0565 127.706 62.8781 129.587 62.4574 131.418C61.565 129.994 60.9149 128.43 60.5452 126.79C59.6401 127.502 58.7351 128.227 57.83 128.939C57.9702 127.985 58.3909 127.083 59.0155 126.358C59.2067 126.142 59.4362 125.9 59.4107 125.608C59.3852 125.315 59.1175 125.099 58.8753 124.934C57.5878 124.069 56.2875 123.192 55 122.315C55.2677 121.984 55.8031 121.908 56.16 122.149L59.4234 122.607Z" fill="#FBC8B8"/>
</g>
<path d="M64.1 185.28C61.6173 185.28 59.6107 184.757 58.08 183.712C56.568 182.648 55.812 181.491 55.812 180.24C55.812 179.717 55.952 179.307 56.232 179.008C56.512 178.691 56.932 178.532 57.492 178.532C57.996 178.551 58.4253 178.737 58.78 179.092C59.1533 179.447 59.4707 179.876 59.732 180.38C60.012 180.884 60.3107 181.388 60.628 181.892C60.9453 182.377 61.412 182.797 62.028 183.152C62.644 183.507 63.3907 183.684 64.268 183.684C65.2573 183.684 66.0413 183.432 66.62 182.928C67.2173 182.405 67.516 181.715 67.516 180.856C67.516 180.053 67.3013 179.391 66.872 178.868C66.4613 178.345 65.92 177.953 65.248 177.692C64.5947 177.412 63.8667 177.179 63.064 176.992C62.2613 176.787 61.4587 176.553 60.656 176.292C59.8533 176.031 59.116 175.704 58.444 175.312C57.772 174.901 57.2213 174.313 56.792 173.548C56.3813 172.764 56.176 171.812 56.176 170.692C56.176 168.975 56.8387 167.575 58.164 166.492C59.508 165.409 61.3187 164.868 63.596 164.868C65.836 164.868 67.6933 165.372 69.168 166.38C70.6613 167.369 71.3987 168.48 71.38 169.712C71.38 170.869 70.7827 171.448 69.588 171.448C69.028 171.448 68.5613 171.28 68.188 170.944C67.8333 170.589 67.5347 170.169 67.292 169.684C67.068 169.199 66.8253 168.713 66.564 168.228C66.3027 167.743 65.9107 167.332 65.388 166.996C64.884 166.641 64.2587 166.464 63.512 166.464C62.4853 166.464 61.7013 166.735 61.16 167.276C60.6187 167.817 60.348 168.508 60.348 169.348C60.348 170.151 60.5533 170.823 60.964 171.364C61.3933 171.905 61.9347 172.316 62.588 172.596C63.26 172.876 63.9973 173.128 64.8 173.352C65.6027 173.557 66.4053 173.8 67.208 174.08C68.0107 174.341 68.7387 174.668 69.392 175.06C70.064 175.452 70.6053 176.031 71.016 176.796C71.4453 177.561 71.66 178.485 71.66 179.568C71.66 181.323 70.932 182.713 69.476 183.74C68.02 184.767 66.228 185.28 64.1 185.28ZM84.7087 180.744C84.8767 180.52 85.082 180.445 85.3247 180.52C85.5673 180.595 85.6793 180.772 85.6607 181.052C85.5673 182.023 85.0073 182.975 83.9807 183.908C82.954 184.823 81.6193 185.28 79.9767 185.28C77.998 185.28 76.374 184.627 75.1047 183.32C73.8353 182.013 73.2007 180.296 73.2007 178.168C73.2007 176.171 73.8633 174.528 75.1887 173.24C76.514 171.933 78.11 171.28 79.9767 171.28C81.6753 171.28 82.982 171.681 83.8967 172.484C84.8113 173.287 85.2687 174.211 85.2687 175.256C85.2687 176.115 84.858 176.731 84.0367 177.104L77.8207 179.932C78.586 181.556 79.818 182.368 81.5167 182.368C82.226 182.368 82.8607 182.219 83.4207 181.92C83.9993 181.603 84.4287 181.211 84.7087 180.744ZM79.4727 172.512C78.7447 172.512 78.166 172.867 77.7367 173.576C77.3073 174.267 77.0927 175.153 77.0927 176.236C77.0927 177.151 77.186 177.953 77.3727 178.644L80.9847 176.824C81.47 176.581 81.7127 176.143 81.7127 175.508C81.7127 174.873 81.5073 174.22 81.0967 173.548C80.686 172.857 80.1447 172.512 79.4727 172.512ZM92.5826 185.28C91.2759 185.28 90.2399 184.869 89.4746 184.048C88.7279 183.208 88.3546 182.004 88.3546 180.436V173.184H87.0386C86.6652 173.184 86.4786 172.997 86.4786 172.624V172.148C86.4786 171.756 86.6652 171.56 87.0386 171.56H87.7386C88.5039 171.56 89.1479 171.308 89.6706 170.804C90.2119 170.3 90.5572 169.628 90.7066 168.788C90.7999 168.34 91.0146 168.116 91.3506 168.116H91.9106C92.3212 168.116 92.5266 168.34 92.5266 168.788L92.5546 171.56H95.7746C95.9239 171.56 96.0546 171.616 96.1666 171.728C96.2786 171.84 96.3346 171.98 96.3346 172.148V172.624C96.3346 172.792 96.2786 172.932 96.1666 173.044C96.0546 173.137 95.9239 173.184 95.7746 173.184H92.5546V180.492C92.5546 181.033 92.6852 181.472 92.9466 181.808C93.2266 182.125 93.5719 182.284 93.9826 182.284C94.9532 182.284 95.5879 181.864 95.8866 181.024C96.0546 180.781 96.2599 180.688 96.5026 180.744C96.7639 180.781 96.8946 180.931 96.8946 181.192C96.8946 182.275 96.5026 183.227 95.7186 184.048C94.9532 184.869 93.9079 185.28 92.5826 185.28ZM120.371 165.12C120.782 165.12 120.987 165.269 120.987 165.568V165.68C120.987 165.904 120.763 166.203 120.315 166.576C119.886 166.949 119.541 167.36 119.279 167.808L114.015 176.908V182.312C114.015 182.741 114.211 183.161 114.603 183.572C114.995 183.964 115.191 184.253 115.191 184.44V184.524C115.191 184.841 114.986 185 114.575 185H109.283C108.873 185 108.667 184.841 108.667 184.524V184.44C108.667 184.253 108.845 183.964 109.199 183.572C109.554 183.161 109.731 182.741 109.731 182.312V177.216L103.795 167.808C103.553 167.416 103.189 167.024 102.703 166.632C102.218 166.24 101.975 165.923 101.975 165.68V165.568C101.975 165.269 102.199 165.12 102.647 165.12H109.003C109.433 165.12 109.647 165.269 109.647 165.568V165.68C109.647 165.867 109.507 166.063 109.227 166.268C108.966 166.473 108.742 166.707 108.555 166.968C108.369 167.211 108.369 167.491 108.555 167.808L112.867 175.368L117.179 167.808C117.347 167.547 117.385 167.304 117.291 167.08C117.198 166.856 117.058 166.688 116.871 166.576C116.685 166.445 116.498 166.305 116.311 166.156C116.143 165.988 116.059 165.829 116.059 165.68V165.568C116.059 165.269 116.265 165.12 116.675 165.12H120.371ZM126.263 185.28C124.041 185.28 122.203 184.599 120.747 183.236C119.309 181.855 118.591 180.175 118.591 178.196C118.591 176.199 119.3 174.547 120.719 173.24C122.137 171.933 123.845 171.28 125.843 171.28C127.989 171.28 129.781 171.961 131.219 173.324C132.656 174.668 133.375 176.339 133.375 178.336C133.375 180.333 132.693 181.995 131.331 183.32C129.987 184.627 128.297 185.28 126.263 185.28ZM126.767 184.048C127.532 184.048 128.12 183.693 128.531 182.984C128.96 182.275 129.175 181.276 129.175 179.988C129.175 178.924 129.016 177.832 128.699 176.712C128.4 175.573 127.943 174.593 127.327 173.772C126.711 172.932 126.029 172.512 125.283 172.512C123.565 172.512 122.707 173.875 122.707 176.6C122.707 177.608 122.856 178.672 123.155 179.792C123.472 180.912 123.948 181.901 124.583 182.76C125.236 183.619 125.964 184.048 126.767 184.048ZM148.665 182.144C148.665 182.648 148.73 183.031 148.861 183.292C149.01 183.535 149.169 183.675 149.337 183.712C149.505 183.731 149.654 183.787 149.785 183.88C149.934 183.973 150.009 184.132 150.009 184.356C150.009 184.897 149.178 185.168 147.517 185.168C146.695 185.168 146.079 185.037 145.669 184.776C145.277 184.496 145.062 184.02 145.025 183.348C144.241 184.636 142.887 185.28 140.965 185.28C139.453 185.28 138.202 184.776 137.213 183.768C136.242 182.741 135.757 181.304 135.757 179.456V174.724C135.757 174.257 135.57 173.828 135.197 173.436C134.842 173.025 134.665 172.745 134.665 172.596V172.512C134.665 172.176 134.861 171.98 135.253 171.924L138.781 171.392C139.546 171.299 139.929 171.467 139.929 171.896L139.845 179.876C139.845 182.415 140.619 183.684 142.169 183.684C142.859 183.684 143.429 183.385 143.877 182.788C144.343 182.172 144.577 181.379 144.577 180.408V174.724C144.577 174.257 144.39 173.828 144.017 173.436C143.643 173.025 143.457 172.745 143.457 172.596V172.512C143.457 172.176 143.643 171.98 144.017 171.924L147.601 171.392C148.31 171.317 148.665 171.485 148.665 171.896V182.144ZM159.92 171.28C160.722 171.28 161.348 171.523 161.796 172.008C162.262 172.475 162.496 173.081 162.496 173.828C162.496 175.303 161.898 176.04 160.704 176.04C160.218 176.04 159.836 175.919 159.556 175.676C159.294 175.415 159.136 175.135 159.08 174.836C159.024 174.537 158.912 174.267 158.744 174.024C158.576 173.763 158.324 173.632 157.988 173.632C157.484 173.632 157.11 173.931 156.868 174.528C156.625 175.125 156.504 175.853 156.504 176.712V182.312C156.504 182.648 156.616 182.947 156.84 183.208C157.082 183.451 157.316 183.665 157.54 183.852C157.782 184.039 157.904 184.225 157.904 184.412V184.524C157.904 184.841 157.698 185 157.288 185H152.108C151.678 185 151.464 184.841 151.464 184.524V184.412C151.464 184.225 151.641 183.936 151.996 183.544C152.369 183.152 152.556 182.741 152.556 182.312V175.76C152.556 175.312 152.341 174.911 151.912 174.556C151.482 174.201 151.268 173.931 151.268 173.744V173.632C151.268 173.371 151.464 173.147 151.856 172.96L155.216 171.392C155.813 171.112 156.112 171.299 156.112 171.952V174.052C156.746 172.204 158.016 171.28 159.92 171.28ZM169.562 185C169.132 185 168.918 184.841 168.918 184.524V184.44C168.918 184.253 169.095 183.964 169.45 183.572C169.823 183.161 170.01 182.732 170.01 182.284V167.836C170.01 167.369 169.823 166.94 169.45 166.548C169.095 166.156 168.918 165.867 168.918 165.68V165.568C168.918 165.269 169.123 165.12 169.534 165.12H182.022C182.526 165.12 182.815 165.381 182.89 165.904L183.562 169.18C183.655 169.665 183.468 169.908 183.002 169.908H182.834C182.554 169.908 182.246 169.749 181.91 169.432C181.592 169.096 181.303 168.741 181.042 168.368C180.799 167.976 180.482 167.621 180.09 167.304C179.716 166.968 179.324 166.8 178.914 166.8H175.33C174.583 166.8 174.21 167.201 174.21 168.004V174.024H177.822C178.139 174.024 178.41 173.921 178.634 173.716C178.876 173.492 179.054 173.259 179.166 173.016C179.278 172.755 179.408 172.521 179.558 172.316C179.726 172.092 179.884 171.98 180.034 171.98H180.258C180.575 171.98 180.734 172.176 180.734 172.568V177.076C180.734 177.468 180.575 177.664 180.258 177.664H180.034C179.884 177.664 179.726 177.561 179.558 177.356C179.408 177.151 179.278 176.936 179.166 176.712C179.054 176.469 178.876 176.245 178.634 176.04C178.41 175.835 178.139 175.732 177.822 175.732H174.21L174.182 181.584C174.182 182.051 174.303 182.461 174.546 182.816C174.788 183.152 175.162 183.32 175.666 183.32H179.782C180.192 183.32 180.575 183.152 180.93 182.816C181.303 182.48 181.592 182.107 181.798 181.696C182.022 181.285 182.292 180.912 182.61 180.576C182.927 180.24 183.244 180.072 183.562 180.072H183.786C183.972 180.072 184.112 180.147 184.206 180.296C184.299 180.445 184.327 180.613 184.29 180.8L183.674 184.188C183.562 184.729 183.263 185 182.778 185H169.562ZM208.827 182.284C208.864 182.732 209.041 183.152 209.359 183.544C209.676 183.936 209.835 184.235 209.835 184.44V184.552C209.835 184.869 209.629 185.028 209.219 185.028H204.375C203.945 185.028 203.731 184.869 203.731 184.552V184.44C203.731 184.253 203.899 183.964 204.235 183.572C204.589 183.18 204.748 182.76 204.711 182.312L204.431 177.188C204.356 175.639 204.123 174.537 203.731 173.884C203.339 173.212 202.76 172.876 201.995 172.876C201.341 172.876 200.809 173.147 200.399 173.688C199.988 174.229 199.764 174.929 199.727 175.788C199.801 176.161 199.839 176.609 199.839 177.132V182.312C199.839 182.76 199.997 183.18 200.315 183.572C200.651 183.964 200.819 184.253 200.819 184.44V184.552C200.819 184.869 200.613 185.028 200.203 185.028H195.359C194.929 185.028 194.715 184.869 194.715 184.552V184.44C194.715 184.253 194.883 183.964 195.219 183.572C195.555 183.18 195.723 182.76 195.723 182.312V176.852C195.723 175.583 195.499 174.603 195.051 173.912C194.603 173.221 194.015 172.876 193.287 172.876C192.54 172.876 191.952 173.165 191.523 173.744C191.093 174.323 190.879 175.069 190.879 175.984V182.312C190.879 182.76 191.075 183.18 191.467 183.572C191.877 183.964 192.083 184.253 192.083 184.44V184.552C192.083 184.869 191.868 185.028 191.439 185.028H186.231C185.801 185.028 185.587 184.869 185.587 184.552V184.44C185.587 184.253 185.783 183.964 186.175 183.572C186.585 183.18 186.791 182.76 186.791 182.312V175.788C186.791 175.433 186.679 175.135 186.455 174.892C186.231 174.649 185.997 174.444 185.755 174.276C185.531 174.089 185.419 173.903 185.419 173.716V173.604C185.419 173.399 185.615 173.203 186.007 173.016L189.535 171.392C189.852 171.243 190.095 171.233 190.263 171.364C190.431 171.476 190.515 171.681 190.515 171.98V173.296C191.392 171.952 192.68 171.28 194.379 171.28C196.507 171.28 198.056 172.12 199.027 173.8C199.4 173.016 199.96 172.4 200.707 171.952C201.472 171.504 202.331 171.28 203.283 171.28C204.701 171.28 205.887 171.756 206.839 172.708C207.791 173.641 208.341 175.172 208.491 177.3L208.827 182.284ZM219.413 171.28C221.168 171.28 222.698 171.887 224.005 173.1C225.312 174.313 225.965 175.965 225.965 178.056C225.965 180.165 225.321 181.901 224.033 183.264C222.764 184.608 221.233 185.28 219.441 185.28C218.134 185.28 217.042 184.916 216.165 184.188V188.36C216.165 188.808 216.361 189.228 216.753 189.62C217.145 190.012 217.341 190.301 217.341 190.488V190.6C217.341 190.917 217.126 191.076 216.697 191.076H211.629C211.2 191.076 210.985 190.917 210.985 190.6V190.488C210.985 190.301 211.162 190.012 211.517 189.62C211.89 189.228 212.077 188.808 212.077 188.36V175.76C212.077 175.349 211.862 174.976 211.433 174.64C211.004 174.285 210.789 174.005 210.789 173.8V173.66C210.789 173.399 210.976 173.175 211.349 172.988L214.485 171.448C215.194 171.093 215.549 171.261 215.549 171.952L215.521 173.128C216.305 171.896 217.602 171.28 219.413 171.28ZM219.021 184.076C219.917 184.076 220.608 183.703 221.093 182.956C221.597 182.209 221.849 181.136 221.849 179.736C221.849 177.832 221.541 176.152 220.925 174.696C220.309 173.221 219.478 172.484 218.433 172.484C217.854 172.484 217.35 172.699 216.921 173.128C216.492 173.539 216.24 174.08 216.165 174.752V180.1C216.165 181.183 216.454 182.116 217.033 182.9C217.612 183.684 218.274 184.076 219.021 184.076ZM228.118 185C227.689 185 227.474 184.841 227.474 184.524V184.412C227.474 184.225 227.651 183.936 228.006 183.544C228.379 183.152 228.566 182.741 228.566 182.312V168.536C228.566 168.051 228.379 167.612 228.006 167.22C227.651 166.828 227.474 166.557 227.474 166.408V166.296C227.474 166.072 227.661 165.885 228.034 165.736L231.562 164C231.935 163.851 232.215 163.832 232.402 163.944C232.607 164.056 232.71 164.243 232.71 164.504V182.312C232.71 182.741 232.906 183.152 233.298 183.544C233.709 183.936 233.914 184.225 233.914 184.412V184.524C233.914 184.841 233.699 185 233.27 185H228.118ZM242.966 185.28C240.744 185.28 238.906 184.599 237.45 183.236C236.012 181.855 235.294 180.175 235.294 178.196C235.294 176.199 236.003 174.547 237.422 173.24C238.84 171.933 240.548 171.28 242.546 171.28C244.692 171.28 246.484 171.961 247.922 173.324C249.359 174.668 250.078 176.339 250.078 178.336C250.078 180.333 249.396 181.995 248.034 183.32C246.69 184.627 245 185.28 242.966 185.28ZM243.47 184.048C244.235 184.048 244.823 183.693 245.234 182.984C245.663 182.275 245.878 181.276 245.878 179.988C245.878 178.924 245.719 177.832 245.402 176.712C245.103 175.573 244.646 174.593 244.03 173.772C243.414 172.932 242.732 172.512 241.986 172.512C240.268 172.512 239.41 173.875 239.41 176.6C239.41 177.608 239.559 178.672 239.858 179.792C240.175 180.912 240.651 181.901 241.286 182.76C241.939 183.619 242.667 184.048 243.47 184.048ZM265.157 171.56C265.53 171.56 265.717 171.709 265.717 172.008V172.148C265.717 172.391 265.521 172.717 265.129 173.128C264.756 173.539 264.476 173.94 264.289 174.332L258.997 185.84C258.754 186.381 258.549 186.82 258.381 187.156C258.213 187.492 257.952 187.931 257.597 188.472C257.261 189.032 256.925 189.471 256.589 189.788C256.253 190.105 255.833 190.385 255.329 190.628C254.825 190.871 254.302 190.992 253.761 190.992C252.566 190.992 251.577 190.684 250.793 190.068C250.028 189.452 249.645 188.761 249.645 187.996C249.645 187.492 249.794 187.081 250.093 186.764C250.392 186.465 250.802 186.316 251.325 186.316C251.848 186.316 252.258 186.484 252.557 186.82C252.856 187.175 253.052 187.567 253.145 187.996C253.238 188.425 253.378 188.808 253.565 189.144C253.77 189.499 254.032 189.676 254.349 189.676C255.208 189.676 256.169 188.369 257.233 185.756L251.661 174.332C251.456 173.921 251.148 173.52 250.737 173.128C250.345 172.717 250.149 172.391 250.149 172.148V172.008C250.149 171.709 250.345 171.56 250.737 171.56H255.973C256.328 171.56 256.505 171.719 256.505 172.036V172.148C256.505 172.316 256.421 172.512 256.253 172.736C256.085 172.941 255.973 173.137 255.917 173.324C255.861 173.511 255.917 173.865 256.085 174.388L259.361 181.976L262.385 174.78C262.572 174.145 262.572 173.707 262.385 173.464C262.198 173.221 261.946 172.988 261.629 172.764C261.312 172.521 261.153 172.316 261.153 172.148V172.036C261.153 171.719 261.349 171.56 261.741 171.56H265.157ZM277.373 180.744C277.541 180.52 277.746 180.445 277.989 180.52C278.231 180.595 278.343 180.772 278.325 181.052C278.231 182.023 277.671 182.975 276.645 183.908C275.618 184.823 274.283 185.28 272.641 185.28C270.662 185.28 269.038 184.627 267.769 183.32C266.499 182.013 265.865 180.296 265.865 178.168C265.865 176.171 266.527 174.528 267.853 173.24C269.178 171.933 270.774 171.28 272.641 171.28C274.339 171.28 275.646 171.681 276.561 172.484C277.475 173.287 277.933 174.211 277.933 175.256C277.933 176.115 277.522 176.731 276.701 177.104L270.485 179.932C271.25 181.556 272.482 182.368 274.181 182.368C274.89 182.368 275.525 182.219 276.085 181.92C276.663 181.603 277.093 181.211 277.373 180.744ZM272.137 172.512C271.409 172.512 270.83 172.867 270.401 173.576C269.971 174.267 269.757 175.153 269.757 176.236C269.757 177.151 269.85 177.953 270.037 178.644L273.649 176.824C274.134 176.581 274.377 176.143 274.377 175.508C274.377 174.873 274.171 174.22 273.761 173.548C273.35 172.857 272.809 172.512 272.137 172.512ZM291.127 180.744C291.295 180.52 291.5 180.445 291.743 180.52C291.985 180.595 292.097 180.772 292.079 181.052C291.985 182.023 291.425 182.975 290.399 183.908C289.372 184.823 288.037 185.28 286.395 185.28C284.416 185.28 282.792 184.627 281.523 183.32C280.253 182.013 279.619 180.296 279.619 178.168C279.619 176.171 280.281 174.528 281.607 173.24C282.932 171.933 284.528 171.28 286.395 171.28C288.093 171.28 289.4 171.681 290.315 172.484C291.229 173.287 291.687 174.211 291.687 175.256C291.687 176.115 291.276 176.731 290.455 177.104L284.239 179.932C285.004 181.556 286.236 182.368 287.935 182.368C288.644 182.368 289.279 182.219 289.839 181.92C290.417 181.603 290.847 181.211 291.127 180.744ZM285.891 172.512C285.163 172.512 284.584 172.867 284.155 173.576C283.725 174.267 283.511 175.153 283.511 176.236C283.511 177.151 283.604 177.953 283.791 178.644L287.403 176.824C287.888 176.581 288.131 176.143 288.131 175.508C288.131 174.873 287.925 174.22 287.515 173.548C287.104 172.857 286.563 172.512 285.891 172.512ZM299.365 185.252C297.61 185.252 296.173 184.935 295.053 184.3C293.933 183.665 293.373 182.9 293.373 182.004C293.373 181.5 293.522 181.117 293.821 180.856C294.138 180.595 294.549 180.464 295.053 180.464C295.594 180.464 296.033 180.66 296.369 181.052C296.705 181.425 296.938 181.845 297.069 182.312C297.218 182.779 297.479 183.208 297.853 183.6C298.245 183.973 298.749 184.16 299.365 184.16C299.962 184.16 300.447 184.001 300.821 183.684C301.213 183.367 301.409 182.909 301.409 182.312C301.409 181.64 301.138 181.108 300.597 180.716C300.074 180.324 299.43 180.035 298.665 179.848C297.899 179.643 297.134 179.419 296.369 179.176C295.603 178.915 294.95 178.476 294.409 177.86C293.886 177.225 293.625 176.404 293.625 175.396C293.625 174.201 294.147 173.221 295.193 172.456C296.257 171.672 297.629 171.28 299.309 171.28C301.007 171.28 302.389 171.616 303.453 172.288C304.535 172.941 305.077 173.725 305.077 174.64C305.077 175.051 304.918 175.396 304.601 175.676C304.302 175.956 303.929 176.096 303.481 176.096C302.958 176.096 302.538 175.909 302.221 175.536C301.903 175.144 301.679 174.724 301.549 174.276C301.418 173.809 301.185 173.389 300.849 173.016C300.513 172.624 300.074 172.428 299.533 172.428C298.991 172.428 298.553 172.615 298.217 172.988C297.881 173.343 297.713 173.781 297.713 174.304C297.713 174.827 297.853 175.265 298.133 175.62C298.413 175.975 298.777 176.245 299.225 176.432C299.673 176.619 300.167 176.796 300.709 176.964C301.25 177.113 301.791 177.291 302.333 177.496C302.893 177.683 303.397 177.916 303.845 178.196C304.293 178.476 304.657 178.877 304.937 179.4C305.217 179.904 305.357 180.52 305.357 181.248C305.357 182.405 304.815 183.367 303.733 184.132C302.65 184.879 301.194 185.252 299.365 185.252ZM65.388 216.28C62.8867 216.28 60.8707 215.589 59.34 214.208C57.828 212.827 57.072 210.895 57.072 208.412V198.808C57.072 198.379 56.8853 197.968 56.512 197.576C56.1573 197.165 55.98 196.867 55.98 196.68V196.568C55.98 196.269 56.1947 196.12 56.624 196.12H61.888C62.3173 196.12 62.532 196.269 62.532 196.568V196.68C62.532 196.867 62.3267 197.165 61.916 197.576C61.524 197.968 61.328 198.379 61.328 198.808V208.412C61.328 210.372 61.7667 211.875 62.644 212.92C63.5213 213.947 64.744 214.46 66.312 214.46C67.544 214.46 68.6173 213.975 69.532 213.004C70.4653 212.015 70.932 210.484 70.932 208.412V198.808C70.932 198.379 70.7453 197.968 70.372 197.576C69.9987 197.165 69.812 196.867 69.812 196.68V196.568C69.812 196.269 70.0267 196.12 70.456 196.12H73.648C74.0773 196.12 74.292 196.269 74.292 196.568V196.68C74.292 196.867 74.0867 197.165 73.676 197.576C73.284 197.968 73.088 198.379 73.088 198.808V208.468C73.088 210.932 72.388 212.855 70.988 214.236C69.588 215.599 67.7213 216.28 65.388 216.28ZM83.9522 202.28C85.7069 202.28 87.2376 202.887 88.5442 204.1C89.8509 205.313 90.5042 206.965 90.5042 209.056C90.5042 211.165 89.8602 212.901 88.5722 214.264C87.3029 215.608 85.7722 216.28 83.9802 216.28C82.6736 216.28 81.5816 215.916 80.7042 215.188V219.36C80.7042 219.808 80.9002 220.228 81.2922 220.62C81.6842 221.012 81.8802 221.301 81.8802 221.488V221.6C81.8802 221.917 81.6656 222.076 81.2362 222.076H76.1682C75.7389 222.076 75.5242 221.917 75.5242 221.6V221.488C75.5242 221.301 75.7016 221.012 76.0562 220.62C76.4296 220.228 76.6162 219.808 76.6162 219.36V206.76C76.6162 206.349 76.4016 205.976 75.9722 205.64C75.5429 205.285 75.3282 205.005 75.3282 204.8V204.66C75.3282 204.399 75.5149 204.175 75.8882 203.988L79.0242 202.448C79.7336 202.093 80.0882 202.261 80.0882 202.952L80.0602 204.128C80.8442 202.896 82.1416 202.28 83.9522 202.28ZM83.5602 215.076C84.4562 215.076 85.1469 214.703 85.6322 213.956C86.1362 213.209 86.3882 212.136 86.3882 210.736C86.3882 208.832 86.0802 207.152 85.4642 205.696C84.8482 204.221 84.0176 203.484 82.9722 203.484C82.3936 203.484 81.8896 203.699 81.4602 204.128C81.0309 204.539 80.7789 205.08 80.7042 205.752V211.1C80.7042 212.183 80.9936 213.116 81.5722 213.9C82.1509 214.684 82.8136 215.076 83.5602 215.076ZM98.9873 216C98.558 216 98.3433 215.841 98.3433 215.524V215.44C98.3433 215.253 98.5207 214.964 98.8753 214.572C99.2487 214.161 99.4353 213.741 99.4353 213.312V198.808C99.4353 198.36 99.2487 197.94 98.8753 197.548C98.5207 197.156 98.3433 196.867 98.3433 196.68V196.568C98.3433 196.269 98.5487 196.12 98.9593 196.12H111.643C112.147 196.12 112.437 196.391 112.511 196.932L113.183 200.208C113.277 200.693 113.081 200.936 112.595 200.936H112.455C112.175 200.936 111.867 200.777 111.531 200.46C111.214 200.124 110.925 199.769 110.663 199.396C110.421 199.004 110.103 198.649 109.711 198.332C109.319 197.996 108.918 197.828 108.507 197.828H104.811C104.083 197.828 103.719 198.22 103.719 199.004V205.836H107.471C107.733 205.836 107.975 205.733 108.199 205.528C108.442 205.304 108.629 205.061 108.759 204.8C108.89 204.539 109.039 204.305 109.207 204.1C109.375 203.876 109.543 203.764 109.711 203.764H109.935C110.253 203.764 110.411 203.969 110.411 204.38V208.888C110.411 209.28 110.253 209.476 109.935 209.476H109.711C109.543 209.476 109.375 209.373 109.207 209.168C109.039 208.963 108.89 208.739 108.759 208.496C108.629 208.253 108.442 208.029 108.199 207.824C107.975 207.619 107.733 207.516 107.471 207.516H103.719V213.312C103.719 213.741 103.915 214.161 104.307 214.572C104.718 214.964 104.923 215.253 104.923 215.44V215.524C104.923 215.841 104.699 216 104.251 216H98.9873ZM120.466 216.28C118.244 216.28 116.406 215.599 114.95 214.236C113.512 212.855 112.794 211.175 112.794 209.196C112.794 207.199 113.503 205.547 114.922 204.24C116.34 202.933 118.048 202.28 120.046 202.28C122.192 202.28 123.984 202.961 125.422 204.324C126.859 205.668 127.578 207.339 127.578 209.336C127.578 211.333 126.896 212.995 125.534 214.32C124.19 215.627 122.5 216.28 120.466 216.28ZM120.97 215.048C121.735 215.048 122.323 214.693 122.734 213.984C123.163 213.275 123.378 212.276 123.378 210.988C123.378 209.924 123.219 208.832 122.902 207.712C122.603 206.573 122.146 205.593 121.53 204.772C120.914 203.932 120.232 203.512 119.486 203.512C117.768 203.512 116.91 204.875 116.91 207.6C116.91 208.608 117.059 209.672 117.358 210.792C117.675 211.912 118.151 212.901 118.786 213.76C119.439 214.619 120.167 215.048 120.97 215.048ZM137.744 202.28C138.547 202.28 139.172 202.523 139.62 203.008C140.087 203.475 140.32 204.081 140.32 204.828C140.32 206.303 139.723 207.04 138.528 207.04C138.043 207.04 137.66 206.919 137.38 206.676C137.119 206.415 136.96 206.135 136.904 205.836C136.848 205.537 136.736 205.267 136.568 205.024C136.4 204.763 136.148 204.632 135.812 204.632C135.308 204.632 134.935 204.931 134.692 205.528C134.449 206.125 134.328 206.853 134.328 207.712V213.312C134.328 213.648 134.44 213.947 134.664 214.208C134.907 214.451 135.14 214.665 135.364 214.852C135.607 215.039 135.728 215.225 135.728 215.412V215.524C135.728 215.841 135.523 216 135.112 216H129.932C129.503 216 129.288 215.841 129.288 215.524V215.412C129.288 215.225 129.465 214.936 129.82 214.544C130.193 214.152 130.38 213.741 130.38 213.312V206.76C130.38 206.312 130.165 205.911 129.736 205.556C129.307 205.201 129.092 204.931 129.092 204.744V204.632C129.092 204.371 129.288 204.147 129.68 203.96L133.04 202.392C133.637 202.112 133.936 202.299 133.936 202.952V205.052C134.571 203.204 135.84 202.28 137.744 202.28ZM154.526 216.28C152.043 216.28 150.036 215.757 148.506 214.712C146.994 213.648 146.238 212.491 146.238 211.24C146.238 210.717 146.378 210.307 146.658 210.008C146.938 209.691 147.358 209.532 147.918 209.532C148.422 209.551 148.851 209.737 149.206 210.092C149.579 210.447 149.896 210.876 150.158 211.38C150.438 211.884 150.736 212.388 151.054 212.892C151.371 213.377 151.838 213.797 152.454 214.152C153.07 214.507 153.816 214.684 154.694 214.684C155.683 214.684 156.467 214.432 157.046 213.928C157.643 213.405 157.942 212.715 157.942 211.856C157.942 211.053 157.727 210.391 157.298 209.868C156.887 209.345 156.346 208.953 155.674 208.692C155.02 208.412 154.292 208.179 153.49 207.992C152.687 207.787 151.884 207.553 151.082 207.292C150.279 207.031 149.542 206.704 148.87 206.312C148.198 205.901 147.647 205.313 147.218 204.548C146.807 203.764 146.602 202.812 146.602 201.692C146.602 199.975 147.264 198.575 148.59 197.492C149.934 196.409 151.744 195.868 154.022 195.868C156.262 195.868 158.119 196.372 159.594 197.38C161.087 198.369 161.824 199.48 161.806 200.712C161.806 201.869 161.208 202.448 160.014 202.448C159.454 202.448 158.987 202.28 158.614 201.944C158.259 201.589 157.96 201.169 157.718 200.684C157.494 200.199 157.251 199.713 156.99 199.228C156.728 198.743 156.336 198.332 155.814 197.996C155.31 197.641 154.684 197.464 153.938 197.464C152.911 197.464 152.127 197.735 151.586 198.276C151.044 198.817 150.774 199.508 150.774 200.348C150.774 201.151 150.979 201.823 151.39 202.364C151.819 202.905 152.36 203.316 153.014 203.596C153.686 203.876 154.423 204.128 155.226 204.352C156.028 204.557 156.831 204.8 157.634 205.08C158.436 205.341 159.164 205.668 159.818 206.06C160.49 206.452 161.031 207.031 161.442 207.796C161.871 208.561 162.086 209.485 162.086 210.568C162.086 212.323 161.358 213.713 159.902 214.74C158.446 215.767 156.654 216.28 154.526 216.28ZM177.321 213.144C177.321 213.648 177.386 214.031 177.517 214.292C177.666 214.535 177.825 214.675 177.993 214.712C178.161 214.731 178.31 214.787 178.441 214.88C178.59 214.973 178.665 215.132 178.665 215.356C178.665 215.897 177.834 216.168 176.173 216.168C175.352 216.168 174.736 216.037 174.325 215.776C173.933 215.496 173.718 215.02 173.681 214.348C172.897 215.636 171.544 216.28 169.621 216.28C168.109 216.28 166.858 215.776 165.869 214.768C164.898 213.741 164.413 212.304 164.413 210.456V205.724C164.413 205.257 164.226 204.828 163.853 204.436C163.498 204.025 163.321 203.745 163.321 203.596V203.512C163.321 203.176 163.517 202.98 163.909 202.924L167.437 202.392C168.202 202.299 168.585 202.467 168.585 202.896L168.501 210.876C168.501 213.415 169.276 214.684 170.825 214.684C171.516 214.684 172.085 214.385 172.533 213.788C173 213.172 173.233 212.379 173.233 211.408V205.724C173.233 205.257 173.046 204.828 172.673 204.436C172.3 204.025 172.113 203.745 172.113 203.596V203.512C172.113 203.176 172.3 202.98 172.673 202.924L176.257 202.392C176.966 202.317 177.321 202.485 177.321 202.896V213.144ZM186.98 216.28C184.908 216.28 183.181 215.589 181.8 214.208C180.437 212.827 179.756 211.175 179.756 209.252C179.756 207.161 180.437 205.481 181.8 204.212C183.181 202.943 184.852 202.299 186.812 202.28C188.417 202.261 189.78 202.635 190.9 203.4C192.039 204.165 192.608 205.099 192.608 206.2C192.608 206.611 192.468 206.956 192.188 207.236C191.908 207.497 191.469 207.619 190.872 207.6C190.424 207.581 190.032 207.423 189.696 207.124C189.36 206.825 189.08 206.48 188.856 206.088C188.651 205.696 188.436 205.304 188.212 204.912C187.988 204.52 187.708 204.193 187.372 203.932C187.036 203.652 186.644 203.512 186.196 203.512C185.412 203.512 184.777 203.867 184.292 204.576C183.825 205.285 183.592 206.172 183.592 207.236C183.592 209.103 184.021 210.596 184.88 211.716C185.757 212.836 186.915 213.396 188.352 213.396C189.827 213.396 190.947 212.743 191.712 211.436C191.824 211.287 191.955 211.203 192.104 211.184C192.272 211.147 192.412 211.184 192.524 211.296C192.655 211.389 192.711 211.529 192.692 211.716C192.599 212.967 192.048 214.04 191.04 214.936C190.051 215.832 188.697 216.28 186.98 216.28ZM201.144 216.28C199.072 216.28 197.345 215.589 195.964 214.208C194.601 212.827 193.92 211.175 193.92 209.252C193.92 207.161 194.601 205.481 195.964 204.212C197.345 202.943 199.016 202.299 200.976 202.28C202.581 202.261 203.944 202.635 205.064 203.4C206.203 204.165 206.772 205.099 206.772 206.2C206.772 206.611 206.632 206.956 206.352 207.236C206.072 207.497 205.633 207.619 205.036 207.6C204.588 207.581 204.196 207.423 203.86 207.124C203.524 206.825 203.244 206.48 203.02 206.088C202.815 205.696 202.6 205.304 202.376 204.912C202.152 204.52 201.872 204.193 201.536 203.932C201.2 203.652 200.808 203.512 200.36 203.512C199.576 203.512 198.941 203.867 198.456 204.576C197.989 205.285 197.756 206.172 197.756 207.236C197.756 209.103 198.185 210.596 199.044 211.716C199.921 212.836 201.079 213.396 202.516 213.396C203.991 213.396 205.111 212.743 205.876 211.436C205.988 211.287 206.119 211.203 206.268 211.184C206.436 211.147 206.576 211.184 206.688 211.296C206.819 211.389 206.875 211.529 206.856 211.716C206.763 212.967 206.212 214.04 205.204 214.936C204.215 215.832 202.861 216.28 201.144 216.28ZM219.732 211.744C219.9 211.52 220.105 211.445 220.348 211.52C220.591 211.595 220.703 211.772 220.684 212.052C220.591 213.023 220.031 213.975 219.004 214.908C217.977 215.823 216.643 216.28 215 216.28C213.021 216.28 211.397 215.627 210.128 214.32C208.859 213.013 208.224 211.296 208.224 209.168C208.224 207.171 208.887 205.528 210.212 204.24C211.537 202.933 213.133 202.28 215 202.28C216.699 202.28 218.005 202.681 218.92 203.484C219.835 204.287 220.292 205.211 220.292 206.256C220.292 207.115 219.881 207.731 219.06 208.104L212.844 210.932C213.609 212.556 214.841 213.368 216.54 213.368C217.249 213.368 217.884 213.219 218.444 212.92C219.023 212.603 219.452 212.211 219.732 211.744ZM214.496 203.512C213.768 203.512 213.189 203.867 212.76 204.576C212.331 205.267 212.116 206.153 212.116 207.236C212.116 208.151 212.209 208.953 212.396 209.644L216.008 207.824C216.493 207.581 216.736 207.143 216.736 206.508C216.736 205.873 216.531 205.22 216.12 204.548C215.709 203.857 215.168 203.512 214.496 203.512ZM227.97 216.252C226.215 216.252 224.778 215.935 223.658 215.3C222.538 214.665 221.978 213.9 221.978 213.004C221.978 212.5 222.127 212.117 222.426 211.856C222.743 211.595 223.154 211.464 223.658 211.464C224.199 211.464 224.638 211.66 224.974 212.052C225.31 212.425 225.543 212.845 225.674 213.312C225.823 213.779 226.085 214.208 226.458 214.6C226.85 214.973 227.354 215.16 227.97 215.16C228.567 215.16 229.053 215.001 229.426 214.684C229.818 214.367 230.014 213.909 230.014 213.312C230.014 212.64 229.743 212.108 229.202 211.716C228.679 211.324 228.035 211.035 227.27 210.848C226.505 210.643 225.739 210.419 224.974 210.176C224.209 209.915 223.555 209.476 223.014 208.86C222.491 208.225 222.23 207.404 222.23 206.396C222.23 205.201 222.753 204.221 223.798 203.456C224.862 202.672 226.234 202.28 227.914 202.28C229.613 202.28 230.994 202.616 232.058 203.288C233.141 203.941 233.682 204.725 233.682 205.64C233.682 206.051 233.523 206.396 233.206 206.676C232.907 206.956 232.534 207.096 232.086 207.096C231.563 207.096 231.143 206.909 230.826 206.536C230.509 206.144 230.285 205.724 230.154 205.276C230.023 204.809 229.79 204.389 229.454 204.016C229.118 203.624 228.679 203.428 228.138 203.428C227.597 203.428 227.158 203.615 226.822 203.988C226.486 204.343 226.318 204.781 226.318 205.304C226.318 205.827 226.458 206.265 226.738 206.62C227.018 206.975 227.382 207.245 227.83 207.432C228.278 207.619 228.773 207.796 229.314 207.964C229.855 208.113 230.397 208.291 230.938 208.496C231.498 208.683 232.002 208.916 232.45 209.196C232.898 209.476 233.262 209.877 233.542 210.4C233.822 210.904 233.962 211.52 233.962 212.248C233.962 213.405 233.421 214.367 232.338 215.132C231.255 215.879 229.799 216.252 227.97 216.252ZM241.368 216.252C239.614 216.252 238.176 215.935 237.056 215.3C235.936 214.665 235.376 213.9 235.376 213.004C235.376 212.5 235.526 212.117 235.824 211.856C236.142 211.595 236.552 211.464 237.056 211.464C237.598 211.464 238.036 211.66 238.372 212.052C238.708 212.425 238.942 212.845 239.072 213.312C239.222 213.779 239.483 214.208 239.856 214.6C240.248 214.973 240.752 215.16 241.368 215.16C241.966 215.16 242.451 215.001 242.824 214.684C243.216 214.367 243.412 213.909 243.412 213.312C243.412 212.64 243.142 212.108 242.6 211.716C242.078 211.324 241.434 211.035 240.668 210.848C239.903 210.643 239.138 210.419 238.372 210.176C237.607 209.915 236.954 209.476 236.412 208.86C235.89 208.225 235.628 207.404 235.628 206.396C235.628 205.201 236.151 204.221 237.196 203.456C238.26 202.672 239.632 202.28 241.312 202.28C243.011 202.28 244.392 202.616 245.456 203.288C246.539 203.941 247.08 204.725 247.08 205.64C247.08 206.051 246.922 206.396 246.604 206.676C246.306 206.956 245.932 207.096 245.484 207.096C244.962 207.096 244.542 206.909 244.224 206.536C243.907 206.144 243.683 205.724 243.552 205.276C243.422 204.809 243.188 204.389 242.852 204.016C242.516 203.624 242.078 203.428 241.536 203.428C240.995 203.428 240.556 203.615 240.22 203.988C239.884 204.343 239.716 204.781 239.716 205.304C239.716 205.827 239.856 206.265 240.136 206.62C240.416 206.975 240.78 207.245 241.228 207.432C241.676 207.619 242.171 207.796 242.712 207.964C243.254 208.113 243.795 208.291 244.336 208.496C244.896 208.683 245.4 208.916 245.848 209.196C246.296 209.476 246.66 209.877 246.94 210.4C247.22 210.904 247.36 211.52 247.36 212.248C247.36 213.405 246.819 214.367 245.736 215.132C244.654 215.879 243.198 216.252 241.368 216.252Z" fill="#163A24"/>
<path d="M87.936 300H81.552V288.576H87.936V289.84H82.992V293.408H87.648V294.656H82.992V298.736H87.936V300ZM99.6586 291.264C100.629 291.264 101.355 291.515 101.835 292.016C102.315 292.507 102.555 293.307 102.555 294.416V300H101.163V294.48C101.163 293.125 100.581 292.448 99.4186 292.448C98.5866 292.448 97.9893 292.688 97.6266 293.168C97.2746 293.648 97.0986 294.347 97.0986 295.264V300H95.7066V294.48C95.7066 293.125 95.12 292.448 93.9466 292.448C93.0826 292.448 92.4853 292.715 92.1546 293.248C91.824 293.781 91.6586 294.549 91.6586 295.552V300H90.2506V291.424H91.3866L91.5946 292.592H91.6746C91.9413 292.144 92.2986 291.813 92.7466 291.6C93.2053 291.376 93.6906 291.264 94.2026 291.264C95.5466 291.264 96.4213 291.744 96.8266 292.704H96.9066C97.1946 292.213 97.584 291.851 98.0746 291.616C98.576 291.381 99.104 291.264 99.6586 291.264ZM109.284 291.264C110.34 291.264 111.188 291.632 111.828 292.368C112.478 293.104 112.804 294.213 112.804 295.696C112.804 297.157 112.478 298.267 111.828 299.024C111.188 299.781 110.334 300.16 109.268 300.16C108.606 300.16 108.057 300.037 107.62 299.792C107.193 299.536 106.857 299.243 106.612 298.912H106.516C106.537 299.093 106.558 299.323 106.58 299.6C106.601 299.877 106.612 300.117 106.612 300.32V303.84H105.204V291.424H106.356L106.548 292.592H106.612C106.868 292.219 107.204 291.904 107.62 291.648C108.036 291.392 108.59 291.264 109.284 291.264ZM109.028 292.448C108.153 292.448 107.534 292.693 107.172 293.184C106.82 293.675 106.633 294.421 106.612 295.424V295.696C106.612 296.752 106.782 297.568 107.124 298.144C107.476 298.709 108.121 298.992 109.06 298.992C109.582 298.992 110.009 298.848 110.34 298.56C110.681 298.272 110.932 297.883 111.092 297.392C111.262 296.891 111.348 296.32 111.348 295.68C111.348 294.699 111.156 293.915 110.772 293.328C110.398 292.741 109.817 292.448 109.028 292.448ZM116.456 300H115.048V287.84H116.456V300ZM126.628 295.696C126.628 297.115 126.266 298.213 125.541 298.992C124.826 299.771 123.855 300.16 122.629 300.16C121.871 300.16 121.194 299.989 120.597 299.648C120.01 299.296 119.546 298.789 119.205 298.128C118.863 297.456 118.693 296.645 118.693 295.696C118.693 294.277 119.05 293.184 119.765 292.416C120.479 291.648 121.45 291.264 122.677 291.264C123.455 291.264 124.138 291.44 124.725 291.792C125.322 292.133 125.786 292.635 126.117 293.296C126.458 293.947 126.628 294.747 126.628 295.696ZM120.149 295.696C120.149 296.709 120.346 297.515 120.741 298.112C121.146 298.699 121.786 298.992 122.661 298.992C123.525 298.992 124.159 298.699 124.565 298.112C124.97 297.515 125.173 296.709 125.173 295.696C125.173 294.683 124.97 293.888 124.565 293.312C124.159 292.736 123.519 292.448 122.645 292.448C121.77 292.448 121.135 292.736 120.741 293.312C120.346 293.888 120.149 294.683 120.149 295.696ZM127.204 291.424H128.708L130.564 296.304C130.724 296.731 130.868 297.141 130.996 297.536C131.124 297.92 131.22 298.288 131.284 298.64H131.348C131.412 298.373 131.513 298.027 131.652 297.6C131.79 297.163 131.934 296.725 132.084 296.288L133.828 291.424H135.348L131.652 301.184C131.353 301.995 130.964 302.64 130.484 303.12C130.014 303.6 129.364 303.84 128.532 303.84C128.276 303.84 128.052 303.824 127.86 303.792C127.668 303.771 127.502 303.744 127.364 303.712V302.592C127.481 302.613 127.62 302.635 127.78 302.656C127.95 302.677 128.126 302.688 128.308 302.688C128.798 302.688 129.193 302.549 129.492 302.272C129.801 301.995 130.041 301.627 130.212 301.168L130.66 300.032L127.204 291.424ZM140.016 291.264C140.752 291.264 141.381 291.424 141.904 291.744C142.437 292.064 142.842 292.517 143.12 293.104C143.408 293.68 143.552 294.357 143.552 295.136V295.984H137.68C137.701 296.955 137.946 297.696 138.416 298.208C138.896 298.709 139.562 298.96 140.416 298.96C140.96 298.96 141.44 298.912 141.856 298.816C142.282 298.709 142.72 298.56 143.168 298.368V299.6C142.73 299.792 142.298 299.931 141.872 300.016C141.445 300.112 140.938 300.16 140.352 300.16C139.541 300.16 138.821 299.995 138.192 299.664C137.573 299.333 137.088 298.843 136.736 298.192C136.394 297.531 136.224 296.725 136.224 295.776C136.224 294.837 136.378 294.032 136.688 293.36C137.008 292.688 137.45 292.171 138.016 291.808C138.592 291.445 139.258 291.264 140.016 291.264ZM140 292.416C139.328 292.416 138.794 292.635 138.4 293.072C138.016 293.499 137.786 294.096 137.712 294.864H142.08C142.069 294.139 141.898 293.552 141.568 293.104C141.237 292.645 140.714 292.416 140 292.416ZM149.047 291.264C149.783 291.264 150.412 291.424 150.935 291.744C151.468 292.064 151.874 292.517 152.151 293.104C152.439 293.68 152.583 294.357 152.583 295.136V295.984H146.711C146.732 296.955 146.978 297.696 147.447 298.208C147.927 298.709 148.594 298.96 149.447 298.96C149.991 298.96 150.471 298.912 150.887 298.816C151.314 298.709 151.751 298.56 152.199 298.368V299.6C151.762 299.792 151.33 299.931 150.903 300.016C150.476 300.112 149.97 300.16 149.383 300.16C148.572 300.16 147.852 299.995 147.223 299.664C146.604 299.333 146.119 298.843 145.767 298.192C145.426 297.531 145.255 296.725 145.255 295.776C145.255 294.837 145.41 294.032 145.719 293.36C146.039 292.688 146.482 292.171 147.047 291.808C147.623 291.445 148.29 291.264 149.047 291.264ZM149.031 292.416C148.359 292.416 147.826 292.635 147.431 293.072C147.047 293.499 146.818 294.096 146.743 294.864H151.111C151.1 294.139 150.93 293.552 150.599 293.104C150.268 292.645 149.746 292.416 149.031 292.416ZM162.266 288.576C163.685 288.576 164.731 288.848 165.403 289.392C166.085 289.925 166.427 290.736 166.427 291.824C166.427 292.432 166.315 292.939 166.091 293.344C165.867 293.749 165.579 294.075 165.227 294.32C164.885 294.555 164.523 294.741 164.139 294.88L167.275 300H165.595L162.827 295.28H160.555V300H159.115V288.576H162.266ZM162.187 289.824H160.555V294.064H162.266C163.195 294.064 163.872 293.883 164.299 293.52C164.725 293.147 164.939 292.603 164.939 291.888C164.939 291.141 164.715 290.613 164.267 290.304C163.819 289.984 163.125 289.824 162.187 289.824ZM172.188 291.264C172.924 291.264 173.553 291.424 174.076 291.744C174.609 292.064 175.014 292.517 175.292 293.104C175.58 293.68 175.724 294.357 175.724 295.136V295.984H169.852C169.873 296.955 170.118 297.696 170.588 298.208C171.068 298.709 171.734 298.96 172.588 298.96C173.132 298.96 173.612 298.912 174.028 298.816C174.454 298.709 174.892 298.56 175.34 298.368V299.6C174.902 299.792 174.47 299.931 174.044 300.016C173.617 300.112 173.11 300.16 172.524 300.16C171.713 300.16 170.993 299.995 170.364 299.664C169.745 299.333 169.26 298.843 168.908 298.192C168.566 297.531 168.396 296.725 168.396 295.776C168.396 294.837 168.55 294.032 168.86 293.36C169.18 292.688 169.622 292.171 170.188 291.808C170.764 291.445 171.43 291.264 172.188 291.264ZM172.172 292.416C171.5 292.416 170.966 292.635 170.572 293.072C170.188 293.499 169.958 294.096 169.884 294.864H174.252C174.241 294.139 174.07 293.552 173.74 293.104C173.409 292.645 172.886 292.416 172.172 292.416ZM179.315 300H177.907V287.84H179.315V300ZM185.28 291.28C186.325 291.28 187.099 291.509 187.6 291.968C188.101 292.427 188.352 293.157 188.352 294.16V300H187.328L187.056 298.784H186.992C186.619 299.253 186.224 299.6 185.808 299.824C185.403 300.048 184.837 300.16 184.112 300.16C183.333 300.16 182.688 299.957 182.176 299.552C181.664 299.136 181.408 298.491 181.408 297.616C181.408 296.763 181.744 296.107 182.416 295.648C183.088 295.179 184.123 294.923 185.52 294.88L186.976 294.832V294.32C186.976 293.605 186.821 293.109 186.512 292.832C186.203 292.555 185.765 292.416 185.2 292.416C184.752 292.416 184.325 292.485 183.92 292.624C183.515 292.752 183.136 292.901 182.784 293.072L182.352 292.016C182.725 291.813 183.168 291.643 183.68 291.504C184.192 291.355 184.725 291.28 185.28 291.28ZM185.696 295.856C184.629 295.899 183.888 296.069 183.472 296.368C183.067 296.667 182.864 297.088 182.864 297.632C182.864 298.112 183.008 298.464 183.296 298.688C183.595 298.912 183.973 299.024 184.432 299.024C185.157 299.024 185.76 298.827 186.24 298.432C186.72 298.027 186.96 297.408 186.96 296.576V295.808L185.696 295.856ZM193.865 299.008C194.078 299.008 194.297 298.992 194.521 298.96C194.745 298.917 194.926 298.875 195.065 298.832V299.904C194.915 299.979 194.702 300.037 194.425 300.08C194.147 300.133 193.881 300.16 193.625 300.16C193.177 300.16 192.761 300.085 192.377 299.936C192.003 299.776 191.699 299.504 191.465 299.12C191.23 298.736 191.113 298.197 191.113 297.504V292.512H189.897V291.84L191.129 291.28L191.689 289.456H192.521V291.424H195.001V292.512H192.521V297.472C192.521 297.995 192.643 298.384 192.889 298.64C193.145 298.885 193.47 299.008 193.865 299.008ZM197.502 288.208C197.715 288.208 197.902 288.283 198.062 288.432C198.233 288.571 198.318 288.795 198.318 289.104C198.318 289.403 198.233 289.627 198.062 289.776C197.902 289.925 197.715 290 197.502 290C197.267 290 197.07 289.925 196.91 289.776C196.75 289.627 196.67 289.403 196.67 289.104C196.67 288.795 196.75 288.571 196.91 288.432C197.07 288.283 197.267 288.208 197.502 288.208ZM198.19 291.424V300H196.782V291.424H198.19ZM208.363 295.696C208.363 297.115 208 298.213 207.275 298.992C206.56 299.771 205.59 300.16 204.363 300.16C203.606 300.16 202.928 299.989 202.331 299.648C201.744 299.296 201.28 298.789 200.939 298.128C200.598 297.456 200.427 296.645 200.427 295.696C200.427 294.277 200.784 293.184 201.499 292.416C202.214 291.648 203.184 291.264 204.411 291.264C205.19 291.264 205.872 291.44 206.459 291.792C207.056 292.133 207.52 292.635 207.851 293.296C208.192 293.947 208.363 294.747 208.363 295.696ZM201.883 295.696C201.883 296.709 202.08 297.515 202.475 298.112C202.88 298.699 203.52 298.992 204.395 298.992C205.259 298.992 205.894 298.699 206.299 298.112C206.704 297.515 206.907 296.709 206.907 295.696C206.907 294.683 206.704 293.888 206.299 293.312C205.894 292.736 205.254 292.448 204.379 292.448C203.504 292.448 202.87 292.736 202.475 293.312C202.08 293.888 201.883 294.683 201.883 295.696ZM214.722 291.264C215.746 291.264 216.52 291.515 217.042 292.016C217.565 292.507 217.826 293.307 217.826 294.416V300H216.434V294.512C216.434 293.136 215.794 292.448 214.514 292.448C213.565 292.448 212.909 292.715 212.546 293.248C212.184 293.781 212.002 294.549 212.002 295.552V300H210.594V291.424H211.73L211.938 292.592H212.018C212.296 292.144 212.68 291.813 213.17 291.6C213.661 291.376 214.178 291.264 214.722 291.264ZM226.069 297.632C226.069 298.464 225.76 299.093 225.141 299.52C224.522 299.947 223.69 300.16 222.645 300.16C222.048 300.16 221.53 300.112 221.093 300.016C220.666 299.92 220.288 299.787 219.957 299.616V298.336C220.298 298.507 220.709 298.667 221.189 298.816C221.68 298.955 222.176 299.024 222.677 299.024C223.392 299.024 223.909 298.912 224.229 298.688C224.549 298.453 224.709 298.144 224.709 297.76C224.709 297.547 224.65 297.355 224.533 297.184C224.416 297.013 224.202 296.843 223.893 296.672C223.594 296.501 223.162 296.309 222.597 296.096C222.042 295.883 221.568 295.669 221.173 295.456C220.778 295.243 220.474 294.987 220.261 294.688C220.048 294.389 219.941 294.005 219.941 293.536C219.941 292.811 220.234 292.251 220.821 291.856C221.418 291.461 222.197 291.264 223.157 291.264C223.68 291.264 224.165 291.317 224.613 291.424C225.072 291.52 225.498 291.659 225.893 291.84L225.413 292.96C225.05 292.811 224.672 292.683 224.277 292.576C223.882 292.469 223.477 292.416 223.061 292.416C222.485 292.416 222.042 292.512 221.733 292.704C221.434 292.885 221.285 293.136 221.285 293.456C221.285 293.691 221.354 293.893 221.493 294.064C221.632 294.224 221.861 294.384 222.181 294.544C222.512 294.693 222.949 294.875 223.493 295.088C224.037 295.291 224.501 295.499 224.885 295.712C225.269 295.925 225.562 296.187 225.765 296.496C225.968 296.795 226.069 297.173 226.069 297.632Z" fill="#163A24"/>
<path d="M87.936 374H81.552V362.576H87.936V363.84H82.992V367.408H87.648V368.656H82.992V372.736H87.936V374ZM99.6586 365.264C100.629 365.264 101.355 365.515 101.835 366.016C102.315 366.507 102.555 367.307 102.555 368.416V374H101.163V368.48C101.163 367.125 100.581 366.448 99.4186 366.448C98.5866 366.448 97.9893 366.688 97.6266 367.168C97.2746 367.648 97.0986 368.347 97.0986 369.264V374H95.7066V368.48C95.7066 367.125 95.12 366.448 93.9466 366.448C93.0826 366.448 92.4853 366.715 92.1546 367.248C91.824 367.781 91.6586 368.549 91.6586 369.552V374H90.2506V365.424H91.3866L91.5946 366.592H91.6746C91.9413 366.144 92.2986 365.813 92.7466 365.6C93.2053 365.376 93.6906 365.264 94.2026 365.264C95.5466 365.264 96.4213 365.744 96.8266 366.704H96.9066C97.1946 366.213 97.584 365.851 98.0746 365.616C98.576 365.381 99.104 365.264 99.6586 365.264ZM109.284 365.264C110.34 365.264 111.188 365.632 111.828 366.368C112.478 367.104 112.804 368.213 112.804 369.696C112.804 371.157 112.478 372.267 111.828 373.024C111.188 373.781 110.334 374.16 109.268 374.16C108.606 374.16 108.057 374.037 107.62 373.792C107.193 373.536 106.857 373.243 106.612 372.912H106.516C106.537 373.093 106.558 373.323 106.58 373.6C106.601 373.877 106.612 374.117 106.612 374.32V377.84H105.204V365.424H106.356L106.548 366.592H106.612C106.868 366.219 107.204 365.904 107.62 365.648C108.036 365.392 108.59 365.264 109.284 365.264ZM109.028 366.448C108.153 366.448 107.534 366.693 107.172 367.184C106.82 367.675 106.633 368.421 106.612 369.424V369.696C106.612 370.752 106.782 371.568 107.124 372.144C107.476 372.709 108.121 372.992 109.06 372.992C109.582 372.992 110.009 372.848 110.34 372.56C110.681 372.272 110.932 371.883 111.092 371.392C111.262 370.891 111.348 370.32 111.348 369.68C111.348 368.699 111.156 367.915 110.772 367.328C110.398 366.741 109.817 366.448 109.028 366.448ZM116.456 374H115.048V361.84H116.456V374ZM126.628 369.696C126.628 371.115 126.266 372.213 125.541 372.992C124.826 373.771 123.855 374.16 122.629 374.16C121.871 374.16 121.194 373.989 120.597 373.648C120.01 373.296 119.546 372.789 119.205 372.128C118.863 371.456 118.693 370.645 118.693 369.696C118.693 368.277 119.05 367.184 119.765 366.416C120.479 365.648 121.45 365.264 122.677 365.264C123.455 365.264 124.138 365.44 124.725 365.792C125.322 366.133 125.786 366.635 126.117 367.296C126.458 367.947 126.628 368.747 126.628 369.696ZM120.149 369.696C120.149 370.709 120.346 371.515 120.741 372.112C121.146 372.699 121.786 372.992 122.661 372.992C123.525 372.992 124.159 372.699 124.565 372.112C124.97 371.515 125.173 370.709 125.173 369.696C125.173 368.683 124.97 367.888 124.565 367.312C124.159 366.736 123.519 366.448 122.645 366.448C121.77 366.448 121.135 366.736 120.741 367.312C120.346 367.888 120.149 368.683 120.149 369.696ZM127.204 365.424H128.708L130.564 370.304C130.724 370.731 130.868 371.141 130.996 371.536C131.124 371.92 131.22 372.288 131.284 372.64H131.348C131.412 372.373 131.513 372.027 131.652 371.6C131.79 371.163 131.934 370.725 132.084 370.288L133.828 365.424H135.348L131.652 375.184C131.353 375.995 130.964 376.64 130.484 377.12C130.014 377.6 129.364 377.84 128.532 377.84C128.276 377.84 128.052 377.824 127.86 377.792C127.668 377.771 127.502 377.744 127.364 377.712V376.592C127.481 376.613 127.62 376.635 127.78 376.656C127.95 376.677 128.126 376.688 128.308 376.688C128.798 376.688 129.193 376.549 129.492 376.272C129.801 375.995 130.041 375.627 130.212 375.168L130.66 374.032L127.204 365.424ZM140.016 365.264C140.752 365.264 141.381 365.424 141.904 365.744C142.437 366.064 142.842 366.517 143.12 367.104C143.408 367.68 143.552 368.357 143.552 369.136V369.984H137.68C137.701 370.955 137.946 371.696 138.416 372.208C138.896 372.709 139.562 372.96 140.416 372.96C140.96 372.96 141.44 372.912 141.856 372.816C142.282 372.709 142.72 372.56 143.168 372.368V373.6C142.73 373.792 142.298 373.931 141.872 374.016C141.445 374.112 140.938 374.16 140.352 374.16C139.541 374.16 138.821 373.995 138.192 373.664C137.573 373.333 137.088 372.843 136.736 372.192C136.394 371.531 136.224 370.725 136.224 369.776C136.224 368.837 136.378 368.032 136.688 367.36C137.008 366.688 137.45 366.171 138.016 365.808C138.592 365.445 139.258 365.264 140.016 365.264ZM140 366.416C139.328 366.416 138.794 366.635 138.4 367.072C138.016 367.499 137.786 368.096 137.712 368.864H142.08C142.069 368.139 141.898 367.552 141.568 367.104C141.237 366.645 140.714 366.416 140 366.416ZM149.047 365.264C149.783 365.264 150.412 365.424 150.935 365.744C151.468 366.064 151.874 366.517 152.151 367.104C152.439 367.68 152.583 368.357 152.583 369.136V369.984H146.711C146.732 370.955 146.978 371.696 147.447 372.208C147.927 372.709 148.594 372.96 149.447 372.96C149.991 372.96 150.471 372.912 150.887 372.816C151.314 372.709 151.751 372.56 152.199 372.368V373.6C151.762 373.792 151.33 373.931 150.903 374.016C150.476 374.112 149.97 374.16 149.383 374.16C148.572 374.16 147.852 373.995 147.223 373.664C146.604 373.333 146.119 372.843 145.767 372.192C145.426 371.531 145.255 370.725 145.255 369.776C145.255 368.837 145.41 368.032 145.719 367.36C146.039 366.688 146.482 366.171 147.047 365.808C147.623 365.445 148.29 365.264 149.047 365.264ZM149.031 366.416C148.359 366.416 147.826 366.635 147.431 367.072C147.047 367.499 146.818 368.096 146.743 368.864H151.111C151.1 368.139 150.93 367.552 150.599 367.104C150.268 366.645 149.746 366.416 149.031 366.416ZM162.139 362.576C163.632 362.576 164.72 362.869 165.403 363.456C166.085 364.043 166.427 364.869 166.427 365.936C166.427 366.565 166.283 367.157 165.995 367.712C165.717 368.256 165.243 368.699 164.571 369.04C163.909 369.381 163.008 369.552 161.867 369.552H160.555V374H159.115V362.576H162.139ZM162.011 363.808H160.555V368.32H161.707C162.795 368.32 163.605 368.144 164.139 367.792C164.672 367.44 164.939 366.843 164.939 366C164.939 365.264 164.704 364.715 164.235 364.352C163.765 363.989 163.024 363.808 162.011 363.808ZM171.922 365.264C172.658 365.264 173.287 365.424 173.81 365.744C174.343 366.064 174.749 366.517 175.026 367.104C175.314 367.68 175.458 368.357 175.458 369.136V369.984H169.586C169.607 370.955 169.853 371.696 170.322 372.208C170.802 372.709 171.469 372.96 172.322 372.96C172.866 372.96 173.346 372.912 173.762 372.816C174.189 372.709 174.626 372.56 175.074 372.368V373.6C174.637 373.792 174.205 373.931 173.778 374.016C173.351 374.112 172.845 374.16 172.258 374.16C171.447 374.16 170.727 373.995 170.098 373.664C169.479 373.333 168.994 372.843 168.642 372.192C168.301 371.531 168.13 370.725 168.13 369.776C168.13 368.837 168.285 368.032 168.594 367.36C168.914 366.688 169.357 366.171 169.922 365.808C170.498 365.445 171.165 365.264 171.922 365.264ZM171.906 366.416C171.234 366.416 170.701 366.635 170.306 367.072C169.922 367.499 169.693 368.096 169.618 368.864H173.986C173.975 368.139 173.805 367.552 173.474 367.104C173.143 366.645 172.621 366.416 171.906 366.416ZM181.641 365.264C181.801 365.264 181.972 365.275 182.153 365.296C182.345 365.307 182.511 365.328 182.649 365.36L182.473 366.656C182.335 366.624 182.18 366.597 182.009 366.576C181.849 366.555 181.695 366.544 181.545 366.544C181.108 366.544 180.697 366.667 180.313 366.912C179.929 367.147 179.62 367.483 179.385 367.92C179.161 368.347 179.049 368.848 179.049 369.424V374H177.641V365.424H178.793L178.953 366.992H179.017C179.295 366.523 179.652 366.117 180.089 365.776C180.527 365.435 181.044 365.264 181.641 365.264ZM188.203 366.512H186.043V374H184.635V366.512H183.131V365.856L184.635 365.376V364.88C184.635 363.771 184.88 362.976 185.371 362.496C185.861 362.005 186.544 361.76 187.419 361.76C187.76 361.76 188.069 361.792 188.347 361.856C188.635 361.909 188.88 361.973 189.083 362.048L188.715 363.152C188.544 363.099 188.347 363.045 188.123 362.992C187.899 362.939 187.669 362.912 187.435 362.912C186.965 362.912 186.613 363.072 186.379 363.392C186.155 363.701 186.043 364.192 186.043 364.864V365.424H188.203V366.512ZM197.207 369.696C197.207 371.115 196.844 372.213 196.119 372.992C195.404 373.771 194.433 374.16 193.207 374.16C192.449 374.16 191.772 373.989 191.175 373.648C190.588 373.296 190.124 372.789 189.783 372.128C189.441 371.456 189.271 370.645 189.271 369.696C189.271 368.277 189.628 367.184 190.343 366.416C191.057 365.648 192.028 365.264 193.255 365.264C194.033 365.264 194.716 365.44 195.303 365.792C195.9 366.133 196.364 366.635 196.695 367.296C197.036 367.947 197.207 368.747 197.207 369.696ZM190.727 369.696C190.727 370.709 190.924 371.515 191.319 372.112C191.724 372.699 192.364 372.992 193.239 372.992C194.103 372.992 194.737 372.699 195.143 372.112C195.548 371.515 195.751 370.709 195.751 369.696C195.751 368.683 195.548 367.888 195.143 367.312C194.737 366.736 194.097 366.448 193.223 366.448C192.348 366.448 191.713 366.736 191.319 367.312C190.924 367.888 190.727 368.683 190.727 369.696ZM203.438 365.264C203.598 365.264 203.769 365.275 203.95 365.296C204.142 365.307 204.307 365.328 204.446 365.36L204.27 366.656C204.131 366.624 203.977 366.597 203.806 366.576C203.646 366.555 203.491 366.544 203.342 366.544C202.905 366.544 202.494 366.667 202.11 366.912C201.726 367.147 201.417 367.483 201.182 367.92C200.958 368.347 200.846 368.848 200.846 369.424V374H199.438V365.424H200.59L200.75 366.992H200.814C201.091 366.523 201.449 366.117 201.886 365.776C202.323 365.435 202.841 365.264 203.438 365.264ZM215.456 365.264C216.426 365.264 217.152 365.515 217.632 366.016C218.112 366.507 218.352 367.307 218.352 368.416V374H216.96V368.48C216.96 367.125 216.378 366.448 215.216 366.448C214.384 366.448 213.786 366.688 213.424 367.168C213.072 367.648 212.896 368.347 212.896 369.264V374H211.504V368.48C211.504 367.125 210.917 366.448 209.744 366.448C208.88 366.448 208.282 366.715 207.952 367.248C207.621 367.781 207.456 368.549 207.456 369.552V374H206.048V365.424H207.184L207.392 366.592H207.472C207.738 366.144 208.096 365.813 208.544 365.6C209.002 365.376 209.488 365.264 210 365.264C211.344 365.264 212.218 365.744 212.624 366.704H212.704C212.992 366.213 213.381 365.851 213.872 365.616C214.373 365.381 214.901 365.264 215.456 365.264ZM224.249 365.28C225.294 365.28 226.067 365.509 226.569 365.968C227.07 366.427 227.321 367.157 227.321 368.16V374H226.297L226.025 372.784H225.961C225.587 373.253 225.193 373.6 224.777 373.824C224.371 374.048 223.806 374.16 223.081 374.16C222.302 374.16 221.657 373.957 221.145 373.552C220.633 373.136 220.377 372.491 220.377 371.616C220.377 370.763 220.713 370.107 221.385 369.648C222.057 369.179 223.091 368.923 224.489 368.88L225.945 368.832V368.32C225.945 367.605 225.79 367.109 225.481 366.832C225.171 366.555 224.734 366.416 224.169 366.416C223.721 366.416 223.294 366.485 222.889 366.624C222.483 366.752 222.105 366.901 221.753 367.072L221.321 366.016C221.694 365.813 222.137 365.643 222.649 365.504C223.161 365.355 223.694 365.28 224.249 365.28ZM224.665 369.856C223.598 369.899 222.857 370.069 222.441 370.368C222.035 370.667 221.833 371.088 221.833 371.632C221.833 372.112 221.977 372.464 222.265 372.688C222.563 372.912 222.942 373.024 223.401 373.024C224.126 373.024 224.729 372.827 225.209 372.432C225.689 372.027 225.929 371.408 225.929 370.576V369.808L224.665 369.856ZM234.097 365.264C235.121 365.264 235.895 365.515 236.417 366.016C236.94 366.507 237.201 367.307 237.201 368.416V374H235.809V368.512C235.809 367.136 235.169 366.448 233.889 366.448C232.94 366.448 232.284 366.715 231.921 367.248C231.559 367.781 231.377 368.549 231.377 369.552V374H229.969V365.424H231.105L231.313 366.592H231.393C231.671 366.144 232.055 365.813 232.545 365.6C233.036 365.376 233.553 365.264 234.097 365.264ZM243.3 374.16C242.543 374.16 241.865 374.005 241.268 373.696C240.681 373.387 240.217 372.907 239.876 372.256C239.545 371.605 239.38 370.773 239.38 369.76C239.38 368.704 239.556 367.845 239.908 367.184C240.26 366.523 240.735 366.037 241.332 365.728C241.94 365.419 242.628 365.264 243.396 365.264C243.833 365.264 244.255 365.312 244.66 365.408C245.065 365.493 245.396 365.6 245.652 365.728L245.22 366.896C244.964 366.8 244.665 366.709 244.324 366.624C243.983 366.539 243.663 366.496 243.364 366.496C241.679 366.496 240.836 367.579 240.836 369.744C240.836 370.779 241.039 371.573 241.444 372.128C241.86 372.672 242.473 372.944 243.284 372.944C243.753 372.944 244.164 372.896 244.516 372.8C244.879 372.704 245.209 372.587 245.508 372.448V373.696C245.22 373.845 244.9 373.957 244.548 374.032C244.207 374.117 243.791 374.16 243.3 374.16ZM250.86 365.264C251.596 365.264 252.225 365.424 252.748 365.744C253.281 366.064 253.686 366.517 253.964 367.104C254.252 367.68 254.396 368.357 254.396 369.136V369.984H248.524C248.545 370.955 248.79 371.696 249.26 372.208C249.74 372.709 250.406 372.96 251.26 372.96C251.804 372.96 252.284 372.912 252.7 372.816C253.126 372.709 253.564 372.56 254.012 372.368V373.6C253.574 373.792 253.142 373.931 252.716 374.016C252.289 374.112 251.782 374.16 251.196 374.16C250.385 374.16 249.665 373.995 249.036 373.664C248.417 373.333 247.932 372.843 247.58 372.192C247.238 371.531 247.068 370.725 247.068 369.776C247.068 368.837 247.222 368.032 247.532 367.36C247.852 366.688 248.294 366.171 248.86 365.808C249.436 365.445 250.102 365.264 250.86 365.264ZM250.844 366.416C250.172 366.416 249.638 366.635 249.244 367.072C248.86 367.499 248.63 368.096 248.556 368.864H252.924C252.913 368.139 252.742 367.552 252.412 367.104C252.081 366.645 251.558 366.416 250.844 366.416Z" fill="#163A24"/>
<path d="M81.552 263V251.576H82.992V261.72H87.984V263H81.552ZM93.0626 254.264C93.7986 254.264 94.428 254.424 94.9506 254.744C95.484 255.064 95.8893 255.517 96.1666 256.104C96.4546 256.68 96.5986 257.357 96.5986 258.136V258.984H90.7266C90.748 259.955 90.9933 260.696 91.4626 261.208C91.9426 261.709 92.6093 261.96 93.4626 261.96C94.0066 261.96 94.4866 261.912 94.9026 261.816C95.3293 261.709 95.7666 261.56 96.2146 261.368V262.6C95.7773 262.792 95.3453 262.931 94.9186 263.016C94.492 263.112 93.9853 263.16 93.3986 263.16C92.588 263.16 91.868 262.995 91.2386 262.664C90.62 262.333 90.1346 261.843 89.7826 261.192C89.4413 260.531 89.2706 259.725 89.2706 258.776C89.2706 257.837 89.4253 257.032 89.7346 256.36C90.0546 255.688 90.4973 255.171 91.0626 254.808C91.6386 254.445 92.3053 254.264 93.0626 254.264ZM93.0466 255.416C92.3746 255.416 91.8413 255.635 91.4466 256.072C91.0626 256.499 90.8333 257.096 90.7586 257.864H95.1266C95.116 257.139 94.9453 256.552 94.6146 256.104C94.284 255.645 93.7613 255.416 93.0466 255.416ZM102.03 254.28C103.075 254.28 103.849 254.509 104.35 254.968C104.851 255.427 105.102 256.157 105.102 257.16V263H104.078L103.806 261.784H103.742C103.369 262.253 102.974 262.6 102.558 262.824C102.153 263.048 101.587 263.16 100.862 263.16C100.083 263.16 99.4379 262.957 98.9259 262.552C98.4139 262.136 98.1579 261.491 98.1579 260.616C98.1579 259.763 98.4939 259.107 99.1659 258.648C99.8379 258.179 100.873 257.923 102.27 257.88L103.726 257.832V257.32C103.726 256.605 103.571 256.109 103.262 255.832C102.953 255.555 102.515 255.416 101.95 255.416C101.502 255.416 101.075 255.485 100.67 255.624C100.265 255.752 99.8859 255.901 99.5339 256.072L99.1019 255.016C99.4752 254.813 99.9179 254.643 100.43 254.504C100.942 254.355 101.475 254.28 102.03 254.28ZM102.446 258.856C101.379 258.899 100.638 259.069 100.222 259.368C99.8165 259.667 99.6139 260.088 99.6139 260.632C99.6139 261.112 99.7579 261.464 100.046 261.688C100.345 261.912 100.723 262.024 101.182 262.024C101.907 262.024 102.51 261.827 102.99 261.432C103.47 261.027 103.71 260.408 103.71 259.576V258.808L102.446 258.856ZM111.751 254.264C111.911 254.264 112.081 254.275 112.263 254.296C112.455 254.307 112.62 254.328 112.759 254.36L112.583 255.656C112.444 255.624 112.289 255.597 112.119 255.576C111.959 255.555 111.804 255.544 111.655 255.544C111.217 255.544 110.807 255.667 110.423 255.912C110.039 256.147 109.729 256.483 109.495 256.92C109.271 257.347 109.159 257.848 109.159 258.424V263H107.751V254.424H108.903L109.063 255.992H109.127C109.404 255.523 109.761 255.117 110.199 254.776C110.636 254.435 111.153 254.264 111.751 254.264ZM118.488 254.264C119.512 254.264 120.285 254.515 120.808 255.016C121.331 255.507 121.592 256.307 121.592 257.416V263H120.2V257.512C120.2 256.136 119.56 255.448 118.28 255.448C117.331 255.448 116.675 255.715 116.312 256.248C115.949 256.781 115.768 257.549 115.768 258.552V263H114.36V254.424H115.496L115.704 255.592H115.784C116.061 255.144 116.445 254.813 116.936 254.6C117.427 254.376 117.944 254.264 118.488 254.264ZM124.971 251.208C125.184 251.208 125.371 251.283 125.531 251.432C125.701 251.571 125.787 251.795 125.787 252.104C125.787 252.403 125.701 252.627 125.531 252.776C125.371 252.925 125.184 253 124.971 253C124.736 253 124.539 252.925 124.379 252.776C124.219 252.627 124.139 252.403 124.139 252.104C124.139 251.795 124.219 251.571 124.379 251.432C124.539 251.283 124.736 251.208 124.971 251.208ZM125.659 254.424V263H124.251V254.424H125.659ZM132.504 254.264C133.528 254.264 134.301 254.515 134.824 255.016C135.346 255.507 135.608 256.307 135.608 257.416V263H134.216V257.512C134.216 256.136 133.576 255.448 132.296 255.448C131.346 255.448 130.69 255.715 130.328 256.248C129.965 256.781 129.784 257.549 129.784 258.552V263H128.376V254.424H129.512L129.72 255.592H129.8C130.077 255.144 130.461 254.813 130.952 254.6C131.442 254.376 131.96 254.264 132.504 254.264ZM141.306 254.264C141.872 254.264 142.378 254.371 142.826 254.584C143.285 254.797 143.674 255.123 143.994 255.56H144.074L144.266 254.424H145.386V263.144C145.386 264.371 145.072 265.293 144.442 265.912C143.824 266.531 142.858 266.84 141.546 266.84C140.288 266.84 139.258 266.659 138.458 266.296V265C139.301 265.448 140.357 265.672 141.626 265.672C142.362 265.672 142.938 265.453 143.354 265.016C143.781 264.589 143.994 264.003 143.994 263.256V262.92C143.994 262.792 144 262.611 144.01 262.376C144.021 262.131 144.032 261.96 144.042 261.864H143.978C143.402 262.728 142.517 263.16 141.322 263.16C140.213 263.16 139.344 262.771 138.714 261.992C138.096 261.213 137.786 260.125 137.786 258.728C137.786 257.363 138.096 256.28 138.714 255.48C139.344 254.669 140.208 254.264 141.306 254.264ZM141.498 255.448C140.784 255.448 140.229 255.736 139.834 256.312C139.44 256.877 139.242 257.688 139.242 258.744C139.242 259.8 139.434 260.611 139.818 261.176C140.213 261.731 140.784 262.008 141.53 262.008C142.394 262.008 143.024 261.779 143.418 261.32C143.813 260.851 144.01 260.099 144.01 259.064V258.728C144.01 257.555 143.808 256.717 143.402 256.216C142.997 255.704 142.362 255.448 141.498 255.448ZM155.77 251.4C156.624 251.4 157.296 251.619 157.786 252.056C158.288 252.483 158.538 253.085 158.538 253.864C158.538 254.536 158.32 255.107 157.882 255.576C157.456 256.045 156.912 256.472 156.25 256.856L159.338 259.832C159.616 259.501 159.84 259.123 160.01 258.696C160.192 258.259 160.341 257.789 160.458 257.288H161.882C161.712 257.971 161.498 258.605 161.242 259.192C160.986 259.779 160.656 260.291 160.25 260.728L162.586 263H160.682L159.29 261.656C158.789 262.104 158.229 262.467 157.61 262.744C156.992 263.021 156.24 263.16 155.354 263.16C154.256 263.16 153.381 262.888 152.73 262.344C152.08 261.8 151.754 261.027 151.754 260.024C151.754 259.203 151.973 258.547 152.41 258.056C152.858 257.555 153.461 257.091 154.218 256.664C153.877 256.28 153.557 255.869 153.258 255.432C152.97 254.995 152.826 254.483 152.826 253.896C152.826 253.107 153.088 252.493 153.61 252.056C154.144 251.619 154.864 251.4 155.77 251.4ZM155.722 252.552C155.274 252.552 154.906 252.669 154.618 252.904C154.341 253.139 154.202 253.464 154.202 253.88C154.202 254.264 154.304 254.621 154.506 254.952C154.709 255.272 155.002 255.629 155.386 256.024C156.016 255.661 156.464 255.32 156.73 255C157.008 254.669 157.146 254.291 157.146 253.864C157.146 253.48 157.018 253.165 156.762 252.92C156.506 252.675 156.16 252.552 155.722 252.552ZM155.066 257.544C154.49 257.885 154.037 258.232 153.706 258.584C153.386 258.936 153.226 259.4 153.226 259.976C153.226 260.563 153.424 261.032 153.818 261.384C154.213 261.736 154.741 261.912 155.402 261.912C156.085 261.912 156.672 261.8 157.162 261.576C157.653 261.352 158.064 261.085 158.394 260.776L155.066 257.544ZM177.485 257.176C177.485 259.107 176.957 260.563 175.901 261.544C174.856 262.515 173.395 263 171.517 263H168.333V251.576H171.853C173.005 251.576 174.003 251.789 174.845 252.216C175.688 252.643 176.339 253.272 176.797 254.104C177.256 254.925 177.485 255.949 177.485 257.176ZM175.965 257.224C175.965 255.699 175.587 254.584 174.829 253.88C174.083 253.165 173.021 252.808 171.645 252.808H169.773V261.768H171.325C174.419 261.768 175.965 260.253 175.965 257.224ZM183.141 254.264C183.877 254.264 184.506 254.424 185.029 254.744C185.562 255.064 185.967 255.517 186.245 256.104C186.533 256.68 186.677 257.357 186.677 258.136V258.984H180.805C180.826 259.955 181.071 260.696 181.541 261.208C182.021 261.709 182.687 261.96 183.541 261.96C184.085 261.96 184.565 261.912 184.981 261.816C185.407 261.709 185.845 261.56 186.293 261.368V262.6C185.855 262.792 185.423 262.931 184.997 263.016C184.57 263.112 184.063 263.16 183.477 263.16C182.666 263.16 181.946 262.995 181.317 262.664C180.698 262.333 180.213 261.843 179.861 261.192C179.519 260.531 179.349 259.725 179.349 258.776C179.349 257.837 179.503 257.032 179.813 256.36C180.133 255.688 180.575 255.171 181.141 254.808C181.717 254.445 182.383 254.264 183.141 254.264ZM183.125 255.416C182.453 255.416 181.919 255.635 181.525 256.072C181.141 256.499 180.911 257.096 180.837 257.864H185.205C185.194 257.139 185.023 256.552 184.693 256.104C184.362 255.645 183.839 255.416 183.125 255.416ZM190.436 263L187.188 254.424H188.692L190.516 259.48C190.601 259.715 190.692 259.976 190.788 260.264C190.884 260.552 190.969 260.829 191.044 261.096C191.118 261.352 191.172 261.571 191.204 261.752H191.268C191.31 261.571 191.369 261.347 191.444 261.08C191.529 260.813 191.62 260.536 191.716 260.248C191.822 259.96 191.913 259.704 191.988 259.48L193.812 254.424H195.316L192.052 263H190.436ZM199.985 254.264C200.721 254.264 201.35 254.424 201.873 254.744C202.406 255.064 202.811 255.517 203.089 256.104C203.377 256.68 203.521 257.357 203.521 258.136V258.984H197.649C197.67 259.955 197.915 260.696 198.385 261.208C198.865 261.709 199.531 261.96 200.385 261.96C200.929 261.96 201.409 261.912 201.825 261.816C202.251 261.709 202.689 261.56 203.137 261.368V262.6C202.699 262.792 202.267 262.931 201.841 263.016C201.414 263.112 200.907 263.16 200.321 263.16C199.51 263.16 198.79 262.995 198.161 262.664C197.542 262.333 197.057 261.843 196.705 261.192C196.363 260.531 196.193 259.725 196.193 258.776C196.193 257.837 196.347 257.032 196.657 256.36C196.977 255.688 197.419 255.171 197.985 254.808C198.561 254.445 199.227 254.264 199.985 254.264ZM199.969 255.416C199.297 255.416 198.763 255.635 198.369 256.072C197.985 256.499 197.755 257.096 197.681 257.864H202.049C202.038 257.139 201.867 256.552 201.537 256.104C201.206 255.645 200.683 255.416 199.969 255.416ZM207.112 263H205.704V250.84H207.112V263ZM217.285 258.696C217.285 260.115 216.922 261.213 216.197 261.992C215.482 262.771 214.511 263.16 213.285 263.16C212.527 263.16 211.85 262.989 211.253 262.648C210.666 262.296 210.202 261.789 209.861 261.128C209.519 260.456 209.349 259.645 209.349 258.696C209.349 257.277 209.706 256.184 210.421 255.416C211.135 254.648 212.106 254.264 213.333 254.264C214.111 254.264 214.794 254.44 215.381 254.792C215.978 255.133 216.442 255.635 216.773 256.296C217.114 256.947 217.285 257.747 217.285 258.696ZM210.805 258.696C210.805 259.709 211.002 260.515 211.397 261.112C211.802 261.699 212.442 261.992 213.317 261.992C214.181 261.992 214.815 261.699 215.221 261.112C215.626 260.515 215.829 259.709 215.829 258.696C215.829 257.683 215.626 256.888 215.221 256.312C214.815 255.736 214.175 255.448 213.301 255.448C212.426 255.448 211.791 255.736 211.397 256.312C211.002 256.888 210.805 257.683 210.805 258.696ZM223.596 254.264C224.652 254.264 225.5 254.632 226.14 255.368C226.791 256.104 227.116 257.213 227.116 258.696C227.116 260.157 226.791 261.267 226.14 262.024C225.5 262.781 224.647 263.16 223.58 263.16C222.919 263.16 222.37 263.037 221.932 262.792C221.506 262.536 221.17 262.243 220.924 261.912H220.828C220.85 262.093 220.871 262.323 220.892 262.6C220.914 262.877 220.924 263.117 220.924 263.32V266.84H219.516V254.424H220.668L220.86 255.592H220.924C221.18 255.219 221.516 254.904 221.932 254.648C222.348 254.392 222.903 254.264 223.596 254.264ZM223.34 255.448C222.466 255.448 221.847 255.693 221.484 256.184C221.132 256.675 220.946 257.421 220.924 258.424V258.696C220.924 259.752 221.095 260.568 221.436 261.144C221.788 261.709 222.434 261.992 223.372 261.992C223.895 261.992 224.322 261.848 224.652 261.56C224.994 261.272 225.244 260.883 225.404 260.392C225.575 259.891 225.66 259.32 225.66 258.68C225.66 257.699 225.468 256.915 225.084 256.328C224.711 255.741 224.13 255.448 223.34 255.448ZM238.768 254.264C239.739 254.264 240.464 254.515 240.944 255.016C241.424 255.507 241.664 256.307 241.664 257.416V263H240.272V257.48C240.272 256.125 239.691 255.448 238.528 255.448C237.696 255.448 237.099 255.688 236.736 256.168C236.384 256.648 236.208 257.347 236.208 258.264V263H234.816V257.48C234.816 256.125 234.229 255.448 233.056 255.448C232.192 255.448 231.595 255.715 231.264 256.248C230.933 256.781 230.768 257.549 230.768 258.552V263H229.36V254.424H230.496L230.704 255.592H230.784C231.051 255.144 231.408 254.813 231.856 254.6C232.315 254.376 232.8 254.264 233.312 254.264C234.656 254.264 235.531 254.744 235.936 255.704H236.016C236.304 255.213 236.693 254.851 237.184 254.616C237.685 254.381 238.213 254.264 238.768 254.264ZM247.625 254.264C248.361 254.264 248.99 254.424 249.513 254.744C250.046 255.064 250.452 255.517 250.729 256.104C251.017 256.68 251.161 257.357 251.161 258.136V258.984H245.289C245.31 259.955 245.556 260.696 246.025 261.208C246.505 261.709 247.172 261.96 248.025 261.96C248.569 261.96 249.049 261.912 249.465 261.816C249.892 261.709 250.329 261.56 250.777 261.368V262.6C250.34 262.792 249.908 262.931 249.481 263.016C249.054 263.112 248.548 263.16 247.961 263.16C247.15 263.16 246.43 262.995 245.801 262.664C245.182 262.333 244.697 261.843 244.345 261.192C244.004 260.531 243.833 259.725 243.833 258.776C243.833 257.837 243.988 257.032 244.297 256.36C244.617 255.688 245.06 255.171 245.625 254.808C246.201 254.445 246.868 254.264 247.625 254.264ZM247.609 255.416C246.937 255.416 246.404 255.635 246.009 256.072C245.625 256.499 245.396 257.096 245.321 257.864H249.689C249.678 257.139 249.508 256.552 249.177 256.104C248.846 255.645 248.324 255.416 247.609 255.416ZM257.472 254.264C258.496 254.264 259.27 254.515 259.792 255.016C260.315 255.507 260.576 256.307 260.576 257.416V263H259.184V257.512C259.184 256.136 258.544 255.448 257.264 255.448C256.315 255.448 255.659 255.715 255.296 256.248C254.934 256.781 254.752 257.549 254.752 258.552V263H253.344V254.424H254.48L254.688 255.592H254.768C255.046 255.144 255.43 254.813 255.92 254.6C256.411 254.376 256.928 254.264 257.472 254.264ZM266.099 262.008C266.312 262.008 266.531 261.992 266.755 261.96C266.979 261.917 267.16 261.875 267.299 261.832V262.904C267.15 262.979 266.936 263.037 266.659 263.08C266.382 263.133 266.115 263.16 265.859 263.16C265.411 263.16 264.995 263.085 264.611 262.936C264.238 262.776 263.934 262.504 263.699 262.12C263.464 261.736 263.347 261.197 263.347 260.504V255.512H262.131V254.84L263.363 254.28L263.923 252.456H264.755V254.424H267.235V255.512H264.755V260.472C264.755 260.995 264.878 261.384 265.123 261.64C265.379 261.885 265.704 262.008 266.099 262.008Z" fill="#163A24"/>
<path d="M84.816 325.576C86.2453 325.576 87.3227 325.789 88.048 326.216C88.784 326.632 89.152 327.363 89.152 328.408C89.152 329.08 88.9653 329.64 88.592 330.088C88.2187 330.525 87.68 330.808 86.976 330.936V331.016C87.456 331.091 87.888 331.229 88.272 331.432C88.6667 331.635 88.976 331.923 89.2 332.296C89.424 332.669 89.536 333.155 89.536 333.752C89.536 334.787 89.1787 335.587 88.464 336.152C87.76 336.717 86.7947 337 85.568 337H81.552V325.576H84.816ZM85.104 330.44C86.0853 330.44 86.7573 330.285 87.12 329.976C87.4827 329.656 87.664 329.187 87.664 328.568C87.664 327.939 87.44 327.491 86.992 327.224C86.5547 326.947 85.8507 326.808 84.88 326.808H82.992V330.44H85.104ZM82.992 331.64V335.784H85.296C86.3093 335.784 87.0133 335.587 87.408 335.192C87.8027 334.797 88 334.28 88 333.64C88 333.043 87.792 332.563 87.376 332.2C86.9707 331.827 86.24 331.64 85.184 331.64H82.992ZM95.0783 328.264C95.8143 328.264 96.4436 328.424 96.9663 328.744C97.4996 329.064 97.9049 329.517 98.1823 330.104C98.4703 330.68 98.6143 331.357 98.6143 332.136V332.984H92.7423C92.7636 333.955 93.0089 334.696 93.4783 335.208C93.9583 335.709 94.6249 335.96 95.4783 335.96C96.0223 335.96 96.5023 335.912 96.9183 335.816C97.3449 335.709 97.7823 335.56 98.2303 335.368V336.6C97.7929 336.792 97.3609 336.931 96.9343 337.016C96.5076 337.112 96.0009 337.16 95.4143 337.16C94.6036 337.16 93.8836 336.995 93.2543 336.664C92.6356 336.333 92.1503 335.843 91.7983 335.192C91.4569 334.531 91.2863 333.725 91.2863 332.776C91.2863 331.837 91.4409 331.032 91.7503 330.36C92.0703 329.688 92.5129 329.171 93.0783 328.808C93.6543 328.445 94.3209 328.264 95.0783 328.264ZM95.0623 329.416C94.3903 329.416 93.8569 329.635 93.4623 330.072C93.0783 330.499 92.8489 331.096 92.7743 331.864H97.1423C97.1316 331.139 96.9609 330.552 96.6303 330.104C96.2996 329.645 95.7769 329.416 95.0623 329.416ZM104.926 328.264C105.95 328.264 106.723 328.515 107.246 329.016C107.768 329.507 108.03 330.307 108.03 331.416V337H106.638V331.512C106.638 330.136 105.998 329.448 104.718 329.448C103.768 329.448 103.112 329.715 102.75 330.248C102.387 330.781 102.206 331.549 102.206 332.552V337H100.798V328.424H101.934L102.142 329.592H102.222C102.499 329.144 102.883 328.813 103.374 328.6C103.864 328.376 104.382 328.264 104.926 328.264ZM114 328.264C114.736 328.264 115.365 328.424 115.888 328.744C116.421 329.064 116.827 329.517 117.104 330.104C117.392 330.68 117.536 331.357 117.536 332.136V332.984H111.664C111.685 333.955 111.931 334.696 112.4 335.208C112.88 335.709 113.547 335.96 114.4 335.96C114.944 335.96 115.424 335.912 115.84 335.816C116.267 335.709 116.704 335.56 117.152 335.368V336.6C116.715 336.792 116.283 336.931 115.856 337.016C115.429 337.112 114.923 337.16 114.336 337.16C113.525 337.16 112.805 336.995 112.176 336.664C111.557 336.333 111.072 335.843 110.72 335.192C110.379 334.531 110.208 333.725 110.208 332.776C110.208 331.837 110.363 331.032 110.672 330.36C110.992 329.688 111.435 329.171 112 328.808C112.576 328.445 113.243 328.264 114 328.264ZM113.984 329.416C113.312 329.416 112.779 329.635 112.384 330.072C112 330.499 111.771 331.096 111.696 331.864H116.064C116.053 331.139 115.883 330.552 115.552 330.104C115.221 329.645 114.699 329.416 113.984 329.416ZM123.671 329.512H121.511V337H120.103V329.512H118.599V328.856L120.103 328.376V327.88C120.103 326.771 120.349 325.976 120.839 325.496C121.33 325.005 122.013 324.76 122.887 324.76C123.229 324.76 123.538 324.792 123.815 324.856C124.103 324.909 124.349 324.973 124.551 325.048L124.183 326.152C124.013 326.099 123.815 326.045 123.591 325.992C123.367 325.939 123.138 325.912 122.903 325.912C122.434 325.912 122.082 326.072 121.847 326.392C121.623 326.701 121.511 327.192 121.511 327.864V328.424H123.671V329.512ZM125.943 325.208C126.157 325.208 126.343 325.283 126.503 325.432C126.674 325.571 126.759 325.795 126.759 326.104C126.759 326.403 126.674 326.627 126.503 326.776C126.343 326.925 126.157 327 125.943 327C125.709 327 125.511 326.925 125.351 326.776C125.191 326.627 125.111 326.403 125.111 326.104C125.111 325.795 125.191 325.571 125.351 325.432C125.511 325.283 125.709 325.208 125.943 325.208ZM126.631 328.424V337H125.223V328.424H126.631ZM132.208 336.008C132.422 336.008 132.64 335.992 132.864 335.96C133.088 335.917 133.27 335.875 133.408 335.832V336.904C133.259 336.979 133.046 337.037 132.768 337.08C132.491 337.133 132.224 337.16 131.968 337.16C131.52 337.16 131.104 337.085 130.72 336.936C130.347 336.776 130.043 336.504 129.808 336.12C129.574 335.736 129.456 335.197 129.456 334.504V329.512H128.24V328.84L129.472 328.28L130.032 326.456H130.864V328.424H133.344V329.512H130.864V334.472C130.864 334.995 130.987 335.384 131.232 335.64C131.488 335.885 131.814 336.008 132.208 336.008ZM144.514 337L140.754 326.984H140.69C140.722 327.315 140.749 327.763 140.77 328.328C140.791 328.883 140.802 329.464 140.802 330.072V337H139.474V325.576H141.602L145.122 334.936H145.186L148.77 325.576H150.882V337H149.458V329.976C149.458 329.421 149.469 328.872 149.49 328.328C149.522 327.784 149.549 327.341 149.57 327H149.506L145.698 337H144.514ZM157.046 328.28C158.091 328.28 158.864 328.509 159.366 328.968C159.867 329.427 160.118 330.157 160.118 331.16V337H159.094L158.822 335.784H158.758C158.384 336.253 157.99 336.6 157.574 336.824C157.168 337.048 156.603 337.16 155.878 337.16C155.099 337.16 154.454 336.957 153.942 336.552C153.43 336.136 153.174 335.491 153.174 334.616C153.174 333.763 153.51 333.107 154.182 332.648C154.854 332.179 155.888 331.923 157.286 331.88L158.742 331.832V331.32C158.742 330.605 158.587 330.109 158.278 329.832C157.968 329.555 157.531 329.416 156.966 329.416C156.518 329.416 156.091 329.485 155.686 329.624C155.28 329.752 154.902 329.901 154.549 330.072L154.118 329.016C154.491 328.813 154.934 328.643 155.446 328.504C155.958 328.355 156.491 328.28 157.046 328.28ZM157.462 332.856C156.395 332.899 155.654 333.069 155.238 333.368C154.832 333.667 154.63 334.088 154.63 334.632C154.63 335.112 154.774 335.464 155.062 335.688C155.36 335.912 155.739 336.024 156.198 336.024C156.923 336.024 157.526 335.827 158.006 335.432C158.486 335.027 158.726 334.408 158.726 333.576V332.808L157.462 332.856ZM166.894 328.264C167.918 328.264 168.692 328.515 169.214 329.016C169.737 329.507 169.998 330.307 169.998 331.416V337H168.606V331.512C168.606 330.136 167.966 329.448 166.686 329.448C165.737 329.448 165.081 329.715 164.718 330.248C164.356 330.781 164.174 331.549 164.174 332.552V337H162.766V328.424H163.902L164.11 329.592H164.19C164.468 329.144 164.852 328.813 165.342 328.6C165.833 328.376 166.35 328.264 166.894 328.264ZM175.905 328.28C176.95 328.28 177.724 328.509 178.225 328.968C178.726 329.427 178.977 330.157 178.977 331.16V337H177.953L177.681 335.784H177.617C177.244 336.253 176.849 336.6 176.433 336.824C176.028 337.048 175.462 337.16 174.737 337.16C173.958 337.16 173.313 336.957 172.801 336.552C172.289 336.136 172.033 335.491 172.033 334.616C172.033 333.763 172.369 333.107 173.041 332.648C173.713 332.179 174.748 331.923 176.145 331.88L177.601 331.832V331.32C177.601 330.605 177.446 330.109 177.137 329.832C176.828 329.555 176.39 329.416 175.825 329.416C175.377 329.416 174.95 329.485 174.545 329.624C174.14 329.752 173.761 329.901 173.409 330.072L172.977 329.016C173.35 328.813 173.793 328.643 174.305 328.504C174.817 328.355 175.35 328.28 175.905 328.28ZM176.321 332.856C175.254 332.899 174.513 333.069 174.097 333.368C173.692 333.667 173.489 334.088 173.489 334.632C173.489 335.112 173.633 335.464 173.921 335.688C174.22 335.912 174.598 336.024 175.057 336.024C175.782 336.024 176.385 335.827 176.865 335.432C177.345 335.027 177.585 334.408 177.585 333.576V332.808L176.321 332.856ZM184.666 328.264C185.231 328.264 185.738 328.371 186.186 328.584C186.644 328.797 187.034 329.123 187.354 329.56H187.434L187.626 328.424H188.746V337.144C188.746 338.371 188.431 339.293 187.802 339.912C187.183 340.531 186.218 340.84 184.906 340.84C183.647 340.84 182.618 340.659 181.818 340.296V339C182.66 339.448 183.716 339.672 184.986 339.672C185.722 339.672 186.298 339.453 186.714 339.016C187.14 338.589 187.354 338.003 187.354 337.256V336.92C187.354 336.792 187.359 336.611 187.37 336.376C187.38 336.131 187.391 335.96 187.402 335.864H187.338C186.762 336.728 185.876 337.16 184.682 337.16C183.572 337.16 182.703 336.771 182.074 335.992C181.455 335.213 181.146 334.125 181.146 332.728C181.146 331.363 181.455 330.28 182.074 329.48C182.703 328.669 183.567 328.264 184.666 328.264ZM184.858 329.448C184.143 329.448 183.588 329.736 183.194 330.312C182.799 330.877 182.602 331.688 182.602 332.744C182.602 333.8 182.794 334.611 183.178 335.176C183.572 335.731 184.143 336.008 184.89 336.008C185.754 336.008 186.383 335.779 186.778 335.32C187.172 334.851 187.37 334.099 187.37 333.064V332.728C187.37 331.555 187.167 330.717 186.762 330.216C186.356 329.704 185.722 329.448 184.858 329.448ZM194.781 328.264C195.517 328.264 196.147 328.424 196.669 328.744C197.203 329.064 197.608 329.517 197.885 330.104C198.173 330.68 198.317 331.357 198.317 332.136V332.984H192.445C192.467 333.955 192.712 334.696 193.181 335.208C193.661 335.709 194.328 335.96 195.181 335.96C195.725 335.96 196.205 335.912 196.621 335.816C197.048 335.709 197.485 335.56 197.933 335.368V336.6C197.496 336.792 197.064 336.931 196.637 337.016C196.211 337.112 195.704 337.16 195.117 337.16C194.307 337.16 193.587 336.995 192.957 336.664C192.339 336.333 191.853 335.843 191.501 335.192C191.16 334.531 190.989 333.725 190.989 332.776C190.989 331.837 191.144 331.032 191.453 330.36C191.773 329.688 192.216 329.171 192.781 328.808C193.357 328.445 194.024 328.264 194.781 328.264ZM194.765 329.416C194.093 329.416 193.56 329.635 193.165 330.072C192.781 330.499 192.552 331.096 192.477 331.864H196.845C196.835 331.139 196.664 330.552 196.333 330.104C196.003 329.645 195.48 329.416 194.765 329.416ZM209.909 328.264C210.879 328.264 211.605 328.515 212.085 329.016C212.565 329.507 212.805 330.307 212.805 331.416V337H211.413V331.48C211.413 330.125 210.831 329.448 209.669 329.448C208.837 329.448 208.239 329.688 207.877 330.168C207.525 330.648 207.349 331.347 207.349 332.264V337H205.957V331.48C205.957 330.125 205.37 329.448 204.197 329.448C203.333 329.448 202.735 329.715 202.405 330.248C202.074 330.781 201.909 331.549 201.909 332.552V337H200.501V328.424H201.637L201.845 329.592H201.925C202.191 329.144 202.549 328.813 202.997 328.6C203.455 328.376 203.941 328.264 204.453 328.264C205.797 328.264 206.671 328.744 207.077 329.704H207.157C207.445 329.213 207.834 328.851 208.325 328.616C208.826 328.381 209.354 328.264 209.909 328.264ZM218.766 328.264C219.502 328.264 220.131 328.424 220.654 328.744C221.187 329.064 221.592 329.517 221.87 330.104C222.158 330.68 222.302 331.357 222.302 332.136V332.984H216.43C216.451 333.955 216.696 334.696 217.166 335.208C217.646 335.709 218.312 335.96 219.166 335.96C219.71 335.96 220.19 335.912 220.606 335.816C221.032 335.709 221.47 335.56 221.918 335.368V336.6C221.48 336.792 221.048 336.931 220.622 337.016C220.195 337.112 219.688 337.16 219.102 337.16C218.291 337.16 217.571 336.995 216.942 336.664C216.323 336.333 215.838 335.843 215.486 335.192C215.144 334.531 214.974 333.725 214.974 332.776C214.974 331.837 215.128 331.032 215.438 330.36C215.758 329.688 216.2 329.171 216.766 328.808C217.342 328.445 218.008 328.264 218.766 328.264ZM218.75 329.416C218.078 329.416 217.544 329.635 217.15 330.072C216.766 330.499 216.536 331.096 216.462 331.864H220.83C220.819 331.139 220.648 330.552 220.318 330.104C219.987 329.645 219.464 329.416 218.75 329.416ZM228.613 328.264C229.637 328.264 230.41 328.515 230.933 329.016C231.456 329.507 231.717 330.307 231.717 331.416V337H230.325V331.512C230.325 330.136 229.685 329.448 228.405 329.448C227.456 329.448 226.8 329.715 226.437 330.248C226.074 330.781 225.893 331.549 225.893 332.552V337H224.485V328.424H225.621L225.829 329.592H225.909C226.186 329.144 226.57 328.813 227.061 328.6C227.552 328.376 228.069 328.264 228.613 328.264ZM237.24 336.008C237.453 336.008 237.672 335.992 237.896 335.96C238.12 335.917 238.301 335.875 238.44 335.832V336.904C238.29 336.979 238.077 337.037 237.8 337.08C237.522 337.133 237.256 337.16 237 337.16C236.552 337.16 236.136 337.085 235.752 336.936C235.378 336.776 235.074 336.504 234.84 336.12C234.605 335.736 234.488 335.197 234.488 334.504V329.512H233.272V328.84L234.504 328.28L235.064 326.456H235.896V328.424H238.376V329.512H235.896V334.472C235.896 334.995 236.018 335.384 236.264 335.64C236.52 335.885 236.845 336.008 237.24 336.008Z" fill="#163A24"/>
<circle cx="64" cy="257" r="4" fill="#163A24"/>
<circle cx="64" cy="294" r="4" fill="#163A24"/>
<circle cx="64" cy="331" r="4" fill="#163A24"/>
<circle cx="64" cy="368" r="4" fill="#163A24"/>
<defs>
<filter id="filter0_d_1_1238" x="0" y="0" width="393" height="470" filterUnits="userSpaceOnUse" color-interpolation-filters="sRGB">
<feFlood flood-opacity="0" result="BackgroundImageFix"/>
<feColorMatrix in="SourceAlpha" type="matrix" values="0 0 0 0 0 0 0 0 0 0 0 0 0 0 0 0 0 0 127 0" result="hardAlpha"/>
<feOffset dx="5" dy="5"/>
<feGaussianBlur stdDeviation="10"/>
<feColorMatrix type="matrix" values="0 0 0 0 0.913725 0 0 0 0 0.894118 0 0 0 0 0.835294 0 0 0 1 0"/>
<feBlend mode="normal" in2="BackgroundImageFix" result="effect1_dropShadow_1_1238"/>
<feBlend mode="normal" in="SourceGraphic" in2="effect1_dropShadow_1_1238" result="shape"/>
</filter>
<clipPath id="clip0_1_1238">
<rect width="83" height="75" fill="white" transform="translate(55 65)"/>
</clipPath>
</defs>
</svg>
