<svg width="393" height="433" viewBox="0 0 393 433" fill="none" xmlns="http://www.w3.org/2000/svg">
<g filter="url(#filter0_d_1_1225)">
<path d="M15 30C15 21.7157 21.7157 15 30 15H353C361.284 15 368 21.7157 368 30V393C368 401.284 361.284 408 353 408H30C21.7157 408 15 401.284 15 393V30Z" fill="#FBFAF7"/>
</g>
<g clip-path="url(#clip0_1_1225)">
<path d="M59.6061 78.9125C56.9535 80.4449 55.2634 83.2487 55.1403 86.342C54.7206 96.8026 54.3233 118.91 68.7782 130.131L81.1681 138.491C83.9942 140.398 87.6485 140.495 90.5809 138.752C94.4142 136.476 99.546 133.048 102.512 129.489C102.646 129.325 102.786 129.172 102.932 129.018C104.812 127.083 118.97 111.599 116.771 86.0696C116.519 83.1466 114.879 80.5243 112.372 79.0543L90.4354 66.21C87.7044 64.6094 84.3411 64.5981 81.6046 66.1873L59.6061 78.9125Z" fill="#F7BC28"/>
<path d="M66.4217 84.7631C64.4575 85.8982 63.2039 87.9812 63.1088 90.2742C62.7954 98.0331 62.5044 114.425 73.2211 122.751L82.41 128.955C84.5085 130.368 87.2171 130.442 89.3884 129.148C92.2313 127.462 96.0367 124.919 98.236 122.28C98.3367 122.161 98.4374 122.042 98.5493 121.934C99.9428 120.498 110.402 108.902 108.813 90.0813C108.712 88.861 105.724 85.2114 104.705 84.3828L89.2877 75.3412C87.2619 74.155 84.7716 74.1493 82.7402 75.3242L66.4217 84.7631Z" fill="#E48929"/>
<path d="M85.9973 74.4443V102.5H108.164C108.164 102.5 109.742 94.6729 108.819 90.0811C108.819 90.0811 108.561 86.9254 104.711 84.3826L89.2879 75.3411C89.2879 75.3411 87.7209 74.3876 85.9973 74.4443Z" fill="#FBFAF7"/>
<path d="M85.9973 102.5L85.9917 130.062C85.9917 130.062 84.2121 130.164 81.9792 128.654L74.5922 123.671C74.5922 123.671 68.3302 119.885 66.2932 113.619C66.2932 113.619 63.7245 107.858 63.372 101.983L85.9973 102.5Z" fill="#FBFAF7"/>
</g>
<path d="M56.96 185C56.5307 185 56.316 184.841 56.316 184.524V184.412C56.316 184.244 56.4933 183.964 56.848 183.572C57.2213 183.161 57.408 182.741 57.408 182.312V167.808C57.408 167.397 57.2213 166.987 56.848 166.576C56.4933 166.165 56.316 165.867 56.316 165.68V165.568C56.316 165.269 56.5307 165.12 56.96 165.12H63.344C66.0133 165.12 68.16 165.661 69.784 166.744C71.4267 167.808 72.248 169.451 72.248 171.672C72.248 173.781 71.52 175.452 70.064 176.684C68.608 177.916 66.6387 178.532 64.156 178.532H61.664V182.312C61.664 182.741 61.86 183.161 62.252 183.572C62.6627 183.964 62.868 184.244 62.868 184.412V184.524C62.868 184.841 62.6533 185 62.224 185H56.96ZM62.868 176.88H64.156C65.3133 176.88 66.2187 176.488 66.872 175.704C67.5253 174.901 67.852 173.893 67.852 172.68C67.852 170.869 67.3947 169.441 66.48 168.396C65.584 167.332 64.5387 166.8 63.344 166.8H62.588C61.972 166.8 61.664 167.201 61.664 168.004V175.62C61.664 176.46 62.0653 176.88 62.868 176.88ZM82.0447 171.28C82.8474 171.28 83.4727 171.523 83.9207 172.008C84.3874 172.475 84.6207 173.081 84.6207 173.828C84.6207 175.303 84.0234 176.04 82.8287 176.04C82.3434 176.04 81.9607 175.919 81.6807 175.676C81.4194 175.415 81.2607 175.135 81.2047 174.836C81.1487 174.537 81.0367 174.267 80.8687 174.024C80.7007 173.763 80.4487 173.632 80.1127 173.632C79.6087 173.632 79.2354 173.931 78.9927 174.528C78.7501 175.125 78.6287 175.853 78.6287 176.712V182.312C78.6287 182.648 78.7407 182.947 78.9647 183.208C79.2074 183.451 79.4407 183.665 79.6647 183.852C79.9074 184.039 80.0287 184.225 80.0287 184.412V184.524C80.0287 184.841 79.8234 185 79.4127 185H74.2327C73.8034 185 73.5887 184.841 73.5887 184.524V184.412C73.5887 184.225 73.7661 183.936 74.1207 183.544C74.4941 183.152 74.6807 182.741 74.6807 182.312V175.76C74.6807 175.312 74.4661 174.911 74.0367 174.556C73.6074 174.201 73.3927 173.931 73.3927 173.744V173.632C73.3927 173.371 73.5887 173.147 73.9807 172.96L77.3407 171.392C77.9381 171.112 78.2367 171.299 78.2367 171.952V174.052C78.8714 172.204 80.1407 171.28 82.0447 171.28ZM92.8212 185.28C90.5999 185.28 88.7612 184.599 87.3052 183.236C85.8679 181.855 85.1492 180.175 85.1492 178.196C85.1492 176.199 85.8586 174.547 87.2772 173.24C88.6959 171.933 90.4039 171.28 92.4012 171.28C94.5479 171.28 96.3399 171.961 97.7772 173.324C99.2146 174.668 99.9332 176.339 99.9332 178.336C99.9332 180.333 99.2519 181.995 97.8892 183.32C96.5452 184.627 94.8559 185.28 92.8212 185.28ZM93.3252 184.048C94.0906 184.048 94.6786 183.693 95.0892 182.984C95.5186 182.275 95.7332 181.276 95.7332 179.988C95.7332 178.924 95.5746 177.832 95.2572 176.712C94.9586 175.573 94.5012 174.593 93.8852 173.772C93.2692 172.932 92.5879 172.512 91.8412 172.512C90.1239 172.512 89.2652 173.875 89.2652 176.6C89.2652 177.608 89.4146 178.672 89.7132 179.792C90.0306 180.912 90.5066 181.901 91.1412 182.76C91.7946 183.619 92.5226 184.048 93.3252 184.048ZM106.911 185.28C105.604 185.28 104.568 184.869 103.803 184.048C103.056 183.208 102.683 182.004 102.683 180.436V173.184H101.367C100.993 173.184 100.807 172.997 100.807 172.624V172.148C100.807 171.756 100.993 171.56 101.367 171.56H102.067C102.832 171.56 103.476 171.308 103.999 170.804C104.54 170.3 104.885 169.628 105.035 168.788C105.128 168.34 105.343 168.116 105.679 168.116H106.239C106.649 168.116 106.855 168.34 106.855 168.788L106.883 171.56H110.103C110.252 171.56 110.383 171.616 110.495 171.728C110.607 171.84 110.663 171.98 110.663 172.148V172.624C110.663 172.792 110.607 172.932 110.495 173.044C110.383 173.137 110.252 173.184 110.103 173.184H106.883V180.492C106.883 181.033 107.013 181.472 107.275 181.808C107.555 182.125 107.9 182.284 108.311 182.284C109.281 182.284 109.916 181.864 110.215 181.024C110.383 180.781 110.588 180.688 110.831 180.744C111.092 180.781 111.223 180.931 111.223 181.192C111.223 182.275 110.831 183.227 110.047 184.048C109.281 184.869 108.236 185.28 106.911 185.28ZM123.537 180.744C123.705 180.52 123.91 180.445 124.153 180.52C124.395 180.595 124.507 180.772 124.489 181.052C124.395 182.023 123.835 182.975 122.809 183.908C121.782 184.823 120.447 185.28 118.805 185.28C116.826 185.28 115.202 184.627 113.933 183.32C112.663 182.013 112.029 180.296 112.029 178.168C112.029 176.171 112.691 174.528 114.017 173.24C115.342 171.933 116.938 171.28 118.805 171.28C120.503 171.28 121.81 171.681 122.725 172.484C123.639 173.287 124.097 174.211 124.097 175.256C124.097 176.115 123.686 176.731 122.865 177.104L116.649 179.932C117.414 181.556 118.646 182.368 120.345 182.368C121.054 182.368 121.689 182.219 122.249 181.92C122.827 181.603 123.257 181.211 123.537 180.744ZM118.301 172.512C117.573 172.512 116.994 172.867 116.565 173.576C116.135 174.267 115.921 175.153 115.921 176.236C115.921 177.151 116.014 177.953 116.201 178.644L119.813 176.824C120.298 176.581 120.541 176.143 120.541 175.508C120.541 174.873 120.335 174.22 119.925 173.548C119.514 172.857 118.973 172.512 118.301 172.512ZM132.867 185.28C130.795 185.28 129.068 184.589 127.687 183.208C126.324 181.827 125.643 180.175 125.643 178.252C125.643 176.161 126.324 174.481 127.687 173.212C129.068 171.943 130.739 171.299 132.699 171.28C134.304 171.261 135.667 171.635 136.787 172.4C137.925 173.165 138.495 174.099 138.495 175.2C138.495 175.611 138.355 175.956 138.075 176.236C137.795 176.497 137.356 176.619 136.759 176.6C136.311 176.581 135.919 176.423 135.583 176.124C135.247 175.825 134.967 175.48 134.743 175.088C134.537 174.696 134.323 174.304 134.099 173.912C133.875 173.52 133.595 173.193 133.259 172.932C132.923 172.652 132.531 172.512 132.083 172.512C131.299 172.512 130.664 172.867 130.179 173.576C129.712 174.285 129.479 175.172 129.479 176.236C129.479 178.103 129.908 179.596 130.767 180.716C131.644 181.836 132.801 182.396 134.239 182.396C135.713 182.396 136.833 181.743 137.599 180.436C137.711 180.287 137.841 180.203 137.991 180.184C138.159 180.147 138.299 180.184 138.411 180.296C138.541 180.389 138.597 180.529 138.579 180.716C138.485 181.967 137.935 183.04 136.927 183.936C135.937 184.832 134.584 185.28 132.867 185.28ZM145.575 185.28C144.268 185.28 143.232 184.869 142.467 184.048C141.72 183.208 141.347 182.004 141.347 180.436V173.184H140.031C139.657 173.184 139.471 172.997 139.471 172.624V172.148C139.471 171.756 139.657 171.56 140.031 171.56H140.731C141.496 171.56 142.14 171.308 142.663 170.804C143.204 170.3 143.549 169.628 143.699 168.788C143.792 168.34 144.007 168.116 144.343 168.116H144.903C145.313 168.116 145.519 168.34 145.519 168.788L145.547 171.56H148.767C148.916 171.56 149.047 171.616 149.159 171.728C149.271 171.84 149.327 171.98 149.327 172.148V172.624C149.327 172.792 149.271 172.932 149.159 173.044C149.047 173.137 148.916 173.184 148.767 173.184H145.547V180.492C145.547 181.033 145.677 181.472 145.939 181.808C146.219 182.125 146.564 182.284 146.975 182.284C147.945 182.284 148.58 181.864 148.879 181.024C149.047 180.781 149.252 180.688 149.495 180.744C149.756 180.781 149.887 180.931 149.887 181.192C149.887 182.275 149.495 183.227 148.711 184.048C147.945 184.869 146.9 185.28 145.575 185.28ZM173.363 165.12C173.774 165.12 173.979 165.269 173.979 165.568V165.68C173.979 165.904 173.755 166.203 173.307 166.576C172.878 166.949 172.533 167.36 172.271 167.808L167.007 176.908V182.312C167.007 182.741 167.203 183.161 167.595 183.572C167.987 183.964 168.183 184.253 168.183 184.44V184.524C168.183 184.841 167.978 185 167.567 185H162.275C161.865 185 161.659 184.841 161.659 184.524V184.44C161.659 184.253 161.837 183.964 162.191 183.572C162.546 183.161 162.723 182.741 162.723 182.312V177.216L156.787 167.808C156.545 167.416 156.181 167.024 155.695 166.632C155.21 166.24 154.967 165.923 154.967 165.68V165.568C154.967 165.269 155.191 165.12 155.639 165.12H161.995C162.425 165.12 162.639 165.269 162.639 165.568V165.68C162.639 165.867 162.499 166.063 162.219 166.268C161.958 166.473 161.734 166.707 161.547 166.968C161.361 167.211 161.361 167.491 161.547 167.808L165.859 175.368L170.171 167.808C170.339 167.547 170.377 167.304 170.283 167.08C170.19 166.856 170.05 166.688 169.863 166.576C169.677 166.445 169.49 166.305 169.303 166.156C169.135 165.988 169.051 165.829 169.051 165.68V165.568C169.051 165.269 169.257 165.12 169.667 165.12H173.363ZM179.255 185.28C177.033 185.28 175.195 184.599 173.739 183.236C172.301 181.855 171.583 180.175 171.583 178.196C171.583 176.199 172.292 174.547 173.711 173.24C175.129 171.933 176.837 171.28 178.835 171.28C180.981 171.28 182.773 171.961 184.211 173.324C185.648 174.668 186.367 176.339 186.367 178.336C186.367 180.333 185.685 181.995 184.323 183.32C182.979 184.627 181.289 185.28 179.255 185.28ZM179.759 184.048C180.524 184.048 181.112 183.693 181.523 182.984C181.952 182.275 182.167 181.276 182.167 179.988C182.167 178.924 182.008 177.832 181.691 176.712C181.392 175.573 180.935 174.593 180.319 173.772C179.703 172.932 179.021 172.512 178.275 172.512C176.557 172.512 175.699 173.875 175.699 176.6C175.699 177.608 175.848 178.672 176.147 179.792C176.464 180.912 176.94 181.901 177.575 182.76C178.228 183.619 178.956 184.048 179.759 184.048ZM201.657 182.144C201.657 182.648 201.722 183.031 201.853 183.292C202.002 183.535 202.161 183.675 202.329 183.712C202.497 183.731 202.646 183.787 202.777 183.88C202.926 183.973 203.001 184.132 203.001 184.356C203.001 184.897 202.17 185.168 200.509 185.168C199.688 185.168 199.072 185.037 198.661 184.776C198.269 184.496 198.054 184.02 198.017 183.348C197.233 184.636 195.88 185.28 193.957 185.28C192.445 185.28 191.194 184.776 190.205 183.768C189.234 182.741 188.749 181.304 188.749 179.456V174.724C188.749 174.257 188.562 173.828 188.189 173.436C187.834 173.025 187.657 172.745 187.657 172.596V172.512C187.657 172.176 187.853 171.98 188.245 171.924L191.773 171.392C192.538 171.299 192.921 171.467 192.921 171.896L192.837 179.876C192.837 182.415 193.612 183.684 195.161 183.684C195.852 183.684 196.421 183.385 196.869 182.788C197.336 182.172 197.569 181.379 197.569 180.408V174.724C197.569 174.257 197.382 173.828 197.009 173.436C196.636 173.025 196.449 172.745 196.449 172.596V172.512C196.449 172.176 196.636 171.98 197.009 171.924L200.593 171.392C201.302 171.317 201.657 171.485 201.657 171.896V182.144ZM212.912 171.28C213.715 171.28 214.34 171.523 214.788 172.008C215.255 172.475 215.488 173.081 215.488 173.828C215.488 175.303 214.891 176.04 213.696 176.04C213.211 176.04 212.828 175.919 212.548 175.676C212.287 175.415 212.128 175.135 212.072 174.836C212.016 174.537 211.904 174.267 211.736 174.024C211.568 173.763 211.316 173.632 210.98 173.632C210.476 173.632 210.103 173.931 209.86 174.528C209.617 175.125 209.496 175.853 209.496 176.712V182.312C209.496 182.648 209.608 182.947 209.832 183.208C210.075 183.451 210.308 183.665 210.532 183.852C210.775 184.039 210.896 184.225 210.896 184.412V184.524C210.896 184.841 210.691 185 210.28 185H205.1C204.671 185 204.456 184.841 204.456 184.524V184.412C204.456 184.225 204.633 183.936 204.988 183.544C205.361 183.152 205.548 182.741 205.548 182.312V175.76C205.548 175.312 205.333 174.911 204.904 174.556C204.475 174.201 204.26 173.931 204.26 173.744V173.632C204.26 173.371 204.456 173.147 204.848 172.96L208.208 171.392C208.805 171.112 209.104 171.299 209.104 171.952V174.052C209.739 172.204 211.008 171.28 212.912 171.28ZM65.248 216.28C62.6533 216.28 60.4133 215.225 58.528 213.116C56.6613 210.988 55.728 208.552 55.728 205.808C55.728 202.915 56.5867 200.535 58.304 198.668C60.04 196.801 62.28 195.868 65.024 195.868C67.1707 195.868 69.0373 196.419 70.624 197.52C72.2107 198.603 73.004 199.816 73.004 201.16C73.004 201.72 72.8267 202.177 72.472 202.532C72.1173 202.868 71.632 203.036 71.016 203.036C70.456 203.036 69.9613 202.849 69.532 202.476C69.1027 202.103 68.7293 201.655 68.412 201.132C68.0947 200.591 67.7587 200.049 67.404 199.508C67.068 198.967 66.62 198.509 66.06 198.136C65.5 197.763 64.856 197.576 64.128 197.576C62.952 197.576 61.944 198.108 61.104 199.172C60.264 200.217 59.844 201.589 59.844 203.288C59.844 205.957 60.5067 208.16 61.832 209.896C63.176 211.632 64.7347 212.5 66.508 212.5C68.7107 212.5 70.4747 211.324 71.8 208.972C72.024 208.655 72.3133 208.552 72.668 208.664C73.0227 208.757 73.1813 209.009 73.144 209.42C72.976 211.343 72.2107 212.967 70.848 214.292C69.4853 215.617 67.6187 216.28 65.248 216.28ZM82.1845 216.28C79.9632 216.28 78.1245 215.599 76.6685 214.236C75.2312 212.855 74.5125 211.175 74.5125 209.196C74.5125 207.199 75.2218 205.547 76.6405 204.24C78.0592 202.933 79.7672 202.28 81.7645 202.28C83.9112 202.28 85.7032 202.961 87.1405 204.324C88.5778 205.668 89.2965 207.339 89.2965 209.336C89.2965 211.333 88.6152 212.995 87.2525 214.32C85.9085 215.627 84.2192 216.28 82.1845 216.28ZM82.6885 215.048C83.4538 215.048 84.0418 214.693 84.4525 213.984C84.8818 213.275 85.0965 212.276 85.0965 210.988C85.0965 209.924 84.9378 208.832 84.6205 207.712C84.3218 206.573 83.8645 205.593 83.2485 204.772C82.6325 203.932 81.9512 203.512 81.2045 203.512C79.4872 203.512 78.6285 204.875 78.6285 207.6C78.6285 208.608 78.7778 209.672 79.0765 210.792C79.3938 211.912 79.8698 212.901 80.5045 213.76C81.1578 214.619 81.8858 215.048 82.6885 215.048ZM114.163 213.284C114.2 213.732 114.377 214.152 114.695 214.544C115.012 214.936 115.171 215.235 115.171 215.44V215.552C115.171 215.869 114.965 216.028 114.555 216.028H109.711C109.281 216.028 109.067 215.869 109.067 215.552V215.44C109.067 215.253 109.235 214.964 109.571 214.572C109.925 214.18 110.084 213.76 110.047 213.312L109.767 208.188C109.692 206.639 109.459 205.537 109.067 204.884C108.675 204.212 108.096 203.876 107.331 203.876C106.677 203.876 106.145 204.147 105.735 204.688C105.324 205.229 105.1 205.929 105.063 206.788C105.137 207.161 105.175 207.609 105.175 208.132V213.312C105.175 213.76 105.333 214.18 105.651 214.572C105.987 214.964 106.155 215.253 106.155 215.44V215.552C106.155 215.869 105.949 216.028 105.539 216.028H100.695C100.265 216.028 100.051 215.869 100.051 215.552V215.44C100.051 215.253 100.219 214.964 100.555 214.572C100.891 214.18 101.059 213.76 101.059 213.312V207.852C101.059 206.583 100.835 205.603 100.387 204.912C99.9387 204.221 99.3507 203.876 98.6227 203.876C97.876 203.876 97.288 204.165 96.8587 204.744C96.4294 205.323 96.2147 206.069 96.2147 206.984V213.312C96.2147 213.76 96.4107 214.18 96.8027 214.572C97.2134 214.964 97.4187 215.253 97.4187 215.44V215.552C97.4187 215.869 97.204 216.028 96.7747 216.028H91.5667C91.1374 216.028 90.9227 215.869 90.9227 215.552V215.44C90.9227 215.253 91.1187 214.964 91.5107 214.572C91.9214 214.18 92.1267 213.76 92.1267 213.312V206.788C92.1267 206.433 92.0147 206.135 91.7907 205.892C91.5667 205.649 91.3334 205.444 91.0907 205.276C90.8667 205.089 90.7547 204.903 90.7547 204.716V204.604C90.7547 204.399 90.9507 204.203 91.3427 204.016L94.8707 202.392C95.188 202.243 95.4307 202.233 95.5987 202.364C95.7667 202.476 95.8507 202.681 95.8507 202.98V204.296C96.728 202.952 98.016 202.28 99.7147 202.28C101.843 202.28 103.392 203.12 104.363 204.8C104.736 204.016 105.296 203.4 106.043 202.952C106.808 202.504 107.667 202.28 108.619 202.28C110.037 202.28 111.223 202.756 112.175 203.708C113.127 204.641 113.677 206.172 113.827 208.3L114.163 213.284ZM124.749 202.28C126.504 202.28 128.034 202.887 129.341 204.1C130.648 205.313 131.301 206.965 131.301 209.056C131.301 211.165 130.657 212.901 129.369 214.264C128.1 215.608 126.569 216.28 124.777 216.28C123.47 216.28 122.378 215.916 121.501 215.188V219.36C121.501 219.808 121.697 220.228 122.089 220.62C122.481 221.012 122.677 221.301 122.677 221.488V221.6C122.677 221.917 122.462 222.076 122.033 222.076H116.965C116.536 222.076 116.321 221.917 116.321 221.6V221.488C116.321 221.301 116.498 221.012 116.853 220.62C117.226 220.228 117.413 219.808 117.413 219.36V206.76C117.413 206.349 117.198 205.976 116.769 205.64C116.34 205.285 116.125 205.005 116.125 204.8V204.66C116.125 204.399 116.312 204.175 116.685 203.988L119.821 202.448C120.53 202.093 120.885 202.261 120.885 202.952L120.857 204.128C121.641 202.896 122.938 202.28 124.749 202.28ZM124.357 215.076C125.253 215.076 125.944 214.703 126.429 213.956C126.933 213.209 127.185 212.136 127.185 210.736C127.185 208.832 126.877 207.152 126.261 205.696C125.645 204.221 124.814 203.484 123.769 203.484C123.19 203.484 122.686 203.699 122.257 204.128C121.828 204.539 121.576 205.08 121.501 205.752V211.1C121.501 212.183 121.79 213.116 122.369 213.9C122.948 214.684 123.61 215.076 124.357 215.076ZM145.606 213.2C145.662 213.629 145.765 213.975 145.914 214.236C146.082 214.497 146.25 214.665 146.418 214.74C146.586 214.796 146.735 214.871 146.866 214.964C146.997 215.057 147.062 215.188 147.062 215.356C147.062 215.897 146.166 216.168 144.374 216.168C143.553 216.168 142.946 216.065 142.554 215.86C142.181 215.636 141.957 215.235 141.882 214.656C141.154 215.739 139.913 216.28 138.158 216.28C136.59 216.28 135.321 215.916 134.35 215.188C133.379 214.46 132.894 213.415 132.894 212.052C132.875 210.708 133.351 209.663 134.322 208.916C135.293 208.169 136.506 207.796 137.962 207.796C139.194 207.796 140.211 208.076 141.014 208.636L140.986 208.3C140.799 206.527 140.538 205.276 140.202 204.548C139.866 203.82 139.297 203.456 138.494 203.456C137.99 203.456 137.579 203.643 137.262 204.016C136.945 204.389 136.721 204.8 136.59 205.248C136.459 205.696 136.245 206.107 135.946 206.48C135.647 206.853 135.265 207.04 134.798 207.04C134.294 207.04 133.883 206.9 133.566 206.62C133.267 206.321 133.118 205.939 133.118 205.472C133.118 204.501 133.631 203.727 134.658 203.148C135.703 202.569 136.982 202.28 138.494 202.28C140.305 202.28 141.789 202.793 142.946 203.82C144.103 204.847 144.785 206.247 144.99 208.02L145.606 213.2ZM139.39 215.048C140.006 215.048 140.501 214.796 140.874 214.292C141.247 213.769 141.415 213.181 141.378 212.528L141.294 211.548C141.219 210.745 140.977 210.129 140.566 209.7C140.174 209.271 139.679 209.056 139.082 209.056C138.485 209.056 137.99 209.271 137.598 209.7C137.225 210.129 137.038 210.699 137.038 211.408C137.038 212.416 137.253 213.275 137.682 213.984C138.13 214.693 138.699 215.048 139.39 215.048ZM162.494 213.284C162.531 213.732 162.708 214.152 163.026 214.544C163.343 214.936 163.502 215.235 163.502 215.44V215.552C163.502 215.869 163.287 216.028 162.858 216.028H158.014C157.584 216.028 157.37 215.869 157.37 215.552V215.44C157.37 215.253 157.538 214.964 157.874 214.572C158.228 214.18 158.396 213.751 158.378 213.284L158.098 208.104C157.967 205.285 157.155 203.876 155.662 203.876C154.915 203.876 154.327 204.156 153.898 204.716C153.487 205.276 153.282 206.023 153.282 206.956V213.312C153.282 213.76 153.478 214.18 153.87 214.572C154.28 214.964 154.486 215.253 154.486 215.44V215.552C154.486 215.869 154.271 216.028 153.842 216.028H148.634C148.204 216.028 147.99 215.869 147.99 215.552V215.44C147.99 215.253 148.186 214.964 148.578 214.572C148.988 214.18 149.194 213.76 149.194 213.312V206.788C149.194 206.508 149.119 206.256 148.97 206.032C148.839 205.808 148.68 205.649 148.494 205.556C148.326 205.444 148.167 205.313 148.018 205.164C147.887 205.015 147.822 204.865 147.822 204.716V204.604C147.822 204.399 148.008 204.203 148.382 204.016L151.714 202.392C152.031 202.243 152.264 202.233 152.414 202.364C152.582 202.476 152.666 202.681 152.666 202.98V204.548C153.468 203.036 154.85 202.28 156.81 202.28C158.228 202.28 159.432 202.756 160.422 203.708C161.43 204.66 162.008 206.172 162.158 208.244L162.494 213.284ZM178.149 202.56C178.523 202.56 178.709 202.709 178.709 203.008V203.148C178.709 203.391 178.513 203.717 178.121 204.128C177.748 204.539 177.468 204.94 177.281 205.332L171.989 216.84C171.747 217.381 171.541 217.82 171.373 218.156C171.205 218.492 170.944 218.931 170.589 219.472C170.253 220.032 169.917 220.471 169.581 220.788C169.245 221.105 168.825 221.385 168.321 221.628C167.817 221.871 167.295 221.992 166.753 221.992C165.559 221.992 164.569 221.684 163.785 221.068C163.02 220.452 162.637 219.761 162.637 218.996C162.637 218.492 162.787 218.081 163.085 217.764C163.384 217.465 163.795 217.316 164.317 217.316C164.84 217.316 165.251 217.484 165.549 217.82C165.848 218.175 166.044 218.567 166.137 218.996C166.231 219.425 166.371 219.808 166.557 220.144C166.763 220.499 167.024 220.676 167.341 220.676C168.2 220.676 169.161 219.369 170.225 216.756L164.653 205.332C164.448 204.921 164.14 204.52 163.729 204.128C163.337 203.717 163.141 203.391 163.141 203.148V203.008C163.141 202.709 163.337 202.56 163.729 202.56H168.965C169.32 202.56 169.497 202.719 169.497 203.036V203.148C169.497 203.316 169.413 203.512 169.245 203.736C169.077 203.941 168.965 204.137 168.909 204.324C168.853 204.511 168.909 204.865 169.077 205.388L172.353 212.976L175.377 205.78C175.564 205.145 175.564 204.707 175.377 204.464C175.191 204.221 174.939 203.988 174.621 203.764C174.304 203.521 174.145 203.316 174.145 203.148V203.036C174.145 202.719 174.341 202.56 174.733 202.56H178.149Z" fill="#163A24"/>
<path d="M87.936 300H81.552V288.576H87.936V289.84H82.992V293.408H87.648V294.656H82.992V298.736H87.936V300ZM99.6586 291.264C100.629 291.264 101.355 291.515 101.835 292.016C102.315 292.507 102.555 293.307 102.555 294.416V300H101.163V294.48C101.163 293.125 100.581 292.448 99.4186 292.448C98.5866 292.448 97.9893 292.688 97.6266 293.168C97.2746 293.648 97.0986 294.347 97.0986 295.264V300H95.7066V294.48C95.7066 293.125 95.12 292.448 93.9466 292.448C93.0826 292.448 92.4853 292.715 92.1546 293.248C91.824 293.781 91.6586 294.549 91.6586 295.552V300H90.2506V291.424H91.3866L91.5946 292.592H91.6746C91.9413 292.144 92.2986 291.813 92.7466 291.6C93.2053 291.376 93.6906 291.264 94.2026 291.264C95.5466 291.264 96.4213 291.744 96.8266 292.704H96.9066C97.1946 292.213 97.584 291.851 98.0746 291.616C98.576 291.381 99.104 291.264 99.6586 291.264ZM109.284 291.264C110.34 291.264 111.188 291.632 111.828 292.368C112.478 293.104 112.804 294.213 112.804 295.696C112.804 297.157 112.478 298.267 111.828 299.024C111.188 299.781 110.334 300.16 109.268 300.16C108.606 300.16 108.057 300.037 107.62 299.792C107.193 299.536 106.857 299.243 106.612 298.912H106.516C106.537 299.093 106.558 299.323 106.58 299.6C106.601 299.877 106.612 300.117 106.612 300.32V303.84H105.204V291.424H106.356L106.548 292.592H106.612C106.868 292.219 107.204 291.904 107.62 291.648C108.036 291.392 108.59 291.264 109.284 291.264ZM109.028 292.448C108.153 292.448 107.534 292.693 107.172 293.184C106.82 293.675 106.633 294.421 106.612 295.424V295.696C106.612 296.752 106.782 297.568 107.124 298.144C107.476 298.709 108.121 298.992 109.06 298.992C109.582 298.992 110.009 298.848 110.34 298.56C110.681 298.272 110.932 297.883 111.092 297.392C111.262 296.891 111.348 296.32 111.348 295.68C111.348 294.699 111.156 293.915 110.772 293.328C110.398 292.741 109.817 292.448 109.028 292.448ZM116.456 300H115.048V287.84H116.456V300ZM126.628 295.696C126.628 297.115 126.266 298.213 125.541 298.992C124.826 299.771 123.855 300.16 122.629 300.16C121.871 300.16 121.194 299.989 120.597 299.648C120.01 299.296 119.546 298.789 119.205 298.128C118.863 297.456 118.693 296.645 118.693 295.696C118.693 294.277 119.05 293.184 119.765 292.416C120.479 291.648 121.45 291.264 122.677 291.264C123.455 291.264 124.138 291.44 124.725 291.792C125.322 292.133 125.786 292.635 126.117 293.296C126.458 293.947 126.628 294.747 126.628 295.696ZM120.149 295.696C120.149 296.709 120.346 297.515 120.741 298.112C121.146 298.699 121.786 298.992 122.661 298.992C123.525 298.992 124.159 298.699 124.565 298.112C124.97 297.515 125.173 296.709 125.173 295.696C125.173 294.683 124.97 293.888 124.565 293.312C124.159 292.736 123.519 292.448 122.645 292.448C121.77 292.448 121.135 292.736 120.741 293.312C120.346 293.888 120.149 294.683 120.149 295.696ZM127.204 291.424H128.708L130.564 296.304C130.724 296.731 130.868 297.141 130.996 297.536C131.124 297.92 131.22 298.288 131.284 298.64H131.348C131.412 298.373 131.513 298.027 131.652 297.6C131.79 297.163 131.934 296.725 132.084 296.288L133.828 291.424H135.348L131.652 301.184C131.353 301.995 130.964 302.64 130.484 303.12C130.014 303.6 129.364 303.84 128.532 303.84C128.276 303.84 128.052 303.824 127.86 303.792C127.668 303.771 127.502 303.744 127.364 303.712V302.592C127.481 302.613 127.62 302.635 127.78 302.656C127.95 302.677 128.126 302.688 128.308 302.688C128.798 302.688 129.193 302.549 129.492 302.272C129.801 301.995 130.041 301.627 130.212 301.168L130.66 300.032L127.204 291.424ZM140.016 291.264C140.752 291.264 141.381 291.424 141.904 291.744C142.437 292.064 142.842 292.517 143.12 293.104C143.408 293.68 143.552 294.357 143.552 295.136V295.984H137.68C137.701 296.955 137.946 297.696 138.416 298.208C138.896 298.709 139.562 298.96 140.416 298.96C140.96 298.96 141.44 298.912 141.856 298.816C142.282 298.709 142.72 298.56 143.168 298.368V299.6C142.73 299.792 142.298 299.931 141.872 300.016C141.445 300.112 140.938 300.16 140.352 300.16C139.541 300.16 138.821 299.995 138.192 299.664C137.573 299.333 137.088 298.843 136.736 298.192C136.394 297.531 136.224 296.725 136.224 295.776C136.224 294.837 136.378 294.032 136.688 293.36C137.008 292.688 137.45 292.171 138.016 291.808C138.592 291.445 139.258 291.264 140.016 291.264ZM140 292.416C139.328 292.416 138.794 292.635 138.4 293.072C138.016 293.499 137.786 294.096 137.712 294.864H142.08C142.069 294.139 141.898 293.552 141.568 293.104C141.237 292.645 140.714 292.416 140 292.416ZM149.047 291.264C149.783 291.264 150.412 291.424 150.935 291.744C151.468 292.064 151.874 292.517 152.151 293.104C152.439 293.68 152.583 294.357 152.583 295.136V295.984H146.711C146.732 296.955 146.978 297.696 147.447 298.208C147.927 298.709 148.594 298.96 149.447 298.96C149.991 298.96 150.471 298.912 150.887 298.816C151.314 298.709 151.751 298.56 152.199 298.368V299.6C151.762 299.792 151.33 299.931 150.903 300.016C150.476 300.112 149.97 300.16 149.383 300.16C148.572 300.16 147.852 299.995 147.223 299.664C146.604 299.333 146.119 298.843 145.767 298.192C145.426 297.531 145.255 296.725 145.255 295.776C145.255 294.837 145.41 294.032 145.719 293.36C146.039 292.688 146.482 292.171 147.047 291.808C147.623 291.445 148.29 291.264 149.047 291.264ZM149.031 292.416C148.359 292.416 147.826 292.635 147.431 293.072C147.047 293.499 146.818 294.096 146.743 294.864H151.111C151.1 294.139 150.93 293.552 150.599 293.104C150.268 292.645 149.746 292.416 149.031 292.416ZM168.267 294.176C168.267 296.107 167.739 297.563 166.683 298.544C165.637 299.515 164.176 300 162.299 300H159.115V288.576H162.635C163.787 288.576 164.784 288.789 165.627 289.216C166.469 289.643 167.12 290.272 167.579 291.104C168.037 291.925 168.267 292.949 168.267 294.176ZM166.747 294.224C166.747 292.699 166.368 291.584 165.611 290.88C164.864 290.165 163.803 289.808 162.427 289.808H160.555V298.768H162.107C165.2 298.768 166.747 297.253 166.747 294.224ZM173.858 291.28C174.903 291.28 175.677 291.509 176.178 291.968C176.679 292.427 176.93 293.157 176.93 294.16V300H175.906L175.634 298.784H175.57C175.197 299.253 174.802 299.6 174.386 299.824C173.981 300.048 173.415 300.16 172.69 300.16C171.911 300.16 171.266 299.957 170.754 299.552C170.242 299.136 169.986 298.491 169.986 297.616C169.986 296.763 170.322 296.107 170.994 295.648C171.666 295.179 172.701 294.923 174.098 294.88L175.554 294.832V294.32C175.554 293.605 175.399 293.109 175.09 292.832C174.781 292.555 174.343 292.416 173.778 292.416C173.33 292.416 172.903 292.485 172.498 292.624C172.093 292.752 171.714 292.901 171.362 293.072L170.93 292.016C171.303 291.813 171.746 291.643 172.258 291.504C172.77 291.355 173.303 291.28 173.858 291.28ZM174.274 295.856C173.207 295.899 172.466 296.069 172.05 296.368C171.645 296.667 171.442 297.088 171.442 297.632C171.442 298.112 171.586 298.464 171.874 298.688C172.173 298.912 172.551 299.024 173.01 299.024C173.735 299.024 174.338 298.827 174.818 298.432C175.298 298.027 175.538 297.408 175.538 296.576V295.808L174.274 295.856ZM182.443 299.008C182.656 299.008 182.875 298.992 183.099 298.96C183.323 298.917 183.504 298.875 183.643 298.832V299.904C183.493 299.979 183.28 300.037 183.003 300.08C182.725 300.133 182.459 300.16 182.203 300.16C181.755 300.16 181.339 300.085 180.955 299.936C180.581 299.776 180.277 299.504 180.043 299.12C179.808 298.736 179.691 298.197 179.691 297.504V292.512H178.475V291.84L179.707 291.28L180.267 289.456H181.099V291.424H183.579V292.512H181.099V297.472C181.099 297.995 181.221 298.384 181.467 298.64C181.723 298.885 182.048 299.008 182.443 299.008ZM188.608 291.28C189.653 291.28 190.427 291.509 190.928 291.968C191.429 292.427 191.68 293.157 191.68 294.16V300H190.656L190.384 298.784H190.32C189.947 299.253 189.552 299.6 189.136 299.824C188.731 300.048 188.165 300.16 187.44 300.16C186.661 300.16 186.016 299.957 185.504 299.552C184.992 299.136 184.736 298.491 184.736 297.616C184.736 296.763 185.072 296.107 185.744 295.648C186.416 295.179 187.451 294.923 188.848 294.88L190.304 294.832V294.32C190.304 293.605 190.149 293.109 189.84 292.832C189.531 292.555 189.093 292.416 188.528 292.416C188.08 292.416 187.653 292.485 187.248 292.624C186.843 292.752 186.464 292.901 186.112 293.072L185.68 292.016C186.053 291.813 186.496 291.643 187.008 291.504C187.52 291.355 188.053 291.28 188.608 291.28ZM189.024 295.856C187.957 295.899 187.216 296.069 186.8 296.368C186.395 296.667 186.192 297.088 186.192 297.632C186.192 298.112 186.336 298.464 186.624 298.688C186.923 298.912 187.301 299.024 187.76 299.024C188.485 299.024 189.088 298.827 189.568 298.432C190.048 298.027 190.288 297.408 190.288 296.576V295.808L189.024 295.856ZM205.157 296.944C205.157 297.957 204.789 298.747 204.053 299.312C203.317 299.877 202.325 300.16 201.077 300.16C200.437 300.16 199.845 300.112 199.301 300.016C198.757 299.92 198.304 299.787 197.941 299.616V298.24C198.325 298.411 198.8 298.565 199.365 298.704C199.941 298.843 200.533 298.912 201.141 298.912C201.994 298.912 202.634 298.747 203.061 298.416C203.498 298.085 203.717 297.637 203.717 297.072C203.717 296.699 203.637 296.384 203.477 296.128C203.317 295.872 203.04 295.637 202.645 295.424C202.261 295.2 201.722 294.965 201.029 294.72C200.058 294.368 199.322 293.936 198.821 293.424C198.33 292.912 198.085 292.213 198.085 291.328C198.085 290.72 198.24 290.203 198.549 289.776C198.858 289.339 199.285 289.003 199.829 288.768C200.384 288.533 201.018 288.416 201.733 288.416C202.362 288.416 202.938 288.475 203.461 288.592C203.984 288.709 204.458 288.864 204.885 289.056L204.437 290.288C204.042 290.117 203.61 289.973 203.141 289.856C202.682 289.739 202.202 289.68 201.701 289.68C200.986 289.68 200.448 289.835 200.085 290.144C199.722 290.443 199.541 290.843 199.541 291.344C199.541 291.728 199.621 292.048 199.781 292.304C199.941 292.56 200.202 292.789 200.565 292.992C200.928 293.195 201.418 293.413 202.037 293.648C202.709 293.893 203.274 294.16 203.733 294.448C204.202 294.725 204.554 295.061 204.789 295.456C205.034 295.851 205.157 296.347 205.157 296.944ZM210.13 299.008C210.344 299.008 210.562 298.992 210.786 298.96C211.01 298.917 211.192 298.875 211.33 298.832V299.904C211.181 299.979 210.968 300.037 210.69 300.08C210.413 300.133 210.146 300.16 209.89 300.16C209.442 300.16 209.026 300.085 208.642 299.936C208.269 299.776 207.965 299.504 207.73 299.12C207.496 298.736 207.378 298.197 207.378 297.504V292.512H206.162V291.84L207.394 291.28L207.954 289.456H208.786V291.424H211.266V292.512H208.786V297.472C208.786 297.995 208.909 298.384 209.154 298.64C209.41 298.885 209.736 299.008 210.13 299.008ZM220.503 295.696C220.503 297.115 220.141 298.213 219.416 298.992C218.701 299.771 217.73 300.16 216.504 300.16C215.746 300.16 215.069 299.989 214.472 299.648C213.885 299.296 213.421 298.789 213.08 298.128C212.738 297.456 212.568 296.645 212.568 295.696C212.568 294.277 212.925 293.184 213.64 292.416C214.354 291.648 215.325 291.264 216.552 291.264C217.33 291.264 218.013 291.44 218.6 291.792C219.197 292.133 219.661 292.635 219.992 293.296C220.333 293.947 220.503 294.747 220.503 295.696ZM214.024 295.696C214.024 296.709 214.221 297.515 214.616 298.112C215.021 298.699 215.661 298.992 216.536 298.992C217.4 298.992 218.034 298.699 218.44 298.112C218.845 297.515 219.048 296.709 219.048 295.696C219.048 294.683 218.845 293.888 218.44 293.312C218.034 292.736 217.394 292.448 216.52 292.448C215.645 292.448 215.01 292.736 214.616 293.312C214.221 293.888 214.024 294.683 214.024 295.696ZM226.735 291.264C226.895 291.264 227.066 291.275 227.247 291.296C227.439 291.307 227.604 291.328 227.743 291.36L227.567 292.656C227.428 292.624 227.274 292.597 227.103 292.576C226.943 292.555 226.788 292.544 226.639 292.544C226.202 292.544 225.791 292.667 225.407 292.912C225.023 293.147 224.714 293.483 224.479 293.92C224.255 294.347 224.143 294.848 224.143 295.424V300H222.735V291.424H223.887L224.047 292.992H224.111C224.388 292.523 224.746 292.117 225.183 291.776C225.62 291.435 226.138 291.264 226.735 291.264ZM232.28 291.28C233.325 291.28 234.099 291.509 234.6 291.968C235.101 292.427 235.352 293.157 235.352 294.16V300H234.328L234.056 298.784H233.992C233.619 299.253 233.224 299.6 232.808 299.824C232.403 300.048 231.837 300.16 231.112 300.16C230.333 300.16 229.688 299.957 229.176 299.552C228.664 299.136 228.408 298.491 228.408 297.616C228.408 296.763 228.744 296.107 229.416 295.648C230.088 295.179 231.123 294.923 232.52 294.88L233.976 294.832V294.32C233.976 293.605 233.821 293.109 233.512 292.832C233.203 292.555 232.765 292.416 232.2 292.416C231.752 292.416 231.325 292.485 230.92 292.624C230.515 292.752 230.136 292.901 229.784 293.072L229.352 292.016C229.725 291.813 230.168 291.643 230.68 291.504C231.192 291.355 231.725 291.28 232.28 291.28ZM232.696 295.856C231.629 295.899 230.888 296.069 230.472 296.368C230.067 296.667 229.864 297.088 229.864 297.632C229.864 298.112 230.008 298.464 230.296 298.688C230.595 298.912 230.973 299.024 231.432 299.024C232.157 299.024 232.76 298.827 233.24 298.432C233.72 298.027 233.96 297.408 233.96 296.576V295.808L232.696 295.856ZM241.041 291.264C241.606 291.264 242.113 291.371 242.561 291.584C243.019 291.797 243.409 292.123 243.729 292.56H243.809L244.001 291.424H245.121V300.144C245.121 301.371 244.806 302.293 244.177 302.912C243.558 303.531 242.593 303.84 241.281 303.84C240.022 303.84 238.993 303.659 238.193 303.296V302C239.035 302.448 240.091 302.672 241.361 302.672C242.097 302.672 242.673 302.453 243.089 302.016C243.515 301.589 243.729 301.003 243.729 300.256V299.92C243.729 299.792 243.734 299.611 243.745 299.376C243.755 299.131 243.766 298.96 243.777 298.864H243.713C243.137 299.728 242.251 300.16 241.057 300.16C239.947 300.16 239.078 299.771 238.449 298.992C237.83 298.213 237.521 297.125 237.521 295.728C237.521 294.363 237.83 293.28 238.449 292.48C239.078 291.669 239.942 291.264 241.041 291.264ZM241.233 292.448C240.518 292.448 239.963 292.736 239.569 293.312C239.174 293.877 238.977 294.688 238.977 295.744C238.977 296.8 239.169 297.611 239.553 298.176C239.947 298.731 240.518 299.008 241.265 299.008C242.129 299.008 242.758 298.779 243.153 298.32C243.547 297.851 243.745 297.099 243.745 296.064V295.728C243.745 294.555 243.542 293.717 243.137 293.216C242.731 292.704 242.097 292.448 241.233 292.448ZM251.156 291.264C251.892 291.264 252.522 291.424 253.044 291.744C253.578 292.064 253.983 292.517 254.26 293.104C254.548 293.68 254.692 294.357 254.692 295.136V295.984H248.82C248.842 296.955 249.087 297.696 249.556 298.208C250.036 298.709 250.703 298.96 251.556 298.96C252.1 298.96 252.58 298.912 252.996 298.816C253.423 298.709 253.86 298.56 254.308 298.368V299.6C253.871 299.792 253.439 299.931 253.012 300.016C252.586 300.112 252.079 300.16 251.492 300.16C250.682 300.16 249.962 299.995 249.332 299.664C248.714 299.333 248.228 298.843 247.876 298.192C247.535 297.531 247.364 296.725 247.364 295.776C247.364 294.837 247.519 294.032 247.828 293.36C248.148 292.688 248.591 292.171 249.156 291.808C249.732 291.445 250.399 291.264 251.156 291.264ZM251.14 292.416C250.468 292.416 249.935 292.635 249.54 293.072C249.156 293.499 248.927 294.096 248.852 294.864H253.22C253.21 294.139 253.039 293.552 252.708 293.104C252.378 292.645 251.855 292.416 251.14 292.416Z" fill="#163A24"/>
<path d="M86.448 252.68C85.2213 252.68 84.256 253.091 83.552 253.912C82.848 254.733 82.496 255.859 82.496 257.288C82.496 258.707 82.8213 259.832 83.472 260.664C84.1333 261.485 85.12 261.896 86.432 261.896C86.9333 261.896 87.408 261.853 87.856 261.768C88.304 261.683 88.7413 261.576 89.168 261.448V262.696C88.7413 262.856 88.2987 262.973 87.84 263.048C87.392 263.123 86.8533 263.16 86.224 263.16C85.0613 263.16 84.0907 262.92 83.312 262.44C82.5333 261.96 81.9467 261.277 81.552 260.392C81.168 259.507 80.976 258.467 80.976 257.272C80.976 256.12 81.184 255.107 81.6 254.232C82.0267 253.347 82.6507 252.659 83.472 252.168C84.2933 251.667 85.2907 251.416 86.464 251.416C87.6693 251.416 88.72 251.64 89.616 252.088L89.04 253.304C88.688 253.144 88.2933 253 87.856 252.872C87.4293 252.744 86.96 252.68 86.448 252.68ZM98.9254 258.696C98.9254 260.115 98.5627 261.213 97.8374 261.992C97.1227 262.771 96.152 263.16 94.9254 263.16C94.168 263.16 93.4907 262.989 92.8934 262.648C92.3067 262.296 91.8427 261.789 91.5014 261.128C91.16 260.456 90.9894 259.645 90.9894 258.696C90.9894 257.277 91.3467 256.184 92.0614 255.416C92.776 254.648 93.7467 254.264 94.9734 254.264C95.752 254.264 96.4347 254.44 97.0214 254.792C97.6187 255.133 98.0827 255.635 98.4134 256.296C98.7547 256.947 98.9254 257.747 98.9254 258.696ZM92.4454 258.696C92.4454 259.709 92.6427 260.515 93.0374 261.112C93.4427 261.699 94.0827 261.992 94.9574 261.992C95.8214 261.992 96.456 261.699 96.8614 261.112C97.2667 260.515 97.4694 259.709 97.4694 258.696C97.4694 257.683 97.2667 256.888 96.8614 256.312C96.456 255.736 95.816 255.448 94.9414 255.448C94.0667 255.448 93.432 255.736 93.0374 256.312C92.6427 256.888 92.4454 257.683 92.4454 258.696ZM110.565 254.264C111.536 254.264 112.261 254.515 112.741 255.016C113.221 255.507 113.461 256.307 113.461 257.416V263H112.069V257.48C112.069 256.125 111.488 255.448 110.325 255.448C109.493 255.448 108.896 255.688 108.533 256.168C108.181 256.648 108.005 257.347 108.005 258.264V263H106.613V257.48C106.613 256.125 106.026 255.448 104.853 255.448C103.989 255.448 103.392 255.715 103.061 256.248C102.73 256.781 102.565 257.549 102.565 258.552V263H101.157V254.424H102.293L102.501 255.592H102.581C102.848 255.144 103.205 254.813 103.653 254.6C104.112 254.376 104.597 254.264 105.109 254.264C106.453 254.264 107.328 254.744 107.733 255.704H107.813C108.101 255.213 108.49 254.851 108.981 254.616C109.482 254.381 110.01 254.264 110.565 254.264ZM120.19 254.264C121.246 254.264 122.094 254.632 122.734 255.368C123.385 256.104 123.71 257.213 123.71 258.696C123.71 260.157 123.385 261.267 122.734 262.024C122.094 262.781 121.241 263.16 120.174 263.16C119.513 263.16 118.963 263.037 118.526 262.792C118.099 262.536 117.763 262.243 117.518 261.912H117.422C117.443 262.093 117.465 262.323 117.486 262.6C117.507 262.877 117.518 263.117 117.518 263.32V266.84H116.11V254.424H117.262L117.454 255.592H117.518C117.774 255.219 118.11 254.904 118.526 254.648C118.942 254.392 119.497 254.264 120.19 254.264ZM119.934 255.448C119.059 255.448 118.441 255.693 118.078 256.184C117.726 256.675 117.539 257.421 117.518 258.424V258.696C117.518 259.752 117.689 260.568 118.03 261.144C118.382 261.709 119.027 261.992 119.966 261.992C120.489 261.992 120.915 261.848 121.246 261.56C121.587 261.272 121.838 260.883 121.998 260.392C122.169 259.891 122.254 259.32 122.254 258.68C122.254 257.699 122.062 256.915 121.678 256.328C121.305 255.741 120.723 255.448 119.934 255.448ZM127.362 263H125.954V250.84H127.362V263ZM130.799 251.208C131.012 251.208 131.199 251.283 131.359 251.432C131.529 251.571 131.615 251.795 131.615 252.104C131.615 252.403 131.529 252.627 131.359 252.776C131.199 252.925 131.012 253 130.799 253C130.564 253 130.367 252.925 130.207 252.776C130.047 252.627 129.967 252.403 129.967 252.104C129.967 251.795 130.047 251.571 130.207 251.432C130.367 251.283 130.564 251.208 130.799 251.208ZM131.487 254.424V263H130.079V254.424H131.487ZM137.452 254.28C138.497 254.28 139.27 254.509 139.772 254.968C140.273 255.427 140.524 256.157 140.524 257.16V263H139.5L139.228 261.784H139.164C138.79 262.253 138.396 262.6 137.98 262.824C137.574 263.048 137.009 263.16 136.284 263.16C135.505 263.16 134.86 262.957 134.348 262.552C133.836 262.136 133.58 261.491 133.58 260.616C133.58 259.763 133.916 259.107 134.588 258.648C135.26 258.179 136.294 257.923 137.692 257.88L139.148 257.832V257.32C139.148 256.605 138.993 256.109 138.684 255.832C138.374 255.555 137.937 255.416 137.372 255.416C136.924 255.416 136.497 255.485 136.092 255.624C135.686 255.752 135.308 255.901 134.956 256.072L134.524 255.016C134.897 254.813 135.34 254.643 135.852 254.504C136.364 254.355 136.897 254.28 137.452 254.28ZM137.868 258.856C136.801 258.899 136.06 259.069 135.644 259.368C135.238 259.667 135.036 260.088 135.036 260.632C135.036 261.112 135.18 261.464 135.468 261.688C135.766 261.912 136.145 262.024 136.604 262.024C137.329 262.024 137.932 261.827 138.412 261.432C138.892 261.027 139.132 260.408 139.132 259.576V258.808L137.868 258.856ZM147.301 254.264C148.325 254.264 149.098 254.515 149.621 255.016C150.143 255.507 150.405 256.307 150.405 257.416V263H149.013V257.512C149.013 256.136 148.373 255.448 147.093 255.448C146.143 255.448 145.487 255.715 145.125 256.248C144.762 256.781 144.581 257.549 144.581 258.552V263H143.173V254.424H144.309L144.517 255.592H144.597C144.874 255.144 145.258 254.813 145.749 254.6C146.239 254.376 146.757 254.264 147.301 254.264ZM156.503 263.16C155.746 263.16 155.068 263.005 154.471 262.696C153.884 262.387 153.42 261.907 153.079 261.256C152.748 260.605 152.583 259.773 152.583 258.76C152.583 257.704 152.759 256.845 153.111 256.184C153.463 255.523 153.938 255.037 154.535 254.728C155.143 254.419 155.831 254.264 156.599 254.264C157.036 254.264 157.458 254.312 157.863 254.408C158.268 254.493 158.599 254.6 158.855 254.728L158.423 255.896C158.167 255.8 157.868 255.709 157.527 255.624C157.186 255.539 156.866 255.496 156.567 255.496C154.882 255.496 154.039 256.579 154.039 258.744C154.039 259.779 154.242 260.573 154.647 261.128C155.063 261.672 155.676 261.944 156.487 261.944C156.956 261.944 157.367 261.896 157.719 261.8C158.082 261.704 158.412 261.587 158.711 261.448V262.696C158.423 262.845 158.103 262.957 157.751 263.032C157.41 263.117 156.994 263.16 156.503 263.16ZM164.063 254.264C164.799 254.264 165.428 254.424 165.951 254.744C166.484 255.064 166.889 255.517 167.167 256.104C167.455 256.68 167.599 257.357 167.599 258.136V258.984H161.727C161.748 259.955 161.993 260.696 162.463 261.208C162.943 261.709 163.609 261.96 164.463 261.96C165.007 261.96 165.487 261.912 165.903 261.816C166.329 261.709 166.767 261.56 167.215 261.368V262.6C166.777 262.792 166.345 262.931 165.919 263.016C165.492 263.112 164.985 263.16 164.399 263.16C163.588 263.16 162.868 262.995 162.239 262.664C161.62 262.333 161.135 261.843 160.783 261.192C160.441 260.531 160.271 259.725 160.271 258.776C160.271 257.837 160.425 257.032 160.735 256.36C161.055 255.688 161.497 255.171 162.063 254.808C162.639 254.445 163.305 254.264 164.063 254.264ZM164.047 255.416C163.375 255.416 162.841 255.635 162.447 256.072C162.063 256.499 161.833 257.096 161.759 257.864H166.127C166.116 257.139 165.945 256.552 165.615 256.104C165.284 255.645 164.761 255.416 164.047 255.416ZM181.298 263L179.922 259.464H175.394L174.034 263H172.578L177.042 251.528H178.338L182.786 263H181.298ZM178.21 254.728C178.178 254.643 178.125 254.488 178.05 254.264C177.975 254.04 177.901 253.811 177.826 253.576C177.762 253.331 177.709 253.144 177.666 253.016C177.591 253.347 177.506 253.672 177.41 253.992C177.314 254.301 177.234 254.547 177.17 254.728L175.874 258.184H179.49L178.21 254.728ZM191.325 254.424V263H190.173L189.965 261.864H189.901C189.624 262.312 189.24 262.643 188.749 262.856C188.258 263.059 187.736 263.16 187.181 263.16C186.146 263.16 185.368 262.915 184.845 262.424C184.322 261.923 184.061 261.128 184.061 260.04V254.424H185.485V259.944C185.485 261.309 186.12 261.992 187.389 261.992C188.338 261.992 188.994 261.725 189.357 261.192C189.73 260.659 189.917 259.891 189.917 258.888V254.424H191.325ZM197.088 263.16C196.021 263.16 195.168 262.792 194.528 262.056C193.888 261.309 193.568 260.2 193.568 258.728C193.568 257.256 193.888 256.147 194.528 255.4C195.178 254.643 196.037 254.264 197.104 254.264C197.765 254.264 198.304 254.387 198.72 254.632C199.146 254.877 199.493 255.176 199.76 255.528H199.856C199.845 255.389 199.824 255.187 199.792 254.92C199.77 254.643 199.76 254.424 199.76 254.264V250.84H201.168V263H200.032L199.824 261.848H199.76C199.504 262.211 199.162 262.52 198.736 262.776C198.309 263.032 197.76 263.16 197.088 263.16ZM197.312 261.992C198.218 261.992 198.853 261.747 199.216 261.256C199.589 260.755 199.776 260.003 199.776 259V258.744C199.776 257.677 199.6 256.861 199.248 256.296C198.896 255.72 198.245 255.432 197.296 255.432C196.538 255.432 195.968 255.736 195.584 256.344C195.21 256.941 195.024 257.747 195.024 258.76C195.024 259.784 195.21 260.579 195.584 261.144C195.968 261.709 196.544 261.992 197.312 261.992ZM204.611 251.208C204.825 251.208 205.011 251.283 205.171 251.432C205.342 251.571 205.427 251.795 205.427 252.104C205.427 252.403 205.342 252.627 205.171 252.776C205.011 252.925 204.825 253 204.611 253C204.377 253 204.179 252.925 204.019 252.776C203.859 252.627 203.779 252.403 203.779 252.104C203.779 251.795 203.859 251.571 204.019 251.432C204.179 251.283 204.377 251.208 204.611 251.208ZM205.299 254.424V263H203.891V254.424H205.299ZM210.88 262.008C211.094 262.008 211.312 261.992 211.536 261.96C211.76 261.917 211.942 261.875 212.08 261.832V262.904C211.931 262.979 211.718 263.037 211.44 263.08C211.163 263.133 210.896 263.16 210.64 263.16C210.192 263.16 209.776 263.085 209.392 262.936C209.019 262.776 208.715 262.504 208.48 262.12C208.246 261.736 208.128 261.197 208.128 260.504V255.512H206.912V254.84L208.144 254.28L208.704 252.456H209.536V254.424H212.016V255.512H209.536V260.472C209.536 260.995 209.659 261.384 209.904 261.64C210.16 261.885 210.486 262.008 210.88 262.008ZM219.382 260.632C219.382 261.464 219.072 262.093 218.454 262.52C217.835 262.947 217.003 263.16 215.958 263.16C215.36 263.16 214.843 263.112 214.406 263.016C213.979 262.92 213.6 262.787 213.27 262.616V261.336C213.611 261.507 214.022 261.667 214.502 261.816C214.992 261.955 215.488 262.024 215.99 262.024C216.704 262.024 217.222 261.912 217.542 261.688C217.862 261.453 218.022 261.144 218.022 260.76C218.022 260.547 217.963 260.355 217.846 260.184C217.728 260.013 217.515 259.843 217.206 259.672C216.907 259.501 216.475 259.309 215.91 259.096C215.355 258.883 214.88 258.669 214.486 258.456C214.091 258.243 213.787 257.987 213.574 257.688C213.36 257.389 213.254 257.005 213.254 256.536C213.254 255.811 213.547 255.251 214.134 254.856C214.731 254.461 215.51 254.264 216.47 254.264C216.992 254.264 217.478 254.317 217.926 254.424C218.384 254.52 218.811 254.659 219.206 254.84L218.726 255.96C218.363 255.811 217.984 255.683 217.59 255.576C217.195 255.469 216.79 255.416 216.374 255.416C215.798 255.416 215.355 255.512 215.046 255.704C214.747 255.885 214.598 256.136 214.598 256.456C214.598 256.691 214.667 256.893 214.806 257.064C214.944 257.224 215.174 257.384 215.494 257.544C215.824 257.693 216.262 257.875 216.806 258.088C217.35 258.291 217.814 258.499 218.198 258.712C218.582 258.925 218.875 259.187 219.078 259.496C219.28 259.795 219.382 260.173 219.382 260.632ZM229.114 251.4C229.967 251.4 230.639 251.619 231.13 252.056C231.631 252.483 231.882 253.085 231.882 253.864C231.882 254.536 231.663 255.107 231.226 255.576C230.799 256.045 230.255 256.472 229.594 256.856L232.682 259.832C232.959 259.501 233.183 259.123 233.354 258.696C233.535 258.259 233.685 257.789 233.802 257.288H235.226C235.055 257.971 234.842 258.605 234.586 259.192C234.33 259.779 233.999 260.291 233.594 260.728L235.93 263H234.026L232.634 261.656C232.133 262.104 231.573 262.467 230.954 262.744C230.335 263.021 229.583 263.16 228.698 263.16C227.599 263.16 226.725 262.888 226.074 262.344C225.423 261.8 225.098 261.027 225.098 260.024C225.098 259.203 225.317 258.547 225.754 258.056C226.202 257.555 226.805 257.091 227.562 256.664C227.221 256.28 226.901 255.869 226.602 255.432C226.314 254.995 226.17 254.483 226.17 253.896C226.17 253.107 226.431 252.493 226.954 252.056C227.487 251.619 228.207 251.4 229.114 251.4ZM229.066 252.552C228.618 252.552 228.25 252.669 227.962 252.904C227.685 253.139 227.546 253.464 227.546 253.88C227.546 254.264 227.647 254.621 227.85 254.952C228.053 255.272 228.346 255.629 228.73 256.024C229.359 255.661 229.807 255.32 230.074 255C230.351 254.669 230.49 254.291 230.49 253.864C230.49 253.48 230.362 253.165 230.106 252.92C229.85 252.675 229.503 252.552 229.066 252.552ZM228.41 257.544C227.834 257.885 227.381 258.232 227.05 258.584C226.73 258.936 226.57 259.4 226.57 259.976C226.57 260.563 226.767 261.032 227.162 261.384C227.557 261.736 228.085 261.912 228.746 261.912C229.429 261.912 230.015 261.8 230.506 261.576C230.997 261.352 231.407 261.085 231.738 260.776L228.41 257.544ZM245.293 263H243.853V252.84H240.285V251.576H248.845V252.84H245.293V263ZM253.579 254.264C253.739 254.264 253.909 254.275 254.091 254.296C254.283 254.307 254.448 254.328 254.587 254.36L254.411 255.656C254.272 255.624 254.117 255.597 253.947 255.576C253.787 255.555 253.632 255.544 253.483 255.544C253.045 255.544 252.635 255.667 252.251 255.912C251.867 256.147 251.557 256.483 251.323 256.92C251.099 257.347 250.987 257.848 250.987 258.424V263H249.579V254.424H250.731L250.891 255.992H250.955C251.232 255.523 251.589 255.117 252.027 254.776C252.464 254.435 252.981 254.264 253.579 254.264ZM259.124 254.28C260.169 254.28 260.942 254.509 261.444 254.968C261.945 255.427 262.196 256.157 262.196 257.16V263H261.172L260.9 261.784H260.836C260.462 262.253 260.068 262.6 259.652 262.824C259.246 263.048 258.681 263.16 257.956 263.16C257.177 263.16 256.532 262.957 256.02 262.552C255.508 262.136 255.252 261.491 255.252 260.616C255.252 259.763 255.588 259.107 256.26 258.648C256.932 258.179 257.966 257.923 259.364 257.88L260.82 257.832V257.32C260.82 256.605 260.665 256.109 260.356 255.832C260.046 255.555 259.609 255.416 259.044 255.416C258.596 255.416 258.169 255.485 257.764 255.624C257.358 255.752 256.98 255.901 256.628 256.072L256.196 255.016C256.569 254.813 257.012 254.643 257.524 254.504C258.036 254.355 258.569 254.28 259.124 254.28ZM259.54 258.856C258.473 258.899 257.732 259.069 257.316 259.368C256.91 259.667 256.708 260.088 256.708 260.632C256.708 261.112 256.852 261.464 257.14 261.688C257.438 261.912 257.817 262.024 258.276 262.024C259.001 262.024 259.604 261.827 260.084 261.432C260.564 261.027 260.804 260.408 260.804 259.576V258.808L259.54 258.856ZM265.564 251.208C265.778 251.208 265.964 251.283 266.124 251.432C266.295 251.571 266.38 251.795 266.38 252.104C266.38 252.403 266.295 252.627 266.124 252.776C265.964 252.925 265.778 253 265.564 253C265.33 253 265.132 252.925 264.972 252.776C264.812 252.627 264.732 252.403 264.732 252.104C264.732 251.795 264.812 251.571 264.972 251.432C265.132 251.283 265.33 251.208 265.564 251.208ZM266.252 254.424V263H264.844V254.424H266.252ZM273.097 254.264C274.121 254.264 274.895 254.515 275.417 255.016C275.94 255.507 276.201 256.307 276.201 257.416V263H274.809V257.512C274.809 256.136 274.169 255.448 272.889 255.448C271.94 255.448 271.284 255.715 270.921 256.248C270.559 256.781 270.377 257.549 270.377 258.552V263H268.969V254.424H270.105L270.313 255.592H270.393C270.671 255.144 271.055 254.813 271.545 254.6C272.036 254.376 272.553 254.264 273.097 254.264ZM279.58 251.208C279.793 251.208 279.98 251.283 280.14 251.432C280.311 251.571 280.396 251.795 280.396 252.104C280.396 252.403 280.311 252.627 280.14 252.776C279.98 252.925 279.793 253 279.58 253C279.345 253 279.148 252.925 278.988 252.776C278.828 252.627 278.748 252.403 278.748 252.104C278.748 251.795 278.828 251.571 278.988 251.432C279.148 251.283 279.345 251.208 279.58 251.208ZM280.268 254.424V263H278.86V254.424H280.268ZM287.113 254.264C288.137 254.264 288.91 254.515 289.433 255.016C289.956 255.507 290.217 256.307 290.217 257.416V263H288.825V257.512C288.825 256.136 288.185 255.448 286.905 255.448C285.956 255.448 285.3 255.715 284.937 256.248C284.574 256.781 284.393 257.549 284.393 258.552V263H282.985V254.424H284.121L284.329 255.592H284.409C284.686 255.144 285.07 254.813 285.561 254.6C286.052 254.376 286.569 254.264 287.113 254.264ZM295.916 254.264C296.481 254.264 296.988 254.371 297.436 254.584C297.894 254.797 298.284 255.123 298.604 255.56H298.684L298.876 254.424H299.996V263.144C299.996 264.371 299.681 265.293 299.052 265.912C298.433 266.531 297.468 266.84 296.156 266.84C294.897 266.84 293.868 266.659 293.068 266.296V265C293.91 265.448 294.966 265.672 296.236 265.672C296.972 265.672 297.548 265.453 297.964 265.016C298.39 264.589 298.604 264.003 298.604 263.256V262.92C298.604 262.792 298.609 262.611 298.62 262.376C298.63 262.131 298.641 261.96 298.652 261.864H298.588C298.012 262.728 297.126 263.16 295.932 263.16C294.822 263.16 293.953 262.771 293.324 261.992C292.705 261.213 292.396 260.125 292.396 258.728C292.396 257.363 292.705 256.28 293.324 255.48C293.953 254.669 294.817 254.264 295.916 254.264ZM296.108 255.448C295.393 255.448 294.838 255.736 294.444 256.312C294.049 256.877 293.852 257.688 293.852 258.744C293.852 259.8 294.044 260.611 294.428 261.176C294.822 261.731 295.393 262.008 296.14 262.008C297.004 262.008 297.633 261.779 298.028 261.32C298.422 260.851 298.62 260.099 298.62 259.064V258.728C298.62 257.555 298.417 256.717 298.012 256.216C297.606 255.704 296.972 255.448 296.108 255.448Z" fill="#163A24"/>
<path d="M84.576 325.576C86.0693 325.576 87.1573 325.869 87.84 326.456C88.5227 327.043 88.864 327.869 88.864 328.936C88.864 329.565 88.72 330.157 88.432 330.712C88.1547 331.256 87.68 331.699 87.008 332.04C86.3467 332.381 85.4453 332.552 84.304 332.552H82.992V337H81.552V325.576H84.576ZM84.448 326.808H82.992V331.32H84.144C85.232 331.32 86.0427 331.144 86.576 330.792C87.1093 330.44 87.376 329.843 87.376 329C87.376 328.264 87.1413 327.715 86.672 327.352C86.2027 326.989 85.4613 326.808 84.448 326.808ZM98.5035 332.696C98.5035 334.115 98.1408 335.213 97.4155 335.992C96.7008 336.771 95.7302 337.16 94.5035 337.16C93.7462 337.16 93.0688 336.989 92.4715 336.648C91.8848 336.296 91.4208 335.789 91.0795 335.128C90.7382 334.456 90.5675 333.645 90.5675 332.696C90.5675 331.277 90.9248 330.184 91.6395 329.416C92.3542 328.648 93.3248 328.264 94.5515 328.264C95.3302 328.264 96.0128 328.44 96.5995 328.792C97.1968 329.133 97.6608 329.635 97.9915 330.296C98.3328 330.947 98.5035 331.747 98.5035 332.696ZM92.0235 332.696C92.0235 333.709 92.2208 334.515 92.6155 335.112C93.0208 335.699 93.6608 335.992 94.5355 335.992C95.3995 335.992 96.0342 335.699 96.4395 335.112C96.8448 334.515 97.0475 333.709 97.0475 332.696C97.0475 331.683 96.8448 330.888 96.4395 330.312C96.0342 329.736 95.3942 329.448 94.5195 329.448C93.6448 329.448 93.0102 329.736 92.6155 330.312C92.2208 330.888 92.0235 331.683 92.0235 332.696ZM102.143 337H100.735V324.84H102.143V337ZM105.58 325.208C105.793 325.208 105.98 325.283 106.14 325.432C106.311 325.571 106.396 325.795 106.396 326.104C106.396 326.403 106.311 326.627 106.14 326.776C105.98 326.925 105.793 327 105.58 327C105.345 327 105.148 326.925 104.988 326.776C104.828 326.627 104.748 326.403 104.748 326.104C104.748 325.795 104.828 325.571 104.988 325.432C105.148 325.283 105.345 325.208 105.58 325.208ZM106.268 328.424V337H104.86V328.424H106.268ZM112.425 337.16C111.668 337.16 110.99 337.005 110.393 336.696C109.806 336.387 109.342 335.907 109.001 335.256C108.67 334.605 108.505 333.773 108.505 332.76C108.505 331.704 108.681 330.845 109.033 330.184C109.385 329.523 109.86 329.037 110.457 328.728C111.065 328.419 111.753 328.264 112.521 328.264C112.958 328.264 113.38 328.312 113.785 328.408C114.19 328.493 114.521 328.6 114.777 328.728L114.345 329.896C114.089 329.8 113.79 329.709 113.449 329.624C113.108 329.539 112.788 329.496 112.489 329.496C110.804 329.496 109.961 330.579 109.961 332.744C109.961 333.779 110.164 334.573 110.569 335.128C110.985 335.672 111.598 335.944 112.409 335.944C112.878 335.944 113.289 335.896 113.641 335.8C114.004 335.704 114.334 335.587 114.633 335.448V336.696C114.345 336.845 114.025 336.957 113.673 337.032C113.332 337.117 112.916 337.16 112.425 337.16ZM115.329 328.424H116.833L118.689 333.304C118.849 333.731 118.993 334.141 119.121 334.536C119.249 334.92 119.345 335.288 119.409 335.64H119.473C119.537 335.373 119.638 335.027 119.777 334.6C119.915 334.163 120.059 333.725 120.209 333.288L121.953 328.424H123.473L119.777 338.184C119.478 338.995 119.089 339.64 118.609 340.12C118.139 340.6 117.489 340.84 116.657 340.84C116.401 340.84 116.177 340.824 115.985 340.792C115.793 340.771 115.627 340.744 115.489 340.712V339.592C115.606 339.613 115.745 339.635 115.905 339.656C116.075 339.677 116.251 339.688 116.433 339.688C116.923 339.688 117.318 339.549 117.617 339.272C117.926 338.995 118.166 338.627 118.337 338.168L118.785 337.032L115.329 328.424ZM138.329 331.176C138.329 333.107 137.801 334.563 136.745 335.544C135.7 336.515 134.238 337 132.361 337H129.177V325.576H132.697C133.849 325.576 134.846 325.789 135.689 326.216C136.532 326.643 137.182 327.272 137.641 328.104C138.1 328.925 138.329 329.949 138.329 331.176ZM136.809 331.224C136.809 329.699 136.43 328.584 135.673 327.88C134.926 327.165 133.865 326.808 132.489 326.808H130.617V335.768H132.169C135.262 335.768 136.809 334.253 136.809 331.224ZM144.673 328.264C144.833 328.264 145.003 328.275 145.185 328.296C145.377 328.307 145.542 328.328 145.681 328.36L145.505 329.656C145.366 329.624 145.211 329.597 145.041 329.576C144.881 329.555 144.726 329.544 144.577 329.544C144.139 329.544 143.729 329.667 143.345 329.912C142.961 330.147 142.651 330.483 142.417 330.92C142.193 331.347 142.081 331.848 142.081 332.424V337H140.673V328.424H141.825L141.985 329.992H142.049C142.326 329.523 142.683 329.117 143.121 328.776C143.558 328.435 144.075 328.264 144.673 328.264ZM150.217 328.28C151.263 328.28 152.036 328.509 152.537 328.968C153.039 329.427 153.289 330.157 153.289 331.16V337H152.265L151.993 335.784H151.929C151.556 336.253 151.161 336.6 150.745 336.824C150.34 337.048 149.775 337.16 149.049 337.16C148.271 337.16 147.625 336.957 147.113 336.552C146.601 336.136 146.345 335.491 146.345 334.616C146.345 333.763 146.681 333.107 147.353 332.648C148.025 332.179 149.06 331.923 150.457 331.88L151.913 331.832V331.32C151.913 330.605 151.759 330.109 151.449 329.832C151.14 329.555 150.703 329.416 150.137 329.416C149.689 329.416 149.263 329.485 148.857 329.624C148.452 329.752 148.073 329.901 147.721 330.072L147.289 329.016C147.663 328.813 148.105 328.643 148.617 328.504C149.129 328.355 149.663 328.28 150.217 328.28ZM150.633 332.856C149.567 332.899 148.825 333.069 148.409 333.368C148.004 333.667 147.801 334.088 147.801 334.632C147.801 335.112 147.945 335.464 148.233 335.688C148.532 335.912 148.911 336.024 149.369 336.024C150.095 336.024 150.697 335.827 151.177 335.432C151.657 335.027 151.897 334.408 151.897 333.576V332.808L150.633 332.856ZM159.89 329.512H157.73V337H156.322V329.512H154.818V328.856L156.322 328.376V327.88C156.322 326.771 156.567 325.976 157.058 325.496C157.549 325.005 158.231 324.76 159.106 324.76C159.447 324.76 159.757 324.792 160.034 324.856C160.322 324.909 160.567 324.973 160.77 325.048L160.402 326.152C160.231 326.099 160.034 326.045 159.81 325.992C159.586 325.939 159.357 325.912 159.122 325.912C158.653 325.912 158.301 326.072 158.066 326.392C157.842 326.701 157.73 327.192 157.73 327.864V328.424H159.89V329.512ZM164.302 336.008C164.515 336.008 164.734 335.992 164.958 335.96C165.182 335.917 165.363 335.875 165.502 335.832V336.904C165.353 336.979 165.139 337.037 164.862 337.08C164.585 337.133 164.318 337.16 164.062 337.16C163.614 337.16 163.198 337.085 162.814 336.936C162.441 336.776 162.137 336.504 161.902 336.12C161.667 335.736 161.55 335.197 161.55 334.504V329.512H160.334V328.84L161.566 328.28L162.126 326.456H162.958V328.424H165.438V329.512H162.958V334.472C162.958 334.995 163.081 335.384 163.326 335.64C163.582 335.885 163.907 336.008 164.302 336.008ZM167.939 325.208C168.153 325.208 168.339 325.283 168.499 325.432C168.67 325.571 168.755 325.795 168.755 326.104C168.755 326.403 168.67 326.627 168.499 326.776C168.339 326.925 168.153 327 167.939 327C167.705 327 167.507 326.925 167.347 326.776C167.187 326.627 167.107 326.403 167.107 326.104C167.107 325.795 167.187 325.571 167.347 325.432C167.507 325.283 167.705 325.208 167.939 325.208ZM168.627 328.424V337H167.219V328.424H168.627ZM175.472 328.264C176.496 328.264 177.27 328.515 177.792 329.016C178.315 329.507 178.576 330.307 178.576 331.416V337H177.184V331.512C177.184 330.136 176.544 329.448 175.264 329.448C174.315 329.448 173.659 329.715 173.296 330.248C172.934 330.781 172.752 331.549 172.752 332.552V337H171.344V328.424H172.48L172.688 329.592H172.768C173.046 329.144 173.43 328.813 173.92 328.6C174.411 328.376 174.928 328.264 175.472 328.264ZM184.275 328.264C184.84 328.264 185.347 328.371 185.795 328.584C186.254 328.797 186.643 329.123 186.963 329.56H187.043L187.235 328.424H188.355V337.144C188.355 338.371 188.04 339.293 187.411 339.912C186.792 340.531 185.827 340.84 184.515 340.84C183.256 340.84 182.227 340.659 181.427 340.296V339C182.27 339.448 183.326 339.672 184.595 339.672C185.331 339.672 185.907 339.453 186.323 339.016C186.75 338.589 186.963 338.003 186.963 337.256V336.92C186.963 336.792 186.968 336.611 186.979 336.376C186.99 336.131 187 335.96 187.011 335.864H186.947C186.371 336.728 185.486 337.16 184.291 337.16C183.182 337.16 182.312 336.771 181.683 335.992C181.064 335.213 180.755 334.125 180.755 332.728C180.755 331.363 181.064 330.28 181.683 329.48C182.312 328.669 183.176 328.264 184.275 328.264ZM184.467 329.448C183.752 329.448 183.198 329.736 182.803 330.312C182.408 330.877 182.211 331.688 182.211 332.744C182.211 333.8 182.403 334.611 182.787 335.176C183.182 335.731 183.752 336.008 184.499 336.008C185.363 336.008 185.992 335.779 186.387 335.32C186.782 334.851 186.979 334.099 186.979 333.064V332.728C186.979 331.555 186.776 330.717 186.371 330.216C185.966 329.704 185.331 329.448 184.467 329.448Z" fill="#163A24"/>
<circle cx="65" cy="257" r="4" fill="#163A24"/>
<circle cx="65" cy="294" r="4" fill="#163A24"/>
<circle cx="65" cy="331" r="4" fill="#163A24"/>
<defs>
<filter id="filter0_d_1_1225" x="0" y="0" width="393" height="433" filterUnits="userSpaceOnUse" color-interpolation-filters="sRGB">
<feFlood flood-opacity="0" result="BackgroundImageFix"/>
<feColorMatrix in="SourceAlpha" type="matrix" values="0 0 0 0 0 0 0 0 0 0 0 0 0 0 0 0 0 0 127 0" result="hardAlpha"/>
<feOffset dx="5" dy="5"/>
<feGaussianBlur stdDeviation="10"/>
<feColorMatrix type="matrix" values="0 0 0 0 0.913725 0 0 0 0 0.894118 0 0 0 0 0.835294 0 0 0 1 0"/>
<feBlend mode="normal" in2="BackgroundImageFix" result="effect1_dropShadow_1_1225"/>
<feBlend mode="normal" in="SourceGraphic" in2="effect1_dropShadow_1_1225" result="shape"/>
</filter>
<clipPath id="clip0_1_1225">
<rect width="62" height="75" fill="white" transform="translate(55 65)"/>
</clipPath>
</defs>
</svg>
