<svg width="393" height="433" viewBox="0 0 393 433" fill="none" xmlns="http://www.w3.org/2000/svg">
<g filter="url(#filter0_d_1_1252)">
<path d="M15 30C15 21.7157 21.7157 15 30 15H353C361.284 15 368 21.7157 368 30V393C368 401.284 361.284 408 353 408H30C21.7157 408 15 401.284 15 393V30Z" fill="#FBFAF7"/>
</g>
<path d="M81.24 68.0462C75.418 70.5983 70.252 74.7147 67.136 79.7366C59.346 92.3327 59.428 111.433 72.63 120.406C88.62 131.273 116.91 125.758 118.796 103.529C120.682 81.1362 105.266 57.673 81.24 68.0462Z" fill="#F7BC28"/>
<path d="M83.946 74.55C79.6 76.4435 75.828 79.4896 73.532 83.1944C67.71 92.5797 67.792 106.74 77.632 113.408C89.522 121.476 110.514 117.36 111.908 100.895C113.22 84.3469 101.822 66.8936 83.946 74.55Z" fill="#FBFAF7"/>
<path d="M103.708 117.689C107.726 122.794 110.186 125.263 113.958 128.392C116.664 130.615 119.37 132.837 121.994 135.06C124.208 136.872 126.832 138.847 129.62 138.353C132.572 137.859 134.622 134.402 133.638 131.52C133.31 130.532 132.654 129.627 131.916 128.803C126.832 122.3 120.928 116.454 114.368 111.35L103.708 117.689Z" fill="#F7BC28"/>
<path d="M118.14 131.767L127.57 123.452L129.374 125.51L120.19 133.414L118.14 131.767Z" fill="#E48929"/>
<path d="M121.42 134.566L130.358 126.828L131.916 128.803L123.306 136.131L121.42 134.566Z" fill="#E48929"/>
<path d="M94.672 251.576L91.632 263H90.176L87.952 255.512C87.8667 255.203 87.7813 254.893 87.696 254.584C87.6107 254.275 87.5413 254.003 87.488 253.768C87.4347 253.523 87.3973 253.352 87.376 253.256C87.3653 253.395 87.3067 253.693 87.2 254.152C87.104 254.6 86.9813 255.069 86.832 255.56L84.672 263H83.216L80.192 251.576H81.696L83.472 258.552C83.6 259.043 83.7067 259.517 83.792 259.976C83.888 260.435 83.9627 260.867 84.016 261.272C84.0693 260.856 84.1493 260.403 84.256 259.912C84.3627 259.421 84.4853 258.941 84.624 258.472L86.64 251.576H88.128L90.224 258.52C90.3733 259.011 90.5013 259.501 90.608 259.992C90.7147 260.472 90.7947 260.899 90.848 261.272C90.9013 260.877 90.976 260.451 91.072 259.992C91.168 259.523 91.28 259.037 91.408 258.536L93.168 251.576H94.672ZM103.378 258.696C103.378 260.115 103.016 261.213 102.291 261.992C101.576 262.771 100.605 263.16 99.3785 263.16C98.6212 263.16 97.9438 262.989 97.3465 262.648C96.7598 262.296 96.2958 261.789 95.9545 261.128C95.6132 260.456 95.4425 259.645 95.4425 258.696C95.4425 257.277 95.7998 256.184 96.5145 255.416C97.2292 254.648 98.1998 254.264 99.4265 254.264C100.205 254.264 100.888 254.44 101.475 254.792C102.072 255.133 102.536 255.635 102.867 256.296C103.208 256.947 103.378 257.747 103.378 258.696ZM96.8985 258.696C96.8985 259.709 97.0958 260.515 97.4905 261.112C97.8958 261.699 98.5358 261.992 99.4105 261.992C100.275 261.992 100.909 261.699 101.315 261.112C101.72 260.515 101.923 259.709 101.923 258.696C101.923 257.683 101.72 256.888 101.315 256.312C100.909 255.736 100.269 255.448 99.3945 255.448C98.5198 255.448 97.8852 255.736 97.4905 256.312C97.0958 256.888 96.8985 257.683 96.8985 258.696ZM109.61 254.264C109.77 254.264 109.941 254.275 110.122 254.296C110.314 254.307 110.479 254.328 110.618 254.36L110.442 255.656C110.303 255.624 110.149 255.597 109.978 255.576C109.818 255.555 109.663 255.544 109.514 255.544C109.077 255.544 108.666 255.667 108.282 255.912C107.898 256.147 107.589 256.483 107.354 256.92C107.13 257.347 107.018 257.848 107.018 258.424V263H105.61V254.424H106.762L106.922 255.992H106.986C107.263 255.523 107.621 255.117 108.058 254.776C108.495 254.435 109.013 254.264 109.61 254.264ZM113.611 257.192C113.611 257.363 113.601 257.587 113.579 257.864C113.569 258.141 113.558 258.381 113.547 258.584H113.611C113.675 258.499 113.771 258.376 113.899 258.216C114.027 258.056 114.155 257.896 114.283 257.736C114.422 257.565 114.539 257.427 114.635 257.32L117.371 254.424H119.019L115.547 258.088L119.259 263H117.563L114.587 259L113.611 259.848V263H112.219V250.84H113.611V257.192ZM128.139 251.576C129.632 251.576 130.72 251.869 131.403 252.456C132.085 253.043 132.427 253.869 132.427 254.936C132.427 255.565 132.283 256.157 131.995 256.712C131.717 257.256 131.243 257.699 130.571 258.04C129.909 258.381 129.008 258.552 127.867 258.552H126.555V263H125.115V251.576H128.139ZM128.011 252.808H126.555V257.32H127.707C128.795 257.32 129.605 257.144 130.139 256.792C130.672 256.44 130.939 255.843 130.939 255C130.939 254.264 130.704 253.715 130.235 253.352C129.765 252.989 129.024 252.808 128.011 252.808ZM136.018 263H134.61V250.84H136.018V263ZM141.983 254.28C143.028 254.28 143.802 254.509 144.303 254.968C144.804 255.427 145.055 256.157 145.055 257.16V263H144.031L143.759 261.784H143.695C143.322 262.253 142.927 262.6 142.511 262.824C142.106 263.048 141.54 263.16 140.815 263.16C140.036 263.16 139.391 262.957 138.879 262.552C138.367 262.136 138.111 261.491 138.111 260.616C138.111 259.763 138.447 259.107 139.119 258.648C139.791 258.179 140.826 257.923 142.223 257.88L143.679 257.832V257.32C143.679 256.605 143.524 256.109 143.215 255.832C142.906 255.555 142.468 255.416 141.903 255.416C141.455 255.416 141.028 255.485 140.623 255.624C140.218 255.752 139.839 255.901 139.487 256.072L139.055 255.016C139.428 254.813 139.871 254.643 140.383 254.504C140.895 254.355 141.428 254.28 141.983 254.28ZM142.399 258.856C141.332 258.899 140.591 259.069 140.175 259.368C139.77 259.667 139.567 260.088 139.567 260.632C139.567 261.112 139.711 261.464 139.999 261.688C140.298 261.912 140.676 262.024 141.135 262.024C141.86 262.024 142.463 261.827 142.943 261.432C143.423 261.027 143.663 260.408 143.663 259.576V258.808L142.399 258.856ZM151.144 263.16C150.386 263.16 149.709 263.005 149.112 262.696C148.525 262.387 148.061 261.907 147.72 261.256C147.389 260.605 147.224 259.773 147.224 258.76C147.224 257.704 147.4 256.845 147.752 256.184C148.104 255.523 148.578 255.037 149.176 254.728C149.784 254.419 150.472 254.264 151.24 254.264C151.677 254.264 152.098 254.312 152.504 254.408C152.909 254.493 153.24 254.6 153.496 254.728L153.064 255.896C152.808 255.8 152.509 255.709 152.168 255.624C151.826 255.539 151.506 255.496 151.208 255.496C149.522 255.496 148.68 256.579 148.68 258.744C148.68 259.779 148.882 260.573 149.288 261.128C149.704 261.672 150.317 261.944 151.128 261.944C151.597 261.944 152.008 261.896 152.36 261.8C152.722 261.704 153.053 261.587 153.352 261.448V262.696C153.064 262.845 152.744 262.957 152.392 263.032C152.05 263.117 151.634 263.16 151.144 263.16ZM158.703 254.264C159.439 254.264 160.069 254.424 160.591 254.744C161.125 255.064 161.53 255.517 161.807 256.104C162.095 256.68 162.239 257.357 162.239 258.136V258.984H156.367C156.389 259.955 156.634 260.696 157.103 261.208C157.583 261.709 158.25 261.96 159.103 261.96C159.647 261.96 160.127 261.912 160.543 261.816C160.97 261.709 161.407 261.56 161.855 261.368V262.6C161.418 262.792 160.986 262.931 160.559 263.016C160.133 263.112 159.626 263.16 159.039 263.16C158.229 263.16 157.509 262.995 156.879 262.664C156.261 262.333 155.775 261.843 155.423 261.192C155.082 260.531 154.911 259.725 154.911 258.776C154.911 257.837 155.066 257.032 155.375 256.36C155.695 255.688 156.138 255.171 156.703 254.808C157.279 254.445 157.946 254.264 158.703 254.264ZM158.687 255.416C158.015 255.416 157.482 255.635 157.087 256.072C156.703 256.499 156.474 257.096 156.399 257.864H160.767C160.757 257.139 160.586 256.552 160.255 256.104C159.925 255.645 159.402 255.416 158.687 255.416ZM171.987 263H167.859V262.168L169.203 261.864V252.728L167.859 252.408V251.576H171.987V252.408L170.643 252.728V261.864L171.987 262.168V263ZM178.129 254.264C179.153 254.264 179.926 254.515 180.449 255.016C180.971 255.507 181.233 256.307 181.233 257.416V263H179.841V257.512C179.841 256.136 179.201 255.448 177.921 255.448C176.971 255.448 176.315 255.715 175.953 256.248C175.59 256.781 175.409 257.549 175.409 258.552V263H174.001V254.424H175.137L175.345 255.592H175.425C175.702 255.144 176.086 254.813 176.577 254.6C177.067 254.376 177.585 254.264 178.129 254.264ZM185.779 263L182.531 254.424H184.035L185.859 259.48C185.945 259.715 186.035 259.976 186.131 260.264C186.227 260.552 186.313 260.829 186.387 261.096C186.462 261.352 186.515 261.571 186.547 261.752H186.611C186.654 261.571 186.713 261.347 186.787 261.08C186.873 260.813 186.963 260.536 187.059 260.248C187.166 259.96 187.257 259.704 187.331 259.48L189.155 254.424H190.659L187.395 263H185.779ZM195.328 254.264C196.064 254.264 196.694 254.424 197.216 254.744C197.75 255.064 198.155 255.517 198.432 256.104C198.72 256.68 198.864 257.357 198.864 258.136V258.984H192.992C193.014 259.955 193.259 260.696 193.728 261.208C194.208 261.709 194.875 261.96 195.728 261.96C196.272 261.96 196.752 261.912 197.168 261.816C197.595 261.709 198.032 261.56 198.48 261.368V262.6C198.043 262.792 197.611 262.931 197.184 263.016C196.758 263.112 196.251 263.16 195.664 263.16C194.854 263.16 194.134 262.995 193.504 262.664C192.886 262.333 192.4 261.843 192.048 261.192C191.707 260.531 191.536 259.725 191.536 258.776C191.536 257.837 191.691 257.032 192 256.36C192.32 255.688 192.763 255.171 193.328 254.808C193.904 254.445 194.571 254.264 195.328 254.264ZM195.312 255.416C194.64 255.416 194.107 255.635 193.712 256.072C193.328 256.499 193.099 257.096 193.024 257.864H197.392C197.382 257.139 197.211 256.552 196.88 256.104C196.55 255.645 196.027 255.416 195.312 255.416ZM206.632 260.632C206.632 261.464 206.322 262.093 205.704 262.52C205.085 262.947 204.253 263.16 203.208 263.16C202.61 263.16 202.093 263.112 201.656 263.016C201.229 262.92 200.85 262.787 200.52 262.616V261.336C200.861 261.507 201.272 261.667 201.752 261.816C202.242 261.955 202.738 262.024 203.24 262.024C203.954 262.024 204.472 261.912 204.792 261.688C205.112 261.453 205.272 261.144 205.272 260.76C205.272 260.547 205.213 260.355 205.096 260.184C204.978 260.013 204.765 259.843 204.456 259.672C204.157 259.501 203.725 259.309 203.16 259.096C202.605 258.883 202.13 258.669 201.736 258.456C201.341 258.243 201.037 257.987 200.824 257.688C200.61 257.389 200.504 257.005 200.504 256.536C200.504 255.811 200.797 255.251 201.384 254.856C201.981 254.461 202.76 254.264 203.72 254.264C204.242 254.264 204.728 254.317 205.176 254.424C205.634 254.52 206.061 254.659 206.456 254.84L205.976 255.96C205.613 255.811 205.234 255.683 204.84 255.576C204.445 255.469 204.04 255.416 203.624 255.416C203.048 255.416 202.605 255.512 202.296 255.704C201.997 255.885 201.848 256.136 201.848 256.456C201.848 256.691 201.917 256.893 202.056 257.064C202.194 257.224 202.424 257.384 202.744 257.544C203.074 257.693 203.512 257.875 204.056 258.088C204.6 258.291 205.064 258.499 205.448 258.712C205.832 258.925 206.125 259.187 206.328 259.496C206.53 259.795 206.632 260.173 206.632 260.632ZM211.568 262.008C211.781 262.008 212 261.992 212.224 261.96C212.448 261.917 212.629 261.875 212.768 261.832V262.904C212.618 262.979 212.405 263.037 212.128 263.08C211.85 263.133 211.584 263.16 211.328 263.16C210.88 263.16 210.464 263.085 210.08 262.936C209.706 262.776 209.402 262.504 209.168 262.12C208.933 261.736 208.816 261.197 208.816 260.504V255.512H207.6V254.84L208.832 254.28L209.392 252.456H210.224V254.424H212.704V255.512H210.224V260.472C210.224 260.995 210.346 261.384 210.592 261.64C210.848 261.885 211.173 262.008 211.568 262.008ZM215.205 251.208C215.418 251.208 215.605 251.283 215.765 251.432C215.936 251.571 216.021 251.795 216.021 252.104C216.021 252.403 215.936 252.627 215.765 252.776C215.605 252.925 215.418 253 215.205 253C214.97 253 214.773 252.925 214.613 252.776C214.453 252.627 214.373 252.403 214.373 252.104C214.373 251.795 214.453 251.571 214.613 251.432C214.773 251.283 214.97 251.208 215.205 251.208ZM215.893 254.424V263H214.485V254.424H215.893ZM221.65 254.264C222.215 254.264 222.722 254.371 223.17 254.584C223.629 254.797 224.018 255.123 224.338 255.56H224.418L224.61 254.424H225.73V263.144C225.73 264.371 225.415 265.293 224.786 265.912C224.167 266.531 223.202 266.84 221.89 266.84C220.631 266.84 219.602 266.659 218.802 266.296V265C219.645 265.448 220.701 265.672 221.97 265.672C222.706 265.672 223.282 265.453 223.698 265.016C224.125 264.589 224.338 264.003 224.338 263.256V262.92C224.338 262.792 224.343 262.611 224.354 262.376C224.365 262.131 224.375 261.96 224.386 261.864H224.322C223.746 262.728 222.861 263.16 221.666 263.16C220.557 263.16 219.687 262.771 219.058 261.992C218.439 261.213 218.13 260.125 218.13 258.728C218.13 257.363 218.439 256.28 219.058 255.48C219.687 254.669 220.551 254.264 221.65 254.264ZM221.842 255.448C221.127 255.448 220.573 255.736 220.178 256.312C219.783 256.877 219.586 257.688 219.586 258.744C219.586 259.8 219.778 260.611 220.162 261.176C220.557 261.731 221.127 262.008 221.874 262.008C222.738 262.008 223.367 261.779 223.762 261.32C224.157 260.851 224.354 260.099 224.354 259.064V258.728C224.354 257.555 224.151 256.717 223.746 256.216C223.341 255.704 222.706 255.448 221.842 255.448ZM231.702 254.28C232.747 254.28 233.52 254.509 234.022 254.968C234.523 255.427 234.774 256.157 234.774 257.16V263H233.75L233.478 261.784H233.414C233.04 262.253 232.646 262.6 232.23 262.824C231.824 263.048 231.259 263.16 230.534 263.16C229.755 263.16 229.11 262.957 228.598 262.552C228.086 262.136 227.83 261.491 227.83 260.616C227.83 259.763 228.166 259.107 228.838 258.648C229.51 258.179 230.544 257.923 231.942 257.88L233.398 257.832V257.32C233.398 256.605 233.243 256.109 232.934 255.832C232.624 255.555 232.187 255.416 231.622 255.416C231.174 255.416 230.747 255.485 230.342 255.624C229.936 255.752 229.558 255.901 229.206 256.072L228.774 255.016C229.147 254.813 229.59 254.643 230.102 254.504C230.614 254.355 231.147 254.28 231.702 254.28ZM232.118 258.856C231.051 258.899 230.31 259.069 229.894 259.368C229.488 259.667 229.286 260.088 229.286 260.632C229.286 261.112 229.43 261.464 229.718 261.688C230.016 261.912 230.395 262.024 230.854 262.024C231.579 262.024 232.182 261.827 232.662 261.432C233.142 261.027 233.382 260.408 233.382 259.576V258.808L232.118 258.856ZM240.286 262.008C240.5 262.008 240.719 261.992 240.943 261.96C241.167 261.917 241.348 261.875 241.487 261.832V262.904C241.337 262.979 241.124 263.037 240.847 263.08C240.569 263.133 240.303 263.16 240.047 263.16C239.599 263.16 239.183 263.085 238.799 262.936C238.425 262.776 238.121 262.504 237.887 262.12C237.652 261.736 237.535 261.197 237.535 260.504V255.512H236.319V254.84L237.551 254.28L238.111 252.456H238.943V254.424H241.423V255.512H238.943V260.472C238.943 260.995 239.065 261.384 239.311 261.64C239.567 261.885 239.892 262.008 240.286 262.008ZM243.924 251.208C244.137 251.208 244.324 251.283 244.484 251.432C244.654 251.571 244.74 251.795 244.74 252.104C244.74 252.403 244.654 252.627 244.484 252.776C244.324 252.925 244.137 253 243.924 253C243.689 253 243.492 252.925 243.332 252.776C243.172 252.627 243.092 252.403 243.092 252.104C243.092 251.795 243.172 251.571 243.332 251.432C243.492 251.283 243.689 251.208 243.924 251.208ZM244.612 254.424V263H243.204V254.424H244.612ZM254.785 258.696C254.785 260.115 254.422 261.213 253.697 261.992C252.982 262.771 252.011 263.16 250.785 263.16C250.027 263.16 249.35 262.989 248.753 262.648C248.166 262.296 247.702 261.789 247.361 261.128C247.019 260.456 246.849 259.645 246.849 258.696C246.849 257.277 247.206 256.184 247.921 255.416C248.635 254.648 249.606 254.264 250.833 254.264C251.611 254.264 252.294 254.44 252.881 254.792C253.478 255.133 253.942 255.635 254.273 256.296C254.614 256.947 254.785 257.747 254.785 258.696ZM248.305 258.696C248.305 259.709 248.502 260.515 248.897 261.112C249.302 261.699 249.942 261.992 250.817 261.992C251.681 261.992 252.315 261.699 252.721 261.112C253.126 260.515 253.329 259.709 253.329 258.696C253.329 257.683 253.126 256.888 252.721 256.312C252.315 255.736 251.675 255.448 250.801 255.448C249.926 255.448 249.291 255.736 248.897 256.312C248.502 256.888 248.305 257.683 248.305 258.696ZM261.144 254.264C262.168 254.264 262.942 254.515 263.464 255.016C263.987 255.507 264.248 256.307 264.248 257.416V263H262.856V257.512C262.856 256.136 262.216 255.448 260.936 255.448C259.987 255.448 259.331 255.715 258.968 256.248C258.606 256.781 258.424 257.549 258.424 258.552V263H257.016V254.424H258.152L258.36 255.592H258.44C258.718 255.144 259.102 254.813 259.592 254.6C260.083 254.376 260.6 254.264 261.144 254.264ZM272.491 260.632C272.491 261.464 272.182 262.093 271.563 262.52C270.944 262.947 270.112 263.16 269.067 263.16C268.47 263.16 267.952 263.112 267.515 263.016C267.088 262.92 266.71 262.787 266.379 262.616V261.336C266.72 261.507 267.131 261.667 267.611 261.816C268.102 261.955 268.598 262.024 269.099 262.024C269.814 262.024 270.331 261.912 270.651 261.688C270.971 261.453 271.131 261.144 271.131 260.76C271.131 260.547 271.072 260.355 270.955 260.184C270.838 260.013 270.624 259.843 270.315 259.672C270.016 259.501 269.584 259.309 269.019 259.096C268.464 258.883 267.99 258.669 267.595 258.456C267.2 258.243 266.896 257.987 266.683 257.688C266.47 257.389 266.363 257.005 266.363 256.536C266.363 255.811 266.656 255.251 267.243 254.856C267.84 254.461 268.619 254.264 269.579 254.264C270.102 254.264 270.587 254.317 271.035 254.424C271.494 254.52 271.92 254.659 272.315 254.84L271.835 255.96C271.472 255.811 271.094 255.683 270.699 255.576C270.304 255.469 269.899 255.416 269.483 255.416C268.907 255.416 268.464 255.512 268.155 255.704C267.856 255.885 267.707 256.136 267.707 256.456C267.707 256.691 267.776 256.893 267.915 257.064C268.054 257.224 268.283 257.384 268.603 257.544C268.934 257.693 269.371 257.875 269.915 258.088C270.459 258.291 270.923 258.499 271.307 258.712C271.691 258.925 271.984 259.187 272.187 259.496C272.39 259.795 272.491 260.173 272.491 260.632Z" fill="#163A24"/>
<path d="M84.576 325.576C86.0693 325.576 87.1573 325.869 87.84 326.456C88.5227 327.043 88.864 327.869 88.864 328.936C88.864 329.565 88.72 330.157 88.432 330.712C88.1547 331.256 87.68 331.699 87.008 332.04C86.3467 332.381 85.4453 332.552 84.304 332.552H82.992V337H81.552V325.576H84.576ZM84.448 326.808H82.992V331.32H84.144C85.232 331.32 86.0427 331.144 86.576 330.792C87.1093 330.44 87.376 329.843 87.376 329C87.376 328.264 87.1413 327.715 86.672 327.352C86.2027 326.989 85.4613 326.808 84.448 326.808ZM94.3595 328.264C95.0955 328.264 95.7248 328.424 96.2475 328.744C96.7808 329.064 97.1862 329.517 97.4635 330.104C97.7515 330.68 97.8955 331.357 97.8955 332.136V332.984H92.0235C92.0448 333.955 92.2902 334.696 92.7595 335.208C93.2395 335.709 93.9062 335.96 94.7595 335.96C95.3035 335.96 95.7835 335.912 96.1995 335.816C96.6262 335.709 97.0635 335.56 97.5115 335.368V336.6C97.0742 336.792 96.6422 336.931 96.2155 337.016C95.7888 337.112 95.2822 337.16 94.6955 337.16C93.8848 337.16 93.1648 336.995 92.5355 336.664C91.9168 336.333 91.4315 335.843 91.0795 335.192C90.7382 334.531 90.5675 333.725 90.5675 332.776C90.5675 331.837 90.7222 331.032 91.0315 330.36C91.3515 329.688 91.7942 329.171 92.3595 328.808C92.9355 328.445 93.6022 328.264 94.3595 328.264ZM94.3435 329.416C93.6715 329.416 93.1382 329.635 92.7435 330.072C92.3595 330.499 92.1302 331.096 92.0555 331.864H96.4235C96.4128 331.139 96.2422 330.552 95.9115 330.104C95.5808 329.645 95.0582 329.416 94.3435 329.416ZM104.079 328.264C104.239 328.264 104.409 328.275 104.591 328.296C104.783 328.307 104.948 328.328 105.087 328.36L104.911 329.656C104.772 329.624 104.617 329.597 104.447 329.576C104.287 329.555 104.132 329.544 103.983 329.544C103.545 329.544 103.135 329.667 102.751 329.912C102.367 330.147 102.057 330.483 101.823 330.92C101.599 331.347 101.487 331.848 101.487 332.424V337H100.079V328.424H101.231L101.391 329.992H101.455C101.732 329.523 102.089 329.117 102.527 328.776C102.964 328.435 103.481 328.264 104.079 328.264ZM110.64 329.512H108.48V337H107.072V329.512H105.568V328.856L107.072 328.376V327.88C107.072 326.771 107.317 325.976 107.808 325.496C108.299 325.005 108.981 324.76 109.856 324.76C110.197 324.76 110.507 324.792 110.784 324.856C111.072 324.909 111.317 324.973 111.52 325.048L111.152 326.152C110.981 326.099 110.784 326.045 110.56 325.992C110.336 325.939 110.107 325.912 109.872 325.912C109.403 325.912 109.051 326.072 108.816 326.392C108.592 326.701 108.48 327.192 108.48 327.864V328.424H110.64V329.512ZM119.644 332.696C119.644 334.115 119.281 335.213 118.556 335.992C117.841 336.771 116.871 337.16 115.644 337.16C114.887 337.16 114.209 336.989 113.612 336.648C113.025 336.296 112.561 335.789 112.22 335.128C111.879 334.456 111.708 333.645 111.708 332.696C111.708 331.277 112.065 330.184 112.78 329.416C113.495 328.648 114.465 328.264 115.692 328.264C116.471 328.264 117.153 328.44 117.74 328.792C118.337 329.133 118.801 329.635 119.132 330.296C119.473 330.947 119.644 331.747 119.644 332.696ZM113.164 332.696C113.164 333.709 113.361 334.515 113.756 335.112C114.161 335.699 114.801 335.992 115.676 335.992C116.54 335.992 117.175 335.699 117.58 335.112C117.985 334.515 118.188 333.709 118.188 332.696C118.188 331.683 117.985 330.888 117.58 330.312C117.175 329.736 116.535 329.448 115.66 329.448C114.785 329.448 114.151 329.736 113.756 330.312C113.361 330.888 113.164 331.683 113.164 332.696ZM125.876 328.264C126.036 328.264 126.206 328.275 126.388 328.296C126.58 328.307 126.745 328.328 126.884 328.36L126.708 329.656C126.569 329.624 126.414 329.597 126.244 329.576C126.084 329.555 125.929 329.544 125.78 329.544C125.342 329.544 124.932 329.667 124.548 329.912C124.164 330.147 123.854 330.483 123.62 330.92C123.396 331.347 123.284 331.848 123.284 332.424V337H121.876V328.424H123.028L123.188 329.992H123.252C123.529 329.523 123.886 329.117 124.324 328.776C124.761 328.435 125.278 328.264 125.876 328.264ZM137.893 328.264C138.864 328.264 139.589 328.515 140.069 329.016C140.549 329.507 140.789 330.307 140.789 331.416V337H139.397V331.48C139.397 330.125 138.816 329.448 137.653 329.448C136.821 329.448 136.224 329.688 135.861 330.168C135.509 330.648 135.333 331.347 135.333 332.264V337H133.941V331.48C133.941 330.125 133.354 329.448 132.181 329.448C131.317 329.448 130.72 329.715 130.389 330.248C130.058 330.781 129.893 331.549 129.893 332.552V337H128.485V328.424H129.621L129.829 329.592H129.909C130.176 329.144 130.533 328.813 130.981 328.6C131.44 328.376 131.925 328.264 132.437 328.264C133.781 328.264 134.656 328.744 135.061 329.704H135.141C135.429 329.213 135.818 328.851 136.309 328.616C136.81 328.381 137.338 328.264 137.893 328.264ZM146.686 328.28C147.731 328.28 148.505 328.509 149.006 328.968C149.507 329.427 149.758 330.157 149.758 331.16V337H148.734L148.462 335.784H148.398C148.025 336.253 147.63 336.6 147.214 336.824C146.809 337.048 146.243 337.16 145.518 337.16C144.739 337.16 144.094 336.957 143.582 336.552C143.07 336.136 142.814 335.491 142.814 334.616C142.814 333.763 143.15 333.107 143.822 332.648C144.494 332.179 145.529 331.923 146.926 331.88L148.382 331.832V331.32C148.382 330.605 148.227 330.109 147.918 329.832C147.609 329.555 147.171 329.416 146.606 329.416C146.158 329.416 145.731 329.485 145.326 329.624C144.921 329.752 144.542 329.901 144.19 330.072L143.758 329.016C144.131 328.813 144.574 328.643 145.086 328.504C145.598 328.355 146.131 328.28 146.686 328.28ZM147.102 332.856C146.035 332.899 145.294 333.069 144.878 333.368C144.473 333.667 144.27 334.088 144.27 334.632C144.27 335.112 144.414 335.464 144.702 335.688C145.001 335.912 145.379 336.024 145.838 336.024C146.563 336.024 147.166 335.827 147.646 335.432C148.126 335.027 148.366 334.408 148.366 333.576V332.808L147.102 332.856ZM156.535 328.264C157.559 328.264 158.332 328.515 158.855 329.016C159.378 329.507 159.639 330.307 159.639 331.416V337H158.247V331.512C158.247 330.136 157.607 329.448 156.327 329.448C155.378 329.448 154.722 329.715 154.359 330.248C153.996 330.781 153.815 331.549 153.815 332.552V337H152.407V328.424H153.543L153.751 329.592H153.831C154.108 329.144 154.492 328.813 154.983 328.6C155.474 328.376 155.991 328.264 156.535 328.264ZM165.738 337.16C164.98 337.16 164.303 337.005 163.706 336.696C163.119 336.387 162.655 335.907 162.314 335.256C161.983 334.605 161.818 333.773 161.818 332.76C161.818 331.704 161.994 330.845 162.346 330.184C162.698 329.523 163.172 329.037 163.77 328.728C164.378 328.419 165.066 328.264 165.834 328.264C166.271 328.264 166.692 328.312 167.098 328.408C167.503 328.493 167.834 328.6 168.09 328.728L167.658 329.896C167.402 329.8 167.103 329.709 166.762 329.624C166.42 329.539 166.1 329.496 165.802 329.496C164.116 329.496 163.274 330.579 163.274 332.744C163.274 333.779 163.476 334.573 163.882 335.128C164.298 335.672 164.911 335.944 165.722 335.944C166.191 335.944 166.602 335.896 166.954 335.8C167.316 335.704 167.647 335.587 167.946 335.448V336.696C167.658 336.845 167.338 336.957 166.986 337.032C166.644 337.117 166.228 337.16 165.738 337.16ZM173.297 328.264C174.033 328.264 174.662 328.424 175.185 328.744C175.718 329.064 176.124 329.517 176.401 330.104C176.689 330.68 176.833 331.357 176.833 332.136V332.984H170.961C170.982 333.955 171.228 334.696 171.697 335.208C172.177 335.709 172.844 335.96 173.697 335.96C174.241 335.96 174.721 335.912 175.137 335.816C175.564 335.709 176.001 335.56 176.449 335.368V336.6C176.012 336.792 175.58 336.931 175.153 337.016C174.726 337.112 174.22 337.16 173.633 337.16C172.822 337.16 172.102 336.995 171.473 336.664C170.854 336.333 170.369 335.843 170.017 335.192C169.676 334.531 169.505 333.725 169.505 332.776C169.505 331.837 169.66 331.032 169.969 330.36C170.289 329.688 170.732 329.171 171.297 328.808C171.873 328.445 172.54 328.264 173.297 328.264ZM173.281 329.416C172.609 329.416 172.076 329.635 171.681 330.072C171.297 330.499 171.068 331.096 170.993 331.864H175.361C175.35 331.139 175.18 330.552 174.849 330.104C174.518 329.645 173.996 329.416 173.281 329.416ZM186.981 337H185.541V326.84H181.973V325.576H190.533V326.84H186.981V337ZM195.266 328.264C195.426 328.264 195.597 328.275 195.778 328.296C195.97 328.307 196.136 328.328 196.274 328.36L196.098 329.656C195.96 329.624 195.805 329.597 195.634 329.576C195.474 329.555 195.32 329.544 195.17 329.544C194.733 329.544 194.322 329.667 193.938 329.912C193.554 330.147 193.245 330.483 193.01 330.92C192.786 331.347 192.674 331.848 192.674 332.424V337H191.266V328.424H192.418L192.578 329.992H192.642C192.92 329.523 193.277 329.117 193.714 328.776C194.152 328.435 194.669 328.264 195.266 328.264ZM200.811 328.28C201.856 328.28 202.63 328.509 203.131 328.968C203.632 329.427 203.883 330.157 203.883 331.16V337H202.859L202.587 335.784H202.523C202.15 336.253 201.755 336.6 201.339 336.824C200.934 337.048 200.368 337.16 199.643 337.16C198.864 337.16 198.219 336.957 197.707 336.552C197.195 336.136 196.939 335.491 196.939 334.616C196.939 333.763 197.275 333.107 197.947 332.648C198.619 332.179 199.654 331.923 201.051 331.88L202.507 331.832V331.32C202.507 330.605 202.352 330.109 202.043 329.832C201.734 329.555 201.296 329.416 200.731 329.416C200.283 329.416 199.856 329.485 199.451 329.624C199.046 329.752 198.667 329.901 198.315 330.072L197.883 329.016C198.256 328.813 198.699 328.643 199.211 328.504C199.723 328.355 200.256 328.28 200.811 328.28ZM201.227 332.856C200.16 332.899 199.419 333.069 199.003 333.368C198.598 333.667 198.395 334.088 198.395 334.632C198.395 335.112 198.539 335.464 198.827 335.688C199.126 335.912 199.504 336.024 199.963 336.024C200.688 336.024 201.291 335.827 201.771 335.432C202.251 335.027 202.491 334.408 202.491 333.576V332.808L201.227 332.856ZM209.972 337.16C209.215 337.16 208.537 337.005 207.94 336.696C207.353 336.387 206.889 335.907 206.548 335.256C206.217 334.605 206.052 333.773 206.052 332.76C206.052 331.704 206.228 330.845 206.58 330.184C206.932 329.523 207.407 329.037 208.004 328.728C208.612 328.419 209.3 328.264 210.068 328.264C210.505 328.264 210.927 328.312 211.332 328.408C211.737 328.493 212.068 328.6 212.324 328.728L211.892 329.896C211.636 329.8 211.337 329.709 210.996 329.624C210.655 329.539 210.335 329.496 210.036 329.496C208.351 329.496 207.508 330.579 207.508 332.744C207.508 333.779 207.711 334.573 208.116 335.128C208.532 335.672 209.145 335.944 209.956 335.944C210.425 335.944 210.836 335.896 211.188 335.8C211.551 335.704 211.881 335.587 212.18 335.448V336.696C211.892 336.845 211.572 336.957 211.22 337.032C210.879 337.117 210.463 337.16 209.972 337.16ZM215.611 331.192C215.611 331.363 215.601 331.587 215.579 331.864C215.569 332.141 215.558 332.381 215.547 332.584H215.611C215.675 332.499 215.771 332.376 215.899 332.216C216.027 332.056 216.155 331.896 216.283 331.736C216.422 331.565 216.539 331.427 216.635 331.32L219.371 328.424H221.019L217.547 332.088L221.259 337H219.563L216.587 333L215.611 333.848V337H214.219V324.84H215.611V331.192ZM223.486 325.208C223.7 325.208 223.886 325.283 224.046 325.432C224.217 325.571 224.302 325.795 224.302 326.104C224.302 326.403 224.217 326.627 224.046 326.776C223.886 326.925 223.7 327 223.486 327C223.252 327 223.054 326.925 222.894 326.776C222.734 326.627 222.654 326.403 222.654 326.104C222.654 325.795 222.734 325.571 222.894 325.432C223.054 325.283 223.252 325.208 223.486 325.208ZM224.174 328.424V337H222.766V328.424H224.174ZM231.019 328.264C232.043 328.264 232.817 328.515 233.339 329.016C233.862 329.507 234.123 330.307 234.123 331.416V337H232.731V331.512C232.731 330.136 232.091 329.448 230.811 329.448C229.862 329.448 229.206 329.715 228.843 330.248C228.481 330.781 228.299 331.549 228.299 332.552V337H226.891V328.424H228.027L228.235 329.592H228.315C228.593 329.144 228.977 328.813 229.467 328.6C229.958 328.376 230.475 328.264 231.019 328.264ZM239.822 328.264C240.387 328.264 240.894 328.371 241.342 328.584C241.801 328.797 242.19 329.123 242.51 329.56H242.59L242.782 328.424H243.902V337.144C243.902 338.371 243.587 339.293 242.958 339.912C242.339 340.531 241.374 340.84 240.062 340.84C238.803 340.84 237.774 340.659 236.974 340.296V339C237.817 339.448 238.873 339.672 240.142 339.672C240.878 339.672 241.454 339.453 241.87 339.016C242.297 338.589 242.51 338.003 242.51 337.256V336.92C242.51 336.792 242.515 336.611 242.526 336.376C242.537 336.131 242.547 335.96 242.558 335.864H242.494C241.918 336.728 241.033 337.16 239.838 337.16C238.729 337.16 237.859 336.771 237.23 335.992C236.611 335.213 236.302 334.125 236.302 332.728C236.302 331.363 236.611 330.28 237.23 329.48C237.859 328.669 238.723 328.264 239.822 328.264ZM240.014 329.448C239.299 329.448 238.745 329.736 238.35 330.312C237.955 330.877 237.758 331.688 237.758 332.744C237.758 333.8 237.95 334.611 238.334 335.176C238.729 335.731 239.299 336.008 240.046 336.008C240.91 336.008 241.539 335.779 241.934 335.32C242.329 334.851 242.526 334.099 242.526 333.064V332.728C242.526 331.555 242.323 330.717 241.918 330.216C241.513 329.704 240.878 329.448 240.014 329.448Z" fill="#163A24"/>
<path d="M87.936 300H81.552V288.576H87.936V289.84H82.992V293.408H87.648V294.656H82.992V298.736H87.936V300ZM99.6586 291.264C100.629 291.264 101.355 291.515 101.835 292.016C102.315 292.507 102.555 293.307 102.555 294.416V300H101.163V294.48C101.163 293.125 100.581 292.448 99.4186 292.448C98.5866 292.448 97.9893 292.688 97.6266 293.168C97.2746 293.648 97.0986 294.347 97.0986 295.264V300H95.7066V294.48C95.7066 293.125 95.12 292.448 93.9466 292.448C93.0826 292.448 92.4853 292.715 92.1546 293.248C91.824 293.781 91.6586 294.549 91.6586 295.552V300H90.2506V291.424H91.3866L91.5946 292.592H91.6746C91.9413 292.144 92.2986 291.813 92.7466 291.6C93.2053 291.376 93.6906 291.264 94.2026 291.264C95.5466 291.264 96.4213 291.744 96.8266 292.704H96.9066C97.1946 292.213 97.584 291.851 98.0746 291.616C98.576 291.381 99.104 291.264 99.6586 291.264ZM109.284 291.264C110.34 291.264 111.188 291.632 111.828 292.368C112.478 293.104 112.804 294.213 112.804 295.696C112.804 297.157 112.478 298.267 111.828 299.024C111.188 299.781 110.334 300.16 109.268 300.16C108.606 300.16 108.057 300.037 107.62 299.792C107.193 299.536 106.857 299.243 106.612 298.912H106.516C106.537 299.093 106.558 299.323 106.58 299.6C106.601 299.877 106.612 300.117 106.612 300.32V303.84H105.204V291.424H106.356L106.548 292.592H106.612C106.868 292.219 107.204 291.904 107.62 291.648C108.036 291.392 108.59 291.264 109.284 291.264ZM109.028 292.448C108.153 292.448 107.534 292.693 107.172 293.184C106.82 293.675 106.633 294.421 106.612 295.424V295.696C106.612 296.752 106.782 297.568 107.124 298.144C107.476 298.709 108.121 298.992 109.06 298.992C109.582 298.992 110.009 298.848 110.34 298.56C110.681 298.272 110.932 297.883 111.092 297.392C111.262 296.891 111.348 296.32 111.348 295.68C111.348 294.699 111.156 293.915 110.772 293.328C110.398 292.741 109.817 292.448 109.028 292.448ZM116.456 300H115.048V287.84H116.456V300ZM126.628 295.696C126.628 297.115 126.266 298.213 125.541 298.992C124.826 299.771 123.855 300.16 122.629 300.16C121.871 300.16 121.194 299.989 120.597 299.648C120.01 299.296 119.546 298.789 119.205 298.128C118.863 297.456 118.693 296.645 118.693 295.696C118.693 294.277 119.05 293.184 119.765 292.416C120.479 291.648 121.45 291.264 122.677 291.264C123.455 291.264 124.138 291.44 124.725 291.792C125.322 292.133 125.786 292.635 126.117 293.296C126.458 293.947 126.628 294.747 126.628 295.696ZM120.149 295.696C120.149 296.709 120.346 297.515 120.741 298.112C121.146 298.699 121.786 298.992 122.661 298.992C123.525 298.992 124.159 298.699 124.565 298.112C124.97 297.515 125.173 296.709 125.173 295.696C125.173 294.683 124.97 293.888 124.565 293.312C124.159 292.736 123.519 292.448 122.645 292.448C121.77 292.448 121.135 292.736 120.741 293.312C120.346 293.888 120.149 294.683 120.149 295.696ZM127.204 291.424H128.708L130.564 296.304C130.724 296.731 130.868 297.141 130.996 297.536C131.124 297.92 131.22 298.288 131.284 298.64H131.348C131.412 298.373 131.513 298.027 131.652 297.6C131.79 297.163 131.934 296.725 132.084 296.288L133.828 291.424H135.348L131.652 301.184C131.353 301.995 130.964 302.64 130.484 303.12C130.014 303.6 129.364 303.84 128.532 303.84C128.276 303.84 128.052 303.824 127.86 303.792C127.668 303.771 127.502 303.744 127.364 303.712V302.592C127.481 302.613 127.62 302.635 127.78 302.656C127.95 302.677 128.126 302.688 128.308 302.688C128.798 302.688 129.193 302.549 129.492 302.272C129.801 301.995 130.041 301.627 130.212 301.168L130.66 300.032L127.204 291.424ZM140.016 291.264C140.752 291.264 141.381 291.424 141.904 291.744C142.437 292.064 142.842 292.517 143.12 293.104C143.408 293.68 143.552 294.357 143.552 295.136V295.984H137.68C137.701 296.955 137.946 297.696 138.416 298.208C138.896 298.709 139.562 298.96 140.416 298.96C140.96 298.96 141.44 298.912 141.856 298.816C142.282 298.709 142.72 298.56 143.168 298.368V299.6C142.73 299.792 142.298 299.931 141.872 300.016C141.445 300.112 140.938 300.16 140.352 300.16C139.541 300.16 138.821 299.995 138.192 299.664C137.573 299.333 137.088 298.843 136.736 298.192C136.394 297.531 136.224 296.725 136.224 295.776C136.224 294.837 136.378 294.032 136.688 293.36C137.008 292.688 137.45 292.171 138.016 291.808C138.592 291.445 139.258 291.264 140.016 291.264ZM140 292.416C139.328 292.416 138.794 292.635 138.4 293.072C138.016 293.499 137.786 294.096 137.712 294.864H142.08C142.069 294.139 141.898 293.552 141.568 293.104C141.237 292.645 140.714 292.416 140 292.416ZM149.047 291.264C149.783 291.264 150.412 291.424 150.935 291.744C151.468 292.064 151.874 292.517 152.151 293.104C152.439 293.68 152.583 294.357 152.583 295.136V295.984H146.711C146.732 296.955 146.978 297.696 147.447 298.208C147.927 298.709 148.594 298.96 149.447 298.96C149.991 298.96 150.471 298.912 150.887 298.816C151.314 298.709 151.751 298.56 152.199 298.368V299.6C151.762 299.792 151.33 299.931 150.903 300.016C150.476 300.112 149.97 300.16 149.383 300.16C148.572 300.16 147.852 299.995 147.223 299.664C146.604 299.333 146.119 298.843 145.767 298.192C145.426 297.531 145.255 296.725 145.255 295.776C145.255 294.837 145.41 294.032 145.719 293.36C146.039 292.688 146.482 292.171 147.047 291.808C147.623 291.445 148.29 291.264 149.047 291.264ZM149.031 292.416C148.359 292.416 147.826 292.635 147.431 293.072C147.047 293.499 146.818 294.096 146.743 294.864H151.111C151.1 294.139 150.93 293.552 150.599 293.104C150.268 292.645 149.746 292.416 149.031 292.416ZM164.155 300L160.395 289.984H160.331C160.363 290.315 160.389 290.763 160.411 291.328C160.432 291.883 160.443 292.464 160.443 293.072V300H159.115V288.576H161.243L164.763 297.936H164.827L168.411 288.576H170.523V300H169.099V292.976C169.099 292.421 169.109 291.872 169.131 291.328C169.163 290.784 169.189 290.341 169.211 290H169.147L165.339 300H164.155ZM176.75 291.264C177.486 291.264 178.115 291.424 178.638 291.744C179.171 292.064 179.577 292.517 179.854 293.104C180.142 293.68 180.286 294.357 180.286 295.136V295.984H174.414C174.435 296.955 174.681 297.696 175.15 298.208C175.63 298.709 176.297 298.96 177.15 298.96C177.694 298.96 178.174 298.912 178.59 298.816C179.017 298.709 179.454 298.56 179.902 298.368V299.6C179.465 299.792 179.033 299.931 178.606 300.016C178.179 300.112 177.673 300.16 177.086 300.16C176.275 300.16 175.555 299.995 174.926 299.664C174.307 299.333 173.822 298.843 173.47 298.192C173.129 297.531 172.958 296.725 172.958 295.776C172.958 294.837 173.113 294.032 173.422 293.36C173.742 292.688 174.185 292.171 174.75 291.808C175.326 291.445 175.993 291.264 176.75 291.264ZM176.734 292.416C176.062 292.416 175.529 292.635 175.134 293.072C174.75 293.499 174.521 294.096 174.446 294.864H178.814C178.803 294.139 178.633 293.552 178.302 293.104C177.971 292.645 177.449 292.416 176.734 292.416ZM185.509 300.16C184.443 300.16 183.589 299.792 182.949 299.056C182.309 298.309 181.989 297.2 181.989 295.728C181.989 294.256 182.309 293.147 182.949 292.4C183.6 291.643 184.459 291.264 185.525 291.264C186.187 291.264 186.725 291.387 187.141 291.632C187.568 291.877 187.915 292.176 188.181 292.528H188.277C188.267 292.389 188.245 292.187 188.213 291.92C188.192 291.643 188.181 291.424 188.181 291.264V287.84H189.589V300H188.453L188.245 298.848H188.181C187.925 299.211 187.584 299.52 187.157 299.776C186.731 300.032 186.181 300.16 185.509 300.16ZM185.733 298.992C186.64 298.992 187.275 298.747 187.637 298.256C188.011 297.755 188.197 297.003 188.197 296V295.744C188.197 294.677 188.021 293.861 187.669 293.296C187.317 292.72 186.667 292.432 185.717 292.432C184.96 292.432 184.389 292.736 184.005 293.344C183.632 293.941 183.445 294.747 183.445 295.76C183.445 296.784 183.632 297.579 184.005 298.144C184.389 298.709 184.965 298.992 185.733 298.992ZM193.033 288.208C193.246 288.208 193.433 288.283 193.593 288.432C193.764 288.571 193.849 288.795 193.849 289.104C193.849 289.403 193.764 289.627 193.593 289.776C193.433 289.925 193.246 290 193.033 290C192.798 290 192.601 289.925 192.441 289.776C192.281 289.627 192.201 289.403 192.201 289.104C192.201 288.795 192.281 288.571 192.441 288.432C192.601 288.283 192.798 288.208 193.033 288.208ZM193.721 291.424V300H192.313V291.424H193.721ZM199.686 291.28C200.731 291.28 201.505 291.509 202.006 291.968C202.507 292.427 202.758 293.157 202.758 294.16V300H201.734L201.462 298.784H201.398C201.025 299.253 200.63 299.6 200.214 299.824C199.809 300.048 199.243 300.16 198.518 300.16C197.739 300.16 197.094 299.957 196.582 299.552C196.07 299.136 195.814 298.491 195.814 297.616C195.814 296.763 196.15 296.107 196.822 295.648C197.494 295.179 198.529 294.923 199.926 294.88L201.382 294.832V294.32C201.382 293.605 201.227 293.109 200.918 292.832C200.609 292.555 200.171 292.416 199.606 292.416C199.158 292.416 198.731 292.485 198.326 292.624C197.921 292.752 197.542 292.901 197.19 293.072L196.758 292.016C197.131 291.813 197.574 291.643 198.086 291.504C198.598 291.355 199.131 291.28 199.686 291.28ZM200.102 295.856C199.035 295.899 198.294 296.069 197.878 296.368C197.473 296.667 197.27 297.088 197.27 297.632C197.27 298.112 197.414 298.464 197.702 298.688C198.001 298.912 198.379 299.024 198.838 299.024C199.563 299.024 200.166 298.827 200.646 298.432C201.126 298.027 201.366 297.408 201.366 296.576V295.808L200.102 295.856ZM208.271 299.008C208.484 299.008 208.703 298.992 208.927 298.96C209.151 298.917 209.332 298.875 209.471 298.832V299.904C209.322 299.979 209.108 300.037 208.831 300.08C208.554 300.133 208.287 300.16 208.031 300.16C207.583 300.16 207.167 300.085 206.783 299.936C206.41 299.776 206.106 299.504 205.871 299.12C205.636 298.736 205.519 298.197 205.519 297.504V292.512H204.303V291.84L205.535 291.28L206.095 289.456H206.927V291.424H209.407V292.512H206.927V297.472C206.927 297.995 207.05 298.384 207.295 298.64C207.551 298.885 207.876 299.008 208.271 299.008ZM211.908 288.208C212.121 288.208 212.308 288.283 212.468 288.432C212.639 288.571 212.724 288.795 212.724 289.104C212.724 289.403 212.639 289.627 212.468 289.776C212.308 289.925 212.121 290 211.908 290C211.673 290 211.476 289.925 211.316 289.776C211.156 289.627 211.076 289.403 211.076 289.104C211.076 288.795 211.156 288.571 211.316 288.432C211.476 288.283 211.673 288.208 211.908 288.208ZM212.596 291.424V300H211.188V291.424H212.596ZM222.769 295.696C222.769 297.115 222.406 298.213 221.681 298.992C220.966 299.771 219.996 300.16 218.769 300.16C218.012 300.16 217.334 299.989 216.737 299.648C216.15 299.296 215.686 298.789 215.345 298.128C215.004 297.456 214.833 296.645 214.833 295.696C214.833 294.277 215.19 293.184 215.905 292.416C216.62 291.648 217.59 291.264 218.817 291.264C219.596 291.264 220.278 291.44 220.865 291.792C221.462 292.133 221.926 292.635 222.257 293.296C222.598 293.947 222.769 294.747 222.769 295.696ZM216.289 295.696C216.289 296.709 216.486 297.515 216.881 298.112C217.286 298.699 217.926 298.992 218.801 298.992C219.665 298.992 220.3 298.699 220.705 298.112C221.11 297.515 221.313 296.709 221.313 295.696C221.313 294.683 221.11 293.888 220.705 293.312C220.3 292.736 219.66 292.448 218.785 292.448C217.91 292.448 217.276 292.736 216.881 293.312C216.486 293.888 216.289 294.683 216.289 295.696ZM229.129 291.264C230.153 291.264 230.926 291.515 231.449 292.016C231.971 292.507 232.233 293.307 232.233 294.416V300H230.841V294.512C230.841 293.136 230.201 292.448 228.921 292.448C227.971 292.448 227.315 292.715 226.953 293.248C226.59 293.781 226.409 294.549 226.409 295.552V300H225.001V291.424H226.137L226.345 292.592H226.425C226.702 292.144 227.086 291.813 227.577 291.6C228.067 291.376 228.585 291.264 229.129 291.264ZM240.475 297.632C240.475 298.464 240.166 299.093 239.547 299.52C238.929 299.947 238.097 300.16 237.051 300.16C236.454 300.16 235.937 300.112 235.499 300.016C235.073 299.92 234.694 299.787 234.363 299.616V298.336C234.705 298.507 235.115 298.667 235.595 298.816C236.086 298.955 236.582 299.024 237.083 299.024C237.798 299.024 238.315 298.912 238.635 298.688C238.955 298.453 239.115 298.144 239.115 297.76C239.115 297.547 239.057 297.355 238.939 297.184C238.822 297.013 238.609 296.843 238.299 296.672C238.001 296.501 237.569 296.309 237.003 296.096C236.449 295.883 235.974 295.669 235.579 295.456C235.185 295.243 234.881 294.987 234.667 294.688C234.454 294.389 234.347 294.005 234.347 293.536C234.347 292.811 234.641 292.251 235.227 291.856C235.825 291.461 236.603 291.264 237.563 291.264C238.086 291.264 238.571 291.317 239.019 291.424C239.478 291.52 239.905 291.659 240.299 291.84L239.819 292.96C239.457 292.811 239.078 292.683 238.683 292.576C238.289 292.469 237.883 292.416 237.467 292.416C236.891 292.416 236.449 292.512 236.139 292.704C235.841 292.885 235.691 293.136 235.691 293.456C235.691 293.691 235.761 293.893 235.899 294.064C236.038 294.224 236.267 294.384 236.587 294.544C236.918 294.693 237.355 294.875 237.899 295.088C238.443 295.291 238.907 295.499 239.291 295.712C239.675 295.925 239.969 296.187 240.171 296.496C240.374 296.795 240.475 297.173 240.475 297.632Z" fill="#163A24"/>
<circle cx="59" cy="257" r="4" fill="#163A24"/>
<circle cx="59" cy="294" r="4" fill="#163A24"/>
<circle cx="59" cy="331" r="4" fill="#163A24"/>
<path d="M73.676 182.284C73.9187 182.695 74.18 183.04 74.46 183.32C74.7587 183.6 74.9827 183.815 75.132 183.964C75.2813 184.095 75.356 184.253 75.356 184.44V184.524C75.356 184.841 75.16 185 74.768 185H68.832C68.4213 185 68.216 184.841 68.216 184.524V184.44C68.216 184.272 68.328 184.076 68.552 183.852C68.776 183.628 68.944 183.432 69.056 183.264C69.1867 183.096 69.168 182.816 69 182.424L64.492 174.836L61.636 177.72V182.284C61.636 182.732 61.832 183.161 62.224 183.572C62.6347 183.964 62.84 184.253 62.84 184.44V184.524C62.84 184.841 62.6253 185 62.196 185H56.96C56.5493 185 56.344 184.841 56.344 184.524V184.44C56.344 184.253 56.5213 183.964 56.876 183.572C57.2307 183.161 57.408 182.732 57.408 182.284V167.808C57.408 167.379 57.2307 166.968 56.876 166.576C56.5213 166.165 56.344 165.867 56.344 165.68V165.568C56.344 165.269 56.5493 165.12 56.96 165.12H62.196C62.6253 165.12 62.84 165.269 62.84 165.568V165.68C62.84 165.867 62.6347 166.165 62.224 166.576C61.832 166.968 61.636 167.379 61.636 167.808V175.144L68.804 167.836C69.0467 167.612 69.1773 167.397 69.196 167.192C69.2333 166.968 69.196 166.791 69.084 166.66C68.9907 166.511 68.8787 166.343 68.748 166.156C68.636 165.969 68.58 165.811 68.58 165.68V165.568C68.58 165.269 68.7947 165.12 69.224 165.12H73.256C73.6667 165.12 73.872 165.269 73.872 165.568V165.68C73.872 165.867 73.7507 166.053 73.508 166.24C73.284 166.427 72.9573 166.669 72.528 166.968C72.0987 167.248 71.7347 167.537 71.436 167.836L67.404 171.896L73.676 182.284ZM90.3336 182.284C90.3709 182.732 90.5483 183.152 90.8656 183.544C91.1829 183.936 91.3416 184.235 91.3416 184.44V184.552C91.3416 184.869 91.1269 185.028 90.6976 185.028H85.8536C85.4243 185.028 85.2096 184.869 85.2096 184.552V184.44C85.2096 184.253 85.3776 183.964 85.7136 183.572C86.0683 183.18 86.2363 182.751 86.2176 182.284L85.9376 177.104C85.8069 174.285 84.9949 172.876 83.5016 172.876C82.7549 172.876 82.1669 173.156 81.7376 173.716C81.3269 174.276 81.1216 175.023 81.1216 175.956V182.312C81.1216 182.76 81.3176 183.18 81.7096 183.572C82.1203 183.964 82.3256 184.253 82.3256 184.44V184.552C82.3256 184.869 82.1109 185.028 81.6816 185.028H76.4736C76.0443 185.028 75.8296 184.869 75.8296 184.552V184.44C75.8296 184.253 76.0256 183.964 76.4176 183.572C76.8283 183.18 77.0336 182.76 77.0336 182.312V175.788C77.0336 175.508 76.9589 175.256 76.8096 175.032C76.6789 174.808 76.5203 174.649 76.3336 174.556C76.1656 174.444 76.0069 174.313 75.8576 174.164C75.7269 174.015 75.6616 173.865 75.6616 173.716V173.604C75.6616 173.399 75.8483 173.203 76.2216 173.016L79.5536 171.392C79.8709 171.243 80.1043 171.233 80.2536 171.364C80.4216 171.476 80.5056 171.681 80.5056 171.98V173.548C81.3083 172.036 82.6896 171.28 84.6496 171.28C86.0683 171.28 87.2723 171.756 88.2616 172.708C89.2696 173.66 89.8483 175.172 89.9976 177.244L90.3336 182.284ZM100.149 185.28C97.928 185.28 96.0893 184.599 94.6333 183.236C93.196 181.855 92.4773 180.175 92.4773 178.196C92.4773 176.199 93.1867 174.547 94.6053 173.24C96.024 171.933 97.732 171.28 99.7293 171.28C101.876 171.28 103.668 171.961 105.105 173.324C106.543 174.668 107.261 176.339 107.261 178.336C107.261 180.333 106.58 181.995 105.217 183.32C103.873 184.627 102.184 185.28 100.149 185.28ZM100.653 184.048C101.419 184.048 102.007 183.693 102.417 182.984C102.847 182.275 103.061 181.276 103.061 179.988C103.061 178.924 102.903 177.832 102.585 176.712C102.287 175.573 101.829 174.593 101.213 173.772C100.597 172.932 99.916 172.512 99.1693 172.512C97.452 172.512 96.5933 173.875 96.5933 176.6C96.5933 177.608 96.7427 178.672 97.0413 179.792C97.3587 180.912 97.8347 181.901 98.4693 182.76C99.1227 183.619 99.8507 184.048 100.653 184.048ZM127.883 171.56C128.256 171.56 128.443 171.709 128.443 172.008V172.148C128.443 172.372 128.219 172.671 127.771 173.044C127.341 173.417 127.052 173.828 126.903 174.276L123.291 184.328C123.141 184.776 122.843 185 122.395 185H121.471C120.985 185 120.677 184.776 120.547 184.328L117.971 176.04L115.367 184.328C115.217 184.776 114.909 185 114.443 185H113.799C113.351 185 113.052 184.776 112.903 184.328L108.815 174.276C108.665 173.884 108.404 173.492 108.031 173.1C107.657 172.689 107.471 172.372 107.471 172.148V172.008C107.471 171.709 107.657 171.56 108.031 171.56H113.015C113.369 171.56 113.547 171.719 113.547 172.036V172.148C113.547 172.297 113.481 172.447 113.351 172.596C113.22 172.727 113.08 172.848 112.931 172.96C112.8 173.072 112.697 173.249 112.623 173.492C112.567 173.735 112.595 174.015 112.707 174.332L114.947 180.912L117.551 172.204C117.663 171.849 117.877 171.672 118.195 171.672L119.735 171.644C120.052 171.644 120.267 171.812 120.379 172.148L122.927 180.912L125.083 174.696C125.232 174.304 125.251 173.968 125.139 173.688C125.045 173.389 124.905 173.175 124.719 173.044C124.551 172.913 124.383 172.773 124.215 172.624C124.047 172.456 123.963 172.297 123.963 172.148V172.036C123.963 171.719 124.149 171.56 124.523 171.56H127.883ZM151.051 165.12C151.462 165.12 151.667 165.269 151.667 165.568V165.68C151.667 165.904 151.443 166.203 150.995 166.576C150.566 166.949 150.22 167.36 149.959 167.808L144.695 176.908V182.312C144.695 182.741 144.891 183.161 145.283 183.572C145.675 183.964 145.871 184.253 145.871 184.44V184.524C145.871 184.841 145.666 185 145.255 185H139.963C139.552 185 139.347 184.841 139.347 184.524V184.44C139.347 184.253 139.524 183.964 139.879 183.572C140.234 183.161 140.411 182.741 140.411 182.312V177.216L134.475 167.808C134.232 167.416 133.868 167.024 133.383 166.632C132.898 166.24 132.655 165.923 132.655 165.68V165.568C132.655 165.269 132.879 165.12 133.327 165.12H139.683C140.112 165.12 140.327 165.269 140.327 165.568V165.68C140.327 165.867 140.187 166.063 139.907 166.268C139.646 166.473 139.422 166.707 139.235 166.968C139.048 167.211 139.048 167.491 139.235 167.808L143.547 175.368L147.859 167.808C148.027 167.547 148.064 167.304 147.971 167.08C147.878 166.856 147.738 166.688 147.551 166.576C147.364 166.445 147.178 166.305 146.991 166.156C146.823 165.988 146.739 165.829 146.739 165.68V165.568C146.739 165.269 146.944 165.12 147.355 165.12H151.051ZM156.942 185.28C154.721 185.28 152.882 184.599 151.426 183.236C149.989 181.855 149.27 180.175 149.27 178.196C149.27 176.199 149.98 174.547 151.398 173.24C152.817 171.933 154.525 171.28 156.522 171.28C158.669 171.28 160.461 171.961 161.898 173.324C163.336 174.668 164.054 176.339 164.054 178.336C164.054 180.333 163.373 181.995 162.01 183.32C160.666 184.627 158.977 185.28 156.942 185.28ZM157.446 184.048C158.212 184.048 158.8 183.693 159.21 182.984C159.64 182.275 159.854 181.276 159.854 179.988C159.854 178.924 159.696 177.832 159.378 176.712C159.08 175.573 158.622 174.593 158.006 173.772C157.39 172.932 156.709 172.512 155.962 172.512C154.245 172.512 153.386 173.875 153.386 176.6C153.386 177.608 153.536 178.672 153.834 179.792C154.152 180.912 154.628 181.901 155.262 182.76C155.916 183.619 156.644 184.048 157.446 184.048ZM179.345 182.144C179.345 182.648 179.41 183.031 179.541 183.292C179.69 183.535 179.849 183.675 180.017 183.712C180.185 183.731 180.334 183.787 180.465 183.88C180.614 183.973 180.689 184.132 180.689 184.356C180.689 184.897 179.858 185.168 178.197 185.168C177.375 185.168 176.759 185.037 176.349 184.776C175.957 184.496 175.742 184.02 175.705 183.348C174.921 184.636 173.567 185.28 171.645 185.28C170.133 185.28 168.882 184.776 167.893 183.768C166.922 182.741 166.437 181.304 166.437 179.456V174.724C166.437 174.257 166.25 173.828 165.877 173.436C165.522 173.025 165.345 172.745 165.345 172.596V172.512C165.345 172.176 165.541 171.98 165.933 171.924L169.461 171.392C170.226 171.299 170.609 171.467 170.609 171.896L170.525 179.876C170.525 182.415 171.299 183.684 172.849 183.684C173.539 183.684 174.109 183.385 174.557 182.788C175.023 182.172 175.257 181.379 175.257 180.408V174.724C175.257 174.257 175.07 173.828 174.697 173.436C174.323 173.025 174.137 172.745 174.137 172.596V172.512C174.137 172.176 174.323 171.98 174.697 171.924L178.281 171.392C178.99 171.317 179.345 171.485 179.345 171.896V182.144ZM190.599 171.28C191.402 171.28 192.027 171.523 192.475 172.008C192.942 172.475 193.175 173.081 193.175 173.828C193.175 175.303 192.578 176.04 191.383 176.04C190.898 176.04 190.515 175.919 190.235 175.676C189.974 175.415 189.815 175.135 189.759 174.836C189.703 174.537 189.591 174.267 189.423 174.024C189.255 173.763 189.003 173.632 188.667 173.632C188.163 173.632 187.79 173.931 187.547 174.528C187.305 175.125 187.183 175.853 187.183 176.712V182.312C187.183 182.648 187.295 182.947 187.519 183.208C187.762 183.451 187.995 183.665 188.219 183.852C188.462 184.039 188.583 184.225 188.583 184.412V184.524C188.583 184.841 188.378 185 187.967 185H182.787C182.358 185 182.143 184.841 182.143 184.524V184.412C182.143 184.225 182.321 183.936 182.675 183.544C183.049 183.152 183.235 182.741 183.235 182.312V175.76C183.235 175.312 183.021 174.911 182.591 174.556C182.162 174.201 181.947 173.931 181.947 173.744V173.632C181.947 173.371 182.143 173.147 182.535 172.96L185.895 171.392C186.493 171.112 186.791 171.299 186.791 171.952V174.052C187.426 172.204 188.695 171.28 190.599 171.28ZM199.625 184.524V184.44C199.625 184.253 199.803 183.964 200.157 183.572C200.512 183.18 200.689 182.76 200.689 182.312V167.808C200.689 167.379 200.512 166.968 200.157 166.576C199.803 166.165 199.625 165.867 199.625 165.68V165.568C199.625 165.269 199.831 165.12 200.241 165.12H205.477C205.888 165.12 206.093 165.269 206.093 165.568V165.68C206.093 165.867 205.897 166.165 205.505 166.576C205.113 166.968 204.917 167.379 204.917 167.808V182.312C204.917 182.76 205.113 183.18 205.505 183.572C205.897 183.964 206.093 184.253 206.093 184.44V184.524C206.093 184.841 205.888 185 205.477 185H200.241C199.831 185 199.625 184.841 199.625 184.524ZM222.65 182.284C222.687 182.732 222.865 183.152 223.182 183.544C223.499 183.936 223.658 184.235 223.658 184.44V184.552C223.658 184.869 223.443 185.028 223.014 185.028H218.17C217.741 185.028 217.526 184.869 217.526 184.552V184.44C217.526 184.253 217.694 183.964 218.03 183.572C218.385 183.18 218.553 182.751 218.534 182.284L218.254 177.104C218.123 174.285 217.311 172.876 215.818 172.876C215.071 172.876 214.483 173.156 214.054 173.716C213.643 174.276 213.438 175.023 213.438 175.956V182.312C213.438 182.76 213.634 183.18 214.026 183.572C214.437 183.964 214.642 184.253 214.642 184.44V184.552C214.642 184.869 214.427 185.028 213.998 185.028H208.79C208.361 185.028 208.146 184.869 208.146 184.552V184.44C208.146 184.253 208.342 183.964 208.734 183.572C209.145 183.18 209.35 182.76 209.35 182.312V175.788C209.35 175.508 209.275 175.256 209.126 175.032C208.995 174.808 208.837 174.649 208.65 174.556C208.482 174.444 208.323 174.313 208.174 174.164C208.043 174.015 207.978 173.865 207.978 173.716V173.604C207.978 173.399 208.165 173.203 208.538 173.016L211.87 171.392C212.187 171.243 212.421 171.233 212.57 171.364C212.738 171.476 212.822 171.681 212.822 171.98V173.548C213.625 172.036 215.006 171.28 216.966 171.28C218.385 171.28 219.589 171.756 220.578 172.708C221.586 173.66 222.165 175.172 222.314 177.244L222.65 182.284ZM238.654 182.312C238.654 182.741 238.84 183.161 239.214 183.572C239.587 183.964 239.774 184.253 239.774 184.44V184.524C239.774 184.841 239.587 185 239.214 185H235.742C235.312 185 235.098 184.795 235.098 184.384L235.042 183.768C234.183 184.776 232.97 185.28 231.402 185.28C229.591 185.28 228.042 184.655 226.754 183.404C225.466 182.135 224.822 180.417 224.822 178.252C224.822 176.217 225.466 174.547 226.754 173.24C228.042 171.933 229.6 171.28 231.43 171.28C232.736 171.28 233.828 171.644 234.706 172.372V167.892C234.706 167.519 234.584 167.211 234.342 166.968C234.118 166.725 233.884 166.52 233.642 166.352C233.418 166.184 233.306 166.007 233.306 165.82V165.736C233.306 165.419 233.502 165.204 233.894 165.092L237.562 163.972C238.29 163.729 238.654 163.916 238.654 164.532V182.312ZM232.326 184.076C232.96 184.076 233.511 183.815 233.978 183.292C234.463 182.751 234.706 182.013 234.706 181.08V176.152C234.706 175.237 234.398 174.397 233.782 173.632C233.166 172.867 232.456 172.484 231.654 172.484C230.795 172.484 230.114 172.848 229.61 173.576C229.106 174.285 228.844 175.293 228.826 176.6C228.788 177.664 228.891 178.756 229.134 179.876C229.395 180.996 229.806 181.976 230.366 182.816C230.944 183.637 231.598 184.057 232.326 184.076ZM254.95 182.144C254.95 182.648 255.015 183.031 255.146 183.292C255.295 183.535 255.454 183.675 255.622 183.712C255.79 183.731 255.939 183.787 256.07 183.88C256.219 183.973 256.294 184.132 256.294 184.356C256.294 184.897 255.463 185.168 253.802 185.168C252.981 185.168 252.365 185.037 251.954 184.776C251.562 184.496 251.347 184.02 251.31 183.348C250.526 184.636 249.173 185.28 247.25 185.28C245.738 185.28 244.487 184.776 243.498 183.768C242.527 182.741 242.042 181.304 242.042 179.456V174.724C242.042 174.257 241.855 173.828 241.482 173.436C241.127 173.025 240.95 172.745 240.95 172.596V172.512C240.95 172.176 241.146 171.98 241.538 171.924L245.066 171.392C245.831 171.299 246.214 171.467 246.214 171.896L246.13 179.876C246.13 182.415 246.905 183.684 248.454 183.684C249.145 183.684 249.714 183.385 250.162 182.788C250.629 182.172 250.862 181.379 250.862 180.408V174.724C250.862 174.257 250.675 173.828 250.302 173.436C249.929 173.025 249.742 172.745 249.742 172.596V172.512C249.742 172.176 249.929 171.98 250.302 171.924L253.886 171.392C254.595 171.317 254.95 171.485 254.95 171.896V182.144ZM263.517 185.252C261.762 185.252 260.325 184.935 259.205 184.3C258.085 183.665 257.525 182.9 257.525 182.004C257.525 181.5 257.674 181.117 257.973 180.856C258.29 180.595 258.701 180.464 259.205 180.464C259.746 180.464 260.185 180.66 260.521 181.052C260.857 181.425 261.09 181.845 261.221 182.312C261.37 182.779 261.632 183.208 262.005 183.6C262.397 183.973 262.901 184.16 263.517 184.16C264.114 184.16 264.6 184.001 264.973 183.684C265.365 183.367 265.561 182.909 265.561 182.312C265.561 181.64 265.29 181.108 264.749 180.716C264.226 180.324 263.582 180.035 262.817 179.848C262.052 179.643 261.286 179.419 260.521 179.176C259.756 178.915 259.102 178.476 258.561 177.86C258.038 177.225 257.777 176.404 257.777 175.396C257.777 174.201 258.3 173.221 259.345 172.456C260.409 171.672 261.781 171.28 263.461 171.28C265.16 171.28 266.541 171.616 267.605 172.288C268.688 172.941 269.229 173.725 269.229 174.64C269.229 175.051 269.07 175.396 268.753 175.676C268.454 175.956 268.081 176.096 267.633 176.096C267.11 176.096 266.69 175.909 266.373 175.536C266.056 175.144 265.832 174.724 265.701 174.276C265.57 173.809 265.337 173.389 265.001 173.016C264.665 172.624 264.226 172.428 263.685 172.428C263.144 172.428 262.705 172.615 262.369 172.988C262.033 173.343 261.865 173.781 261.865 174.304C261.865 174.827 262.005 175.265 262.285 175.62C262.565 175.975 262.929 176.245 263.377 176.432C263.825 176.619 264.32 176.796 264.861 176.964C265.402 177.113 265.944 177.291 266.485 177.496C267.045 177.683 267.549 177.916 267.997 178.196C268.445 178.476 268.809 178.877 269.089 179.4C269.369 179.904 269.509 180.52 269.509 181.248C269.509 182.405 268.968 183.367 267.885 184.132C266.802 184.879 265.346 185.252 263.517 185.252ZM276.497 185.28C275.19 185.28 274.154 184.869 273.389 184.048C272.642 183.208 272.269 182.004 272.269 180.436V173.184H270.953C270.579 173.184 270.393 172.997 270.393 172.624V172.148C270.393 171.756 270.579 171.56 270.953 171.56H271.653C272.418 171.56 273.062 171.308 273.585 170.804C274.126 170.3 274.471 169.628 274.621 168.788C274.714 168.34 274.929 168.116 275.265 168.116H275.825C276.235 168.116 276.441 168.34 276.441 168.788L276.469 171.56H279.689C279.838 171.56 279.969 171.616 280.081 171.728C280.193 171.84 280.249 171.98 280.249 172.148V172.624C280.249 172.792 280.193 172.932 280.081 173.044C279.969 173.137 279.838 173.184 279.689 173.184H276.469V180.492C276.469 181.033 276.599 181.472 276.861 181.808C277.141 182.125 277.486 182.284 277.897 182.284C278.867 182.284 279.502 181.864 279.801 181.024C279.969 180.781 280.174 180.688 280.417 180.744C280.678 180.781 280.809 180.931 280.809 181.192C280.809 182.275 280.417 183.227 279.633 184.048C278.867 184.869 277.822 185.28 276.497 185.28ZM290.404 171.28C291.207 171.28 291.832 171.523 292.28 172.008C292.747 172.475 292.98 173.081 292.98 173.828C292.98 175.303 292.383 176.04 291.188 176.04C290.703 176.04 290.32 175.919 290.04 175.676C289.779 175.415 289.62 175.135 289.564 174.836C289.508 174.537 289.396 174.267 289.228 174.024C289.06 173.763 288.808 173.632 288.472 173.632C287.968 173.632 287.595 173.931 287.352 174.528C287.109 175.125 286.988 175.853 286.988 176.712V182.312C286.988 182.648 287.1 182.947 287.324 183.208C287.567 183.451 287.8 183.665 288.024 183.852C288.267 184.039 288.388 184.225 288.388 184.412V184.524C288.388 184.841 288.183 185 287.772 185H282.592C282.163 185 281.948 184.841 281.948 184.524V184.412C281.948 184.225 282.125 183.936 282.48 183.544C282.853 183.152 283.04 182.741 283.04 182.312V175.76C283.04 175.312 282.825 174.911 282.396 174.556C281.967 174.201 281.752 173.931 281.752 173.744V173.632C281.752 173.371 281.948 173.147 282.34 172.96L285.7 171.392C286.297 171.112 286.596 171.299 286.596 171.952V174.052C287.231 172.204 288.5 171.28 290.404 171.28ZM308.169 171.56C308.542 171.56 308.729 171.709 308.729 172.008V172.148C308.729 172.391 308.533 172.717 308.141 173.128C307.767 173.539 307.487 173.94 307.301 174.332L302.009 185.84C301.766 186.381 301.561 186.82 301.393 187.156C301.225 187.492 300.963 187.931 300.609 188.472C300.273 189.032 299.937 189.471 299.601 189.788C299.265 190.105 298.845 190.385 298.341 190.628C297.837 190.871 297.314 190.992 296.773 190.992C295.578 190.992 294.589 190.684 293.805 190.068C293.039 189.452 292.657 188.761 292.657 187.996C292.657 187.492 292.806 187.081 293.105 186.764C293.403 186.465 293.814 186.316 294.337 186.316C294.859 186.316 295.27 186.484 295.569 186.82C295.867 187.175 296.063 187.567 296.157 187.996C296.25 188.425 296.39 188.808 296.577 189.144C296.782 189.499 297.043 189.676 297.361 189.676C298.219 189.676 299.181 188.369 300.245 185.756L294.673 174.332C294.467 173.921 294.159 173.52 293.749 173.128C293.357 172.717 293.161 172.391 293.161 172.148V172.008C293.161 171.709 293.357 171.56 293.749 171.56H298.985C299.339 171.56 299.517 171.719 299.517 172.036V172.148C299.517 172.316 299.433 172.512 299.265 172.736C299.097 172.941 298.985 173.137 298.929 173.324C298.873 173.511 298.929 173.865 299.097 174.388L302.373 181.976L305.397 174.78C305.583 174.145 305.583 173.707 305.397 173.464C305.21 173.221 304.958 172.988 304.641 172.764C304.323 172.521 304.165 172.316 304.165 172.148V172.036C304.165 171.719 304.361 171.56 304.753 171.56H308.169ZM310.765 173.044C310.13 170.468 309.803 168.405 309.785 166.856C309.785 166.184 309.981 165.671 310.373 165.316C310.783 164.943 311.278 164.756 311.857 164.756C312.435 164.756 312.93 164.933 313.341 165.288C313.751 165.643 313.957 166.165 313.957 166.856C313.938 167.64 313.798 168.704 313.537 170.048C313.294 171.392 313.079 172.391 312.893 173.044C312.725 173.548 312.361 173.8 311.801 173.8C311.259 173.781 310.914 173.529 310.765 173.044ZM320.993 185.252C319.239 185.252 317.801 184.935 316.681 184.3C315.561 183.665 315.001 182.9 315.001 182.004C315.001 181.5 315.151 181.117 315.449 180.856C315.767 180.595 316.177 180.464 316.681 180.464C317.223 180.464 317.661 180.66 317.997 181.052C318.333 181.425 318.567 181.845 318.697 182.312C318.847 182.779 319.108 183.208 319.481 183.6C319.873 183.973 320.377 184.16 320.993 184.16C321.591 184.16 322.076 184.001 322.449 183.684C322.841 183.367 323.037 182.909 323.037 182.312C323.037 181.64 322.767 181.108 322.225 180.716C321.703 180.324 321.059 180.035 320.293 179.848C319.528 179.643 318.763 179.419 317.997 179.176C317.232 178.915 316.579 178.476 316.037 177.86C315.515 177.225 315.253 176.404 315.253 175.396C315.253 174.201 315.776 173.221 316.821 172.456C317.885 171.672 319.257 171.28 320.937 171.28C322.636 171.28 324.017 171.616 325.081 172.288C326.164 172.941 326.705 173.725 326.705 174.64C326.705 175.051 326.547 175.396 326.229 175.676C325.931 175.956 325.557 176.096 325.109 176.096C324.587 176.096 324.167 175.909 323.849 175.536C323.532 175.144 323.308 174.724 323.177 174.276C323.047 173.809 322.813 173.389 322.477 173.016C322.141 172.624 321.703 172.428 321.161 172.428C320.62 172.428 320.181 172.615 319.845 172.988C319.509 173.343 319.341 173.781 319.341 174.304C319.341 174.827 319.481 175.265 319.761 175.62C320.041 175.975 320.405 176.245 320.853 176.432C321.301 176.619 321.796 176.796 322.337 176.964C322.879 177.113 323.42 177.291 323.961 177.496C324.521 177.683 325.025 177.916 325.473 178.196C325.921 178.476 326.285 178.877 326.565 179.4C326.845 179.904 326.985 180.52 326.985 181.248C326.985 182.405 326.444 183.367 325.361 184.132C324.279 184.879 322.823 185.252 320.993 185.252ZM56.96 216C56.5493 216 56.344 215.841 56.344 215.524V215.44C56.344 215.253 56.5213 214.964 56.876 214.572C57.2307 214.161 57.408 213.741 57.408 213.312V198.808C57.408 198.36 57.2307 197.949 56.876 197.576C56.5213 197.184 56.344 196.885 56.344 196.68V196.568C56.344 196.269 56.5493 196.12 56.96 196.12H62.224C62.672 196.12 62.896 196.269 62.896 196.568V196.68C62.896 196.885 62.6907 197.184 62.28 197.576C61.888 197.949 61.692 198.36 61.692 198.808V212.724C61.692 213.172 61.7853 213.545 61.972 213.844C62.1773 214.143 62.476 214.292 62.868 214.292H66.9C67.3667 214.292 67.796 214.105 68.188 213.732C68.58 213.34 68.8787 212.92 69.084 212.472C69.308 212.024 69.5507 211.613 69.812 211.24C70.092 210.848 70.3627 210.652 70.624 210.652H70.96C71.3707 210.652 71.5293 210.857 71.436 211.268L70.708 215.188C70.596 215.729 70.3067 216 69.84 216H56.96ZM83.943 211.744C84.111 211.52 84.3164 211.445 84.559 211.52C84.8017 211.595 84.9137 211.772 84.895 212.052C84.8017 213.023 84.2417 213.975 83.215 214.908C82.1884 215.823 80.8537 216.28 79.211 216.28C77.2324 216.28 75.6084 215.627 74.339 214.32C73.0697 213.013 72.435 211.296 72.435 209.168C72.435 207.171 73.0977 205.528 74.423 204.24C75.7484 202.933 77.3444 202.28 79.211 202.28C80.9097 202.28 82.2164 202.681 83.131 203.484C84.0457 204.287 84.503 205.211 84.503 206.256C84.503 207.115 84.0924 207.731 83.271 208.104L77.055 210.932C77.8204 212.556 79.0524 213.368 80.751 213.368C81.4604 213.368 82.095 213.219 82.655 212.92C83.2337 212.603 83.663 212.211 83.943 211.744ZM78.707 203.512C77.979 203.512 77.4004 203.867 76.971 204.576C76.5417 205.267 76.327 206.153 76.327 207.236C76.327 208.151 76.4204 208.953 76.607 209.644L80.219 207.824C80.7044 207.581 80.947 207.143 80.947 206.508C80.947 205.873 80.7417 205.22 80.331 204.548C79.9204 203.857 79.379 203.512 78.707 203.512ZM98.4529 202.56C99.1623 202.56 99.6289 202.635 99.8529 202.784C100.096 202.915 100.17 203.12 100.077 203.4C100.021 203.68 99.8996 203.885 99.7129 204.016C99.5263 204.128 99.2089 204.221 98.7609 204.296C98.3129 204.371 98.0423 204.427 97.9489 204.464C98.9943 205.547 99.5169 206.741 99.5169 208.048C99.5169 209.131 99.2369 210.101 98.6769 210.96C98.1356 211.8 97.3703 212.453 96.3809 212.92C98.6209 213.424 99.7409 214.488 99.7409 216.112C99.7409 217.288 99.0689 218.231 97.7249 218.94C96.3996 219.668 94.7289 220.032 92.7129 220.032C90.6969 220.032 89.1009 219.668 87.9249 218.94C86.7676 218.212 86.1889 217.288 86.1889 216.168C86.1889 215.739 86.3289 215.375 86.6089 215.076C86.8889 214.759 87.2996 214.6 87.8409 214.6C88.3449 214.6 88.7743 214.824 89.1289 215.272C89.4836 215.701 89.7543 216.177 89.9409 216.7C90.1463 217.241 90.4916 217.727 90.9769 218.156C91.4623 218.604 92.0689 218.837 92.7969 218.856C93.6556 218.856 94.3369 218.613 94.8409 218.128C95.3636 217.643 95.6249 217.008 95.6249 216.224C95.6249 214.749 95.0463 213.891 93.8889 213.648C93.4036 213.685 93.0396 213.704 92.7969 213.704C90.9116 213.704 89.3436 213.181 88.0929 212.136C86.8609 211.072 86.2449 209.747 86.2449 208.16C86.2449 206.405 86.8609 204.987 88.0929 203.904C89.3249 202.821 90.9209 202.28 92.8809 202.28C93.3849 202.28 94.1783 202.327 95.2609 202.42C96.3436 202.513 97.4076 202.56 98.4529 202.56ZM90.1929 206.312C90.1929 207.843 90.5103 209.252 91.1449 210.54C91.7983 211.809 92.5543 212.444 93.4129 212.444C94.0663 212.444 94.5796 212.192 94.9529 211.688C95.3449 211.165 95.5409 210.484 95.5409 209.644C95.5409 208.729 95.4103 207.805 95.1489 206.872C94.8876 205.939 94.4956 205.145 93.9729 204.492C93.4503 203.839 92.8809 203.512 92.2649 203.512C91.6303 203.512 91.1263 203.764 90.7529 204.268C90.3796 204.772 90.1929 205.453 90.1929 206.312ZM114.297 213.2C114.353 213.629 114.456 213.975 114.605 214.236C114.773 214.497 114.941 214.665 115.109 214.74C115.277 214.796 115.427 214.871 115.557 214.964C115.688 215.057 115.753 215.188 115.753 215.356C115.753 215.897 114.857 216.168 113.065 216.168C112.244 216.168 111.637 216.065 111.245 215.86C110.872 215.636 110.648 215.235 110.573 214.656C109.845 215.739 108.604 216.28 106.849 216.28C105.281 216.28 104.012 215.916 103.041 215.188C102.071 214.46 101.585 213.415 101.585 212.052C101.567 210.708 102.043 209.663 103.013 208.916C103.984 208.169 105.197 207.796 106.653 207.796C107.885 207.796 108.903 208.076 109.705 208.636L109.677 208.3C109.491 206.527 109.229 205.276 108.893 204.548C108.557 203.82 107.988 203.456 107.185 203.456C106.681 203.456 106.271 203.643 105.953 204.016C105.636 204.389 105.412 204.8 105.281 205.248C105.151 205.696 104.936 206.107 104.637 206.48C104.339 206.853 103.956 207.04 103.489 207.04C102.985 207.04 102.575 206.9 102.257 206.62C101.959 206.321 101.809 205.939 101.809 205.472C101.809 204.501 102.323 203.727 103.349 203.148C104.395 202.569 105.673 202.28 107.185 202.28C108.996 202.28 110.48 202.793 111.637 203.82C112.795 204.847 113.476 206.247 113.681 208.02L114.297 213.2ZM108.081 215.048C108.697 215.048 109.192 214.796 109.565 214.292C109.939 213.769 110.107 213.181 110.069 212.528L109.985 211.548C109.911 210.745 109.668 210.129 109.257 209.7C108.865 209.271 108.371 209.056 107.773 209.056C107.176 209.056 106.681 209.271 106.289 209.7C105.916 210.129 105.729 210.699 105.729 211.408C105.729 212.416 105.944 213.275 106.373 213.984C106.821 214.693 107.391 215.048 108.081 215.048ZM117.157 216C116.728 216 116.513 215.841 116.513 215.524V215.412C116.513 215.225 116.69 214.936 117.045 214.544C117.418 214.152 117.605 213.741 117.605 213.312V199.536C117.605 199.051 117.418 198.612 117.045 198.22C116.69 197.828 116.513 197.557 116.513 197.408V197.296C116.513 197.072 116.7 196.885 117.073 196.736L120.601 195C120.974 194.851 121.254 194.832 121.441 194.944C121.646 195.056 121.749 195.243 121.749 195.504V213.312C121.749 213.741 121.945 214.152 122.337 214.544C122.748 214.936 122.953 215.225 122.953 215.412V215.524C122.953 215.841 122.738 216 122.309 216H117.157ZM131.335 216C130.924 216 130.719 215.841 130.719 215.524V215.44C130.719 215.253 130.896 214.964 131.251 214.572C131.606 214.161 131.783 213.741 131.783 213.312V198.808C131.783 198.36 131.606 197.949 131.251 197.576C130.896 197.184 130.719 196.885 130.719 196.68V196.568C130.719 196.269 130.924 196.12 131.335 196.12H136.599C137.047 196.12 137.271 196.269 137.271 196.568V196.68C137.271 196.885 137.066 197.184 136.655 197.576C136.263 197.949 136.067 198.36 136.067 198.808V212.724C136.067 213.172 136.16 213.545 136.347 213.844C136.552 214.143 136.851 214.292 137.243 214.292H141.275C141.742 214.292 142.171 214.105 142.563 213.732C142.955 213.34 143.254 212.92 143.459 212.472C143.683 212.024 143.926 211.613 144.187 211.24C144.467 210.848 144.738 210.652 144.999 210.652H145.335C145.746 210.652 145.904 210.857 145.811 211.268L145.083 215.188C144.971 215.729 144.682 216 144.215 216H131.335ZM159.606 213.2C159.662 213.629 159.765 213.975 159.914 214.236C160.082 214.497 160.25 214.665 160.418 214.74C160.586 214.796 160.735 214.871 160.866 214.964C160.997 215.057 161.062 215.188 161.062 215.356C161.062 215.897 160.166 216.168 158.374 216.168C157.553 216.168 156.946 216.065 156.554 215.86C156.181 215.636 155.957 215.235 155.882 214.656C155.154 215.739 153.913 216.28 152.158 216.28C150.59 216.28 149.321 215.916 148.35 215.188C147.379 214.46 146.894 213.415 146.894 212.052C146.875 210.708 147.351 209.663 148.322 208.916C149.293 208.169 150.506 207.796 151.962 207.796C153.194 207.796 154.211 208.076 155.014 208.636L154.986 208.3C154.799 206.527 154.538 205.276 154.202 204.548C153.866 203.82 153.297 203.456 152.494 203.456C151.99 203.456 151.579 203.643 151.262 204.016C150.945 204.389 150.721 204.8 150.59 205.248C150.459 205.696 150.245 206.107 149.946 206.48C149.647 206.853 149.265 207.04 148.798 207.04C148.294 207.04 147.883 206.9 147.566 206.62C147.267 206.321 147.118 205.939 147.118 205.472C147.118 204.501 147.631 203.727 148.658 203.148C149.703 202.569 150.982 202.28 152.494 202.28C154.305 202.28 155.789 202.793 156.946 203.82C158.103 204.847 158.785 206.247 158.99 208.02L159.606 213.2ZM153.39 215.048C154.006 215.048 154.501 214.796 154.874 214.292C155.247 213.769 155.415 213.181 155.378 212.528L155.294 211.548C155.219 210.745 154.977 210.129 154.566 209.7C154.174 209.271 153.679 209.056 153.082 209.056C152.485 209.056 151.99 209.271 151.598 209.7C151.225 210.129 151.038 210.699 151.038 211.408C151.038 212.416 151.253 213.275 151.682 213.984C152.13 214.693 152.699 215.048 153.39 215.048ZM176.494 213.284C176.531 213.732 176.708 214.152 177.026 214.544C177.343 214.936 177.502 215.235 177.502 215.44V215.552C177.502 215.869 177.287 216.028 176.858 216.028H172.014C171.584 216.028 171.37 215.869 171.37 215.552V215.44C171.37 215.253 171.538 214.964 171.874 214.572C172.228 214.18 172.396 213.751 172.378 213.284L172.098 208.104C171.967 205.285 171.155 203.876 169.662 203.876C168.915 203.876 168.327 204.156 167.898 204.716C167.487 205.276 167.282 206.023 167.282 206.956V213.312C167.282 213.76 167.478 214.18 167.87 214.572C168.28 214.964 168.486 215.253 168.486 215.44V215.552C168.486 215.869 168.271 216.028 167.842 216.028H162.634C162.204 216.028 161.99 215.869 161.99 215.552V215.44C161.99 215.253 162.186 214.964 162.578 214.572C162.988 214.18 163.194 213.76 163.194 213.312V206.788C163.194 206.508 163.119 206.256 162.97 206.032C162.839 205.808 162.68 205.649 162.494 205.556C162.326 205.444 162.167 205.313 162.018 205.164C161.887 205.015 161.822 204.865 161.822 204.716V204.604C161.822 204.399 162.008 204.203 162.382 204.016L165.714 202.392C166.031 202.243 166.264 202.233 166.414 202.364C166.582 202.476 166.666 202.681 166.666 202.98V204.548C167.468 203.036 168.85 202.28 170.81 202.28C172.228 202.28 173.432 202.756 174.422 203.708C175.43 204.66 176.008 206.172 176.158 208.244L176.494 213.284ZM192.498 213.312C192.498 213.741 192.684 214.161 193.058 214.572C193.431 214.964 193.618 215.253 193.618 215.44V215.524C193.618 215.841 193.431 216 193.058 216H189.586C189.156 216 188.942 215.795 188.942 215.384L188.886 214.768C188.027 215.776 186.814 216.28 185.246 216.28C183.435 216.28 181.886 215.655 180.598 214.404C179.31 213.135 178.666 211.417 178.666 209.252C178.666 207.217 179.31 205.547 180.598 204.24C181.886 202.933 183.444 202.28 185.274 202.28C186.58 202.28 187.672 202.644 188.55 203.372V198.892C188.55 198.519 188.428 198.211 188.186 197.968C187.962 197.725 187.728 197.52 187.486 197.352C187.262 197.184 187.15 197.007 187.15 196.82V196.736C187.15 196.419 187.346 196.204 187.738 196.092L191.406 194.972C192.134 194.729 192.498 194.916 192.498 195.532V213.312ZM186.169 215.076C186.804 215.076 187.355 214.815 187.822 214.292C188.307 213.751 188.55 213.013 188.55 212.08V207.152C188.55 206.237 188.242 205.397 187.626 204.632C187.01 203.867 186.3 203.484 185.498 203.484C184.639 203.484 183.958 203.848 183.454 204.576C182.95 205.285 182.688 206.293 182.67 207.6C182.632 208.664 182.735 209.756 182.978 210.876C183.239 211.996 183.65 212.976 184.21 213.816C184.788 214.637 185.442 215.057 186.169 215.076ZM200.982 216.252C199.227 216.252 197.79 215.935 196.67 215.3C195.55 214.665 194.99 213.9 194.99 213.004C194.99 212.5 195.139 212.117 195.438 211.856C195.755 211.595 196.166 211.464 196.67 211.464C197.211 211.464 197.65 211.66 197.986 212.052C198.322 212.425 198.555 212.845 198.686 213.312C198.835 213.779 199.096 214.208 199.47 214.6C199.862 214.973 200.366 215.16 200.982 215.16C201.579 215.16 202.064 215.001 202.438 214.684C202.83 214.367 203.026 213.909 203.026 213.312C203.026 212.64 202.755 212.108 202.214 211.716C201.691 211.324 201.047 211.035 200.282 210.848C199.516 210.643 198.751 210.419 197.986 210.176C197.22 209.915 196.567 209.476 196.026 208.86C195.503 208.225 195.242 207.404 195.242 206.396C195.242 205.201 195.764 204.221 196.81 203.456C197.874 202.672 199.246 202.28 200.926 202.28C202.624 202.28 204.006 202.616 205.07 203.288C206.152 203.941 206.694 204.725 206.694 205.64C206.694 206.051 206.535 206.396 206.218 206.676C205.919 206.956 205.546 207.096 205.098 207.096C204.575 207.096 204.155 206.909 203.838 206.536C203.52 206.144 203.296 205.724 203.166 205.276C203.035 204.809 202.802 204.389 202.466 204.016C202.13 203.624 201.691 203.428 201.15 203.428C200.608 203.428 200.17 203.615 199.834 203.988C199.498 204.343 199.33 204.781 199.33 205.304C199.33 205.827 199.47 206.265 199.75 206.62C200.03 206.975 200.394 207.245 200.842 207.432C201.29 207.619 201.784 207.796 202.326 207.964C202.867 208.113 203.408 208.291 203.95 208.496C204.51 208.683 205.014 208.916 205.462 209.196C205.91 209.476 206.274 209.877 206.554 210.4C206.834 210.904 206.974 211.52 206.974 212.248C206.974 213.405 206.432 214.367 205.35 215.132C204.267 215.879 202.811 216.252 200.982 216.252ZM215.472 216.28C213.4 216.28 211.673 215.589 210.292 214.208C208.929 212.827 208.248 211.175 208.248 209.252C208.248 207.161 208.929 205.481 210.292 204.212C211.673 202.943 213.344 202.299 215.304 202.28C216.909 202.261 218.272 202.635 219.392 203.4C220.531 204.165 221.1 205.099 221.1 206.2C221.1 206.611 220.96 206.956 220.68 207.236C220.4 207.497 219.961 207.619 219.364 207.6C218.916 207.581 218.524 207.423 218.188 207.124C217.852 206.825 217.572 206.48 217.348 206.088C217.143 205.696 216.928 205.304 216.704 204.912C216.48 204.52 216.2 204.193 215.864 203.932C215.528 203.652 215.136 203.512 214.688 203.512C213.904 203.512 213.269 203.867 212.784 204.576C212.317 205.285 212.084 206.172 212.084 207.236C212.084 209.103 212.513 210.596 213.372 211.716C214.249 212.836 215.407 213.396 216.844 213.396C218.319 213.396 219.439 212.743 220.204 211.436C220.316 211.287 220.447 211.203 220.596 211.184C220.764 211.147 220.904 211.184 221.016 211.296C221.147 211.389 221.203 211.529 221.184 211.716C221.091 212.967 220.54 214.04 219.532 214.936C218.543 215.832 217.189 216.28 215.472 216.28ZM235.348 213.2C235.404 213.629 235.507 213.975 235.656 214.236C235.824 214.497 235.992 214.665 236.16 214.74C236.328 214.796 236.478 214.871 236.608 214.964C236.739 215.057 236.804 215.188 236.804 215.356C236.804 215.897 235.908 216.168 234.116 216.168C233.295 216.168 232.688 216.065 232.296 215.86C231.923 215.636 231.699 215.235 231.624 214.656C230.896 215.739 229.655 216.28 227.9 216.28C226.332 216.28 225.063 215.916 224.092 215.188C223.122 214.46 222.636 213.415 222.636 212.052C222.618 210.708 223.094 209.663 224.064 208.916C225.035 208.169 226.248 207.796 227.704 207.796C228.936 207.796 229.954 208.076 230.756 208.636L230.728 208.3C230.542 206.527 230.28 205.276 229.944 204.548C229.608 203.82 229.039 203.456 228.236 203.456C227.732 203.456 227.322 203.643 227.004 204.016C226.687 204.389 226.463 204.8 226.332 205.248C226.202 205.696 225.987 206.107 225.688 206.48C225.39 206.853 225.007 207.04 224.54 207.04C224.036 207.04 223.626 206.9 223.308 206.62C223.01 206.321 222.86 205.939 222.86 205.472C222.86 204.501 223.374 203.727 224.4 203.148C225.446 202.569 226.724 202.28 228.236 202.28C230.047 202.28 231.531 202.793 232.688 203.82C233.846 204.847 234.527 206.247 234.732 208.02L235.348 213.2ZM229.132 215.048C229.748 215.048 230.243 214.796 230.616 214.292C230.99 213.769 231.158 213.181 231.12 212.528L231.036 211.548C230.962 210.745 230.719 210.129 230.308 209.7C229.916 209.271 229.422 209.056 228.824 209.056C228.227 209.056 227.732 209.271 227.34 209.7C226.967 210.129 226.78 210.699 226.78 211.408C226.78 212.416 226.995 213.275 227.424 213.984C227.872 214.693 228.442 215.048 229.132 215.048ZM245.964 202.28C247.719 202.28 249.249 202.887 250.556 204.1C251.863 205.313 252.516 206.965 252.516 209.056C252.516 211.165 251.872 212.901 250.584 214.264C249.315 215.608 247.784 216.28 245.992 216.28C244.685 216.28 243.593 215.916 242.716 215.188V219.36C242.716 219.808 242.912 220.228 243.304 220.62C243.696 221.012 243.892 221.301 243.892 221.488V221.6C243.892 221.917 243.677 222.076 243.248 222.076H238.18C237.751 222.076 237.536 221.917 237.536 221.6V221.488C237.536 221.301 237.713 221.012 238.068 220.62C238.441 220.228 238.628 219.808 238.628 219.36V206.76C238.628 206.349 238.413 205.976 237.984 205.64C237.555 205.285 237.34 205.005 237.34 204.8V204.66C237.34 204.399 237.527 204.175 237.9 203.988L241.036 202.448C241.745 202.093 242.1 202.261 242.1 202.952L242.072 204.128C242.856 202.896 244.153 202.28 245.964 202.28ZM245.572 215.076C246.468 215.076 247.159 214.703 247.644 213.956C248.148 213.209 248.4 212.136 248.4 210.736C248.4 208.832 248.092 207.152 247.476 205.696C246.86 204.221 246.029 203.484 244.984 203.484C244.405 203.484 243.901 203.699 243.472 204.128C243.043 204.539 242.791 205.08 242.716 205.752V211.1C242.716 212.183 243.005 213.116 243.584 213.9C244.163 214.684 244.825 215.076 245.572 215.076ZM265.533 211.744C265.701 211.52 265.906 211.445 266.149 211.52C266.392 211.595 266.504 211.772 266.485 212.052C266.392 213.023 265.832 213.975 264.805 214.908C263.778 215.823 262.444 216.28 260.801 216.28C258.822 216.28 257.198 215.627 255.929 214.32C254.66 213.013 254.025 211.296 254.025 209.168C254.025 207.171 254.688 205.528 256.013 204.24C257.338 202.933 258.934 202.28 260.801 202.28C262.5 202.28 263.806 202.681 264.721 203.484C265.636 204.287 266.093 205.211 266.093 206.256C266.093 207.115 265.682 207.731 264.861 208.104L258.645 210.932C259.41 212.556 260.642 213.368 262.341 213.368C263.05 213.368 263.685 213.219 264.245 212.92C264.824 212.603 265.253 212.211 265.533 211.744ZM260.297 203.512C259.569 203.512 258.99 203.867 258.561 204.576C258.132 205.267 257.917 206.153 257.917 207.236C257.917 208.151 258.01 208.953 258.197 209.644L261.809 207.824C262.294 207.581 262.537 207.143 262.537 206.508C262.537 205.873 262.332 205.22 261.921 204.548C261.51 203.857 260.969 203.512 260.297 203.512Z" fill="#163A24"/>
<defs>
<filter id="filter0_d_1_1252" x="0" y="0" width="393" height="433" filterUnits="userSpaceOnUse" color-interpolation-filters="sRGB">
<feFlood flood-opacity="0" result="BackgroundImageFix"/>
<feColorMatrix in="SourceAlpha" type="matrix" values="0 0 0 0 0 0 0 0 0 0 0 0 0 0 0 0 0 0 127 0" result="hardAlpha"/>
<feOffset dx="5" dy="5"/>
<feGaussianBlur stdDeviation="10"/>
<feColorMatrix type="matrix" values="0 0 0 0 0.913725 0 0 0 0 0.894118 0 0 0 0 0.835294 0 0 0 1 0"/>
<feBlend mode="normal" in2="BackgroundImageFix" result="effect1_dropShadow_1_1252"/>
<feBlend mode="normal" in="SourceGraphic" in2="effect1_dropShadow_1_1252" result="shape"/>
</filter>
</defs>
</svg>
